<?xml version="1.0" encoding="UTF-8" standalone="no"?>
<svg
   xmlns:dc="http://purl.org/dc/elements/1.1/"
   xmlns:cc="http://creativecommons.org/ns#"
   xmlns:rdf="http://www.w3.org/1999/02/22-rdf-syntax-ns#"
   xmlns:svg="http://www.w3.org/2000/svg"
   xmlns="http://www.w3.org/2000/svg"
   xmlns:sodipodi="http://sodipodi.sourceforge.net/DTD/sodipodi-0.dtd"
   xmlns:inkscape="http://www.inkscape.org/namespaces/inkscape"
   viewBox="0 0 915.65238 915.65238"
   version="1.1"
   id="svg4"
   sodipodi:docname="Accept.svg"
   inkscape:version="0.92.5 (2060ec1f9f, 2020-04-08)">
  <metadata
     id="metadata10">
    <rdf:RDF>
      <cc:Work
         rdf:about="">
        <dc:format>image/svg+xml</dc:format>
        <dc:type
           rdf:resource="http://purl.org/dc/dcmitype/StillImage" />
        <dc:title></dc:title>
      </cc:Work>
    </rdf:RDF>
  </metadata>
  <defs
     id="defs8" />
  <sodipodi:namedview
     pagecolor="#ffffff"
     bordercolor="#666666"
     borderopacity="1"
     objecttolerance="10"
     gridtolerance="10"
     guidetolerance="10"
     inkscape:pageopacity="0"
     inkscape:pageshadow="2"
     inkscape:window-width="1848"
     inkscape:window-height="1016"
     id="namedview6"
     showgrid="false"
     inkscape:zoom="0.25773972"
     inkscape:cx="-401.21361"
     inkscape:cy="245.80055"
     inkscape:window-x="72"
     inkscape:window-y="1107"
     inkscape:window-maximized="1"
     inkscape:current-layer="svg4" />
  <path
     d="M 457.82617 1.546875 C 433.34392 1.546875 415.75396 1.7913611 399.98633 12.337891 C 384.21869 22.884421 377.71379 39.270788 369.86133 60.986328 C 349.94395 116.06732 290.51374 140.15496 236.47461 114.5625 C 214.93444 104.36129 200.14368 96.429264 181.37109 100.02539 C 162.5985 103.62152 151.52442 116.12599 133.82617 133.82422 C 116.12791 151.52251 103.62339 162.59643 100.02734 181.36914 C 96.431291 200.14184 104.3631 214.9343 114.56445 236.47461 C 140.15687 290.51376 116.06857 349.94413 60.988281 369.86133 C 39.272919 377.71377 22.88698 384.21899 12.339844 399.98633 C 1.7927083 415.75367 1.546875 433.34364 1.546875 457.82617 C 1.546875 482.30869 1.7924265 499.899 12.339844 515.66602 C 22.887262 531.43304 39.273135 537.93678 60.988281 545.78906 C 116.06895 565.70632 140.15686 625.13858 114.56445 679.17773 C 104.36315 700.71789 96.431161 715.50866 100.02734 734.28125 C 103.62352 753.05383 116.12802 764.12801 133.82617 781.82617 L 133.82617 781.82812 C 151.52315 799.52504 162.59728 812.02564 181.36719 815.62305 C 200.1371 819.22046 214.92724 811.29105 236.45898 801.09375 C 255.83992 791.91527 265.01318 788.85104 273.2168 788.89453 C 281.42041 788.93803 292.73557 792.43051 314.91016 801.90039 C 346.59899 815.43346 360.9608 830.04959 370.5918 856.68359 C 378.0791 877.38937 384.79801 893.51624 400.47656 903.65625 C 416.15511 913.79625 433.5437 914.10547 457.82617 914.10547 C 482.3087 914.10547 499.89866 913.85962 515.66602 903.3125 C 531.43339 892.76537 537.93867 876.37946 545.79102 854.66406 C 565.70817 799.58449 625.13881 775.49539 679.17773 801.08789 L 679.17969 801.08789 C 700.71991 811.28909 715.50865 819.22113 734.28125 815.625 C 753.05385 812.02886 764.12992 799.52441 781.82812 781.82617 C 799.52499 764.12927 812.02692 753.05502 815.625 734.28516 C 819.22307 715.5153 811.2931 700.72354 801.0957 679.19141 C 791.91707 659.81035 788.85133 650.63524 788.89453 642.43164 C 788.93773 634.22804 792.43058 622.91461 801.90039 600.74023 C 815.43344 569.05155 830.04926 554.69164 856.68359 545.06055 C 877.38942 537.57322 893.51625 530.85433 903.65625 515.17578 C 913.79624 499.49723 914.10547 482.10861 914.10547 457.82617 C 914.10547 433.34366 913.85961 415.75371 903.3125 399.98633 C 892.76538 384.21896 876.37954 377.71377 854.66406 369.86133 C 799.58448 349.94417 775.49552 290.51372 801.08789 236.47461 C 811.28921 214.93433 819.22101 200.14188 815.625 181.36914 C 812.02898 162.5964 799.52455 151.52253 781.82617 133.82422 C 764.12918 116.12728 753.05508 103.62473 734.28516 100.02734 C 715.51523 96.42996 700.72521 104.36133 679.19336 114.55859 C 659.81253 123.73707 650.63919 126.79935 642.43555 126.75586 C 634.23186 126.71231 622.91676 123.21987 600.74219 113.75 C 569.05286 100.2167 554.6915 85.602474 545.06055 58.96875 C 537.5733 38.262921 530.85435 22.136096 515.17578 11.996094 C 499.49721 1.8560925 482.10864 1.546875 457.82617 1.546875 z M 612.77344 280.0918 C 619.71788 280.0918 624.38433 280.74284 626.77148 282.04492 C 629.15864 283.34701 630.35156 284.97461 630.35156 286.92773 C 630.35156 289.96593 626.77083 295.93446 619.60938 304.83203 C 535.84201 405.52648 458.15169 511.86263 386.53711 623.8418 C 381.54579 631.6543 371.34549 635.56055 355.9375 635.56055 C 340.3125 635.56055 331.09071 634.90951 328.26953 633.60742 C 320.89106 630.35221 312.2092 613.75065 302.22656 583.80273 C 290.94184 550.59961 285.30078 529.76628 285.30078 521.30273 C 285.30078 512.18815 292.89496 503.39909 308.08594 494.93555 C 317.41754 489.72721 325.66471 487.12305 332.82617 487.12305 C 341.28971 487.12305 347.69097 494.06814 352.03125 507.95703 C 360.71181 533.9987 366.8967 547.01953 370.58594 547.01953 C 373.40712 547.01953 376.33681 544.84809 379.375 540.50781 C 440.3559 442.85156 496.78016 363.85916 548.64648 303.5293 C 562.10135 287.9043 583.47656 280.0918 612.77344 280.0918 z "
     id="path2" />
</svg>
