<?xml version="1.0" encoding="UTF-8" standalone="no"?>
<!-- Created with Inkscape (http://www.inkscape.org/) -->

<svg
   width="53.406212mm"
   height="52.112789mm"
   viewBox="0 0 53.406212 52.112789"
   version="1.1"
   id="svg8"
   inkscape:version="1.1.2 (0a00cf5339, 2022-02-04)"
   sodipodi:docname="character_remove.svg"
   xmlns:inkscape="http://www.inkscape.org/namespaces/inkscape"
   xmlns:sodipodi="http://sodipodi.sourceforge.net/DTD/sodipodi-0.dtd"
   xmlns="http://www.w3.org/2000/svg"
   xmlns:svg="http://www.w3.org/2000/svg"
   xmlns:rdf="http://www.w3.org/1999/02/22-rdf-syntax-ns#"
   xmlns:cc="http://creativecommons.org/ns#"
   xmlns:dc="http://purl.org/dc/elements/1.1/">
  <defs
     id="defs2" />
  <sodipodi:namedview
     id="base"
     pagecolor="#ffffff"
     bordercolor="#666666"
     borderopacity="1.0"
     inkscape:pageopacity="0.0"
     inkscape:pageshadow="2"
     inkscape:zoom="0.35"
     inkscape:cx="478.57143"
     inkscape:cy="658.57143"
     inkscape:document-units="mm"
     inkscape:current-layer="layer1"
     showgrid="false"
     fit-margin-top="0"
     fit-margin-left="0"
     fit-margin-right="0"
     fit-margin-bottom="0"
     inkscape:window-width="1846"
     inkscape:window-height="1016"
     inkscape:window-x="74"
     inkscape:window-y="1107"
     inkscape:window-maximized="1"
     showguides="false"
     inkscape:pagecheckerboard="0" />
  <metadata
     id="metadata5">
    <rdf:RDF>
      <cc:Work
         rdf:about="">
        <dc:format>image/svg+xml</dc:format>
        <dc:type
           rdf:resource="http://purl.org/dc/dcmitype/StillImage" />
      </cc:Work>
    </rdf:RDF>
  </metadata>
  <g
     inkscape:label="Capa 1"
     inkscape:groupmode="layer"
     id="layer1"
     transform="translate(-0.50522897,-0.20431974)">
    <path
       id="path836"
       style="fill:#000000;stroke-width:0.409591"
       d="M 73.527344 0 C 70.978691 -0.002603498 68.018576 0.0084851496 64.632812 0.03125 C 45.245877 0.16155401 44.814717 0.18368674 43.755859 1.0800781 C 43.093202 1.6410785 42.441651 2.8265747 42.070312 4.1445312 L 41.462891 6.2949219 L 22.203125 6.4082031 C 3.5120713 6.5184119 2.9112323 6.5485744 1.8457031 7.4160156 C 0.085105796 8.8492575 -0.099253744 10.43667 0.033203125 23.011719 L 0.15429688 34.474609 L 1.1132812 35.652344 C 1.6399946 36.299842 2.4145742 36.992971 2.8359375 37.193359 C 3.2573038 37.393788 31.654261 37.520444 65.939453 37.474609 L 95.962891 37.433594 L 95.962891 6.3339844 L 89.433594 6.2949219 L 89.039062 4.7324219 C 88.41168 2.2507167 87.425645 0.89673537 85.867188 0.37695312 C 85.129329 0.13101842 81.173301 0.0078104941 73.527344 0 z M 9.9121094 48.558594 L 8.4804688 50.056641 L 7.0507812 51.556641 L 6.9492188 121.61133 C 6.8697727 177.08273 6.9492577 192.01793 7.3320312 193.3457 C 7.6335922 194.39175 8.3052267 195.39876 9.1171875 196.02344 L 10.419922 197.02539 L 65.466797 197.02539 L 95.962891 197.02539 L 95.962891 183.35547 C 95.447929 183.40999 94.886643 183.44741 94.203125 183.44727 C 90.702039 183.44644 88.930861 182.57577 87.972656 180.38281 C 87.345451 178.94736 87.303109 175.27099 87.302734 122.52734 L 87.302734 66.205078 L 88.175781 64.724609 C 89.41654 62.619639 90.500004 62.147806 94.121094 62.140625 C 94.819288 62.139208 95.413801 62.169704 95.962891 62.220703 L 95.962891 48.558594 L 65.466797 48.558594 L 9.9121094 48.558594 z M 65.466797 62.134766 C 69.044426 62.134766 70.485127 62.780888 71.611328 64.892578 C 72.343135 66.263949 72.359737 67.529313 72.361328 122.58008 C 72.362693 176.33032 72.331363 178.93137 71.660156 180.38867 C 71.273586 181.22798 70.36798 182.26049 69.648438 182.68164 C 68.74637 183.20965 67.44781 183.44727 65.466797 183.44727 C 62.01551 183.44727 60.291294 182.59437 59.275391 180.38867 C 58.604207 178.93137 58.572628 176.33032 58.574219 122.58008 C 58.575617 67.529313 58.590893 66.263949 59.322266 64.892578 C 60.44847 62.780888 61.889168 62.134766 65.466797 62.134766 z M 36.814453 62.140625 C 40.435554 62.147976 41.519022 62.619647 42.759766 64.724609 L 43.632812 66.205078 L 43.632812 122.52734 C 43.632242 175.27099 43.588143 178.94736 42.960938 180.38281 C 42.577746 181.25976 41.718219 182.24357 40.951172 182.68164 C 40.032206 183.20651 38.70574 183.44683 36.732422 183.44727 C 33.313649 183.44807 31.589865 182.58722 30.542969 180.35547 C 29.875176 178.93245 29.842299 176.25597 29.84375 122.58008 C 29.845136 67.529313 29.862373 66.263949 30.59375 64.892578 C 31.729003 62.76391 33.154394 62.133066 36.814453 62.140625 z "
       transform="matrix(0.26458333,0,0,0.26458333,0.50522897,0.20431974)" />
    <path
       style="fill:#000000;stroke-width:0.26458335"
       d="M 28.008038,26.29571 V 0.27430574 l 1.521354,0.229026 c 5.383581,0.81044696 10.816435,3.73717196 13.849004,7.46057396 2.576597,3.1635563 3.484089,5.6892913 4.294137,11.9514693 0.434555,3.359355 0.697966,3.963012 3.86106,8.848363 2.187826,3.379062 2.658758,4.597506 2.238653,5.79207 -0.355415,1.010611 -1.762493,1.827033 -3.486412,2.022898 -2.49608,0.283599 -2.337867,0.09008 -2.542988,3.110508 -0.235563,3.46874 -0.820099,6.299816 -1.673386,8.104709 -0.908341,1.921345 -2.820961,3.861435 -4.170796,4.230715 -0.63009,0.17237 -3.654566,0.29012 -7.47448,0.291 l -6.416146,10e-4 z m 15.516996,0.111725 c 1.844098,-1.124465 1.65096,-3.850142 -0.33151,-4.678471 -1.145,-0.478412 -1.920412,-0.336606 -2.935949,0.536921 -0.605682,0.520986 -0.740162,0.8521 -0.740162,1.822416 0,2.293541 2.077752,3.495895 4.007621,2.319134 z"
       id="path32"
       inkscape:connector-curvature="0"
       sodipodi:nodetypes="ccsscscasscccccsssc" />
  </g>
</svg>
