<?xml version="1.0" encoding="UTF-8" standalone="no"?>
<!-- Created with Inkscape (http://www.inkscape.org/) -->

<svg
   xmlns:dc="http://purl.org/dc/elements/1.1/"
   xmlns:cc="http://creativecommons.org/ns#"
   xmlns:rdf="http://www.w3.org/1999/02/22-rdf-syntax-ns#"
   xmlns:svg="http://www.w3.org/2000/svg"
   xmlns="http://www.w3.org/2000/svg"
   xmlns:sodipodi="http://sodipodi.sourceforge.net/DTD/sodipodi-0.dtd"
   xmlns:inkscape="http://www.inkscape.org/namespaces/inkscape"
   width="53.406212mm"
   height="52.112789mm"
   viewBox="0 0 53.406212 52.112789"
   version="1.1"
   id="svg8"
   inkscape:version="0.92.3 (2405546, 2018-03-11)"
   sodipodi:docname="character_icon.svg">
  <defs
     id="defs2" />
  <sodipodi:namedview
     id="base"
     pagecolor="#ffffff"
     bordercolor="#666666"
     borderopacity="1.0"
     inkscape:pageopacity="0.0"
     inkscape:pageshadow="2"
     inkscape:zoom="1.4"
     inkscape:cx="-146.53803"
     inkscape:cy="151.74605"
     inkscape:document-units="mm"
     inkscape:current-layer="layer1"
     showgrid="false"
     fit-margin-top="0"
     fit-margin-left="0"
     fit-margin-right="0"
     fit-margin-bottom="0"
     inkscape:window-width="1853"
     inkscape:window-height="1025"
     inkscape:window-x="67"
     inkscape:window-y="27"
     inkscape:window-maximized="1"
     showguides="false" />
  <metadata
     id="metadata5">
    <rdf:RDF>
      <cc:Work
         rdf:about="">
        <dc:format>image/svg+xml</dc:format>
        <dc:type
           rdf:resource="http://purl.org/dc/dcmitype/StillImage" />
        <dc:title />
      </cc:Work>
    </rdf:RDF>
  </metadata>
  <g
     inkscape:label="Capa 1"
     inkscape:groupmode="layer"
     id="layer1"
     transform="translate(-0.50522897,-0.20431974)">
    <path
       style="fill:#000000;stroke-width:0.26458335"
       d="m 23.415546,52.045068 c -1.463144,-0.43847 -1.757508,-0.94828 -1.757508,-3.04386 0,-2.108586 -0.09106,-2.255316 -1.719792,-2.771153 -0.582083,-0.184351 -1.619922,-0.616585 -2.306308,-0.960522 -1.77341,-0.888624 -2.297231,-0.809839 -3.627471,0.545576 -0.63204,0.644001 -1.431764,1.241841 -1.777163,1.328529 -1.148128,0.288163 -3.3664337,-1.310368 -5.4291138,-3.912264 -1.422807,-1.794751 -1.370477,-2.525969 0.307764,-4.300464 0.727604,-0.769334 1.322917,-1.528937 1.322917,-1.688004 0,-0.15907 -0.281193,-0.850808 -0.624873,-1.537192 -0.343679,-0.686388 -0.829875,-1.874187 -1.080433,-2.639558 -0.250559,-0.765368 -0.675914,-1.509508 -0.945234,-1.653645 -0.26932,-0.144135 -1.266768,-0.262065 -2.216551,-0.262065 -2.58479997,0 -3.07598797,-0.765479 -3.05597497,-4.7625 0.01167,-2.330687 0.365181,-3.998786 0.93587797,-4.41609 0.260559,-0.190525 1.157611,-0.34641 1.99345,-0.34641 2.19445,0 2.716393,-0.272201 3.122216,-1.628285 0.189256,-0.632412 0.687772,-1.831054 1.107812,-2.663649 0.42004,-0.832595 0.76371,-1.643394 0.76371,-1.801775 0,-0.158382 -0.595313,-0.917422 -1.322917,-1.686756 -1.654979,-1.749896 -1.719371,-2.494346 -0.372274,-4.3039563 1.52036,-2.042361 4.0309338,-4.055162 5.0580178,-4.055162 0.404239,0 1.16198,0.495938 2.070341,1.355029 1.106988,1.046942 1.569603,1.322404 2.034683,1.211542 1.0968,-0.261445 5.361009,-2.106572 5.558827,-2.405308 0.106912,-0.161455 0.196209,-1.045522 0.198437,-1.964594 0.0022,-0.919072 0.1222,-1.891802 0.266604,-2.161623 0.294891,-0.55100896 1.380146,-0.94093696 3.243177,-1.16526296 l 1.256771,-0.151326 -8.68e-4,6.14650096 -8.7e-4,6.1465013 0.0017,27.659038 v 6.080376 6.080372 l -1.124479,-0.0227 c -0.618464,-0.0125 -1.464694,-0.1247 -1.880513,-0.24931 z M 28.008038,26.29571 V 0.27430574 l 1.521354,0.229026 c 5.383581,0.81044696 10.816435,3.73717196 13.849004,7.46057396 2.576597,3.1635563 3.484089,5.6892913 4.294137,11.9514693 0.434555,3.359355 0.697966,3.963012 3.86106,8.848363 2.187826,3.379062 2.658758,4.597506 2.238653,5.79207 -0.355415,1.010611 -1.762493,1.827033 -3.486412,2.022898 -2.49608,0.283599 -2.337867,0.09008 -2.542988,3.110508 -0.235563,3.46874 -0.820099,6.299816 -1.673386,8.104709 -0.908341,1.921345 -2.820961,3.861435 -4.170796,4.230715 -0.63009,0.17237 -3.654566,0.29012 -7.47448,0.291 l -6.416146,10e-4 z m 15.516996,0.111725 c 1.844098,-1.124465 1.65096,-3.850142 -0.33151,-4.678471 -1.145,-0.478412 -1.920412,-0.336606 -2.935949,0.536921 -0.605682,0.520986 -0.740162,0.8521 -0.740162,1.822416 0,2.293541 2.077752,3.495895 4.007621,2.319134 z"
       id="path32"
       inkscape:connector-curvature="0"
       sodipodi:nodetypes="csccscssscccsscsssssssccccsscccccccccccsscscasscccccsssc" />
  </g>
</svg>
