<?xml version="1.0" encoding="UTF-8" standalone="no"?>
<svg
   xmlns:dc="http://purl.org/dc/elements/1.1/"
   xmlns:cc="http://creativecommons.org/ns#"
   xmlns:rdf="http://www.w3.org/1999/02/22-rdf-syntax-ns#"
   xmlns:svg="http://www.w3.org/2000/svg"
   xmlns="http://www.w3.org/2000/svg"
   xmlns:sodipodi="http://sodipodi.sourceforge.net/DTD/sodipodi-0.dtd"
   xmlns:inkscape="http://www.inkscape.org/namespaces/inkscape"
   viewBox="0 0 915.65238 915.65238"
   version="1.1"
   id="svg4"
   sodipodi:docname="Close.svg"
   inkscape:version="0.92.5 (2060ec1f9f, 2020-04-08)">
  <metadata
     id="metadata10">
    <rdf:RDF>
      <cc:Work
         rdf:about="">
        <dc:format>image/svg+xml</dc:format>
        <dc:type
           rdf:resource="http://purl.org/dc/dcmitype/StillImage" />
        <dc:title />
      </cc:Work>
    </rdf:RDF>
  </metadata>
  <defs
     id="defs8" />
  <sodipodi:namedview
     pagecolor="#ffffff"
     bordercolor="#666666"
     borderopacity="1"
     objecttolerance="10"
     gridtolerance="10"
     guidetolerance="10"
     inkscape:pageopacity="0"
     inkscape:pageshadow="2"
     inkscape:window-width="1848"
     inkscape:window-height="1016"
     id="namedview6"
     showgrid="false"
     inkscape:zoom="0.18224951"
     inkscape:cx="-956.77665"
     inkscape:cy="157.83752"
     inkscape:window-x="72"
     inkscape:window-y="1107"
     inkscape:window-maximized="1"
     inkscape:current-layer="svg4" />
  <path
     d="m 457.82618,1.5468829 c -24.48225,0 -42.07221,0.244486 -57.83984,10.7910151 -15.76764,10.54653 -22.27254,26.932898 -30.125,48.648438 C 349.94396,116.06733 290.51375,140.15497 236.47462,114.56251 214.93445,104.3613 200.14369,96.429272 181.3711,100.0254 c -18.77259,3.59613 -29.84667,16.10059 -47.54492,33.79882 -17.69826,17.69829 -30.20278,28.77222 -33.79883,47.54493 -3.596057,18.7727 4.33576,33.56515 14.53711,55.10546 25.59242,54.03915 1.50412,113.46952 -53.576172,133.38672 -21.715362,7.85244 -38.101302,14.35766 -48.648438,30.125 -10.5471351,15.76734 -10.7929681,33.35732 -10.7929681,57.83985 0,24.48252 0.245551,42.07282 10.7929681,57.83984 10.547418,15.76702 26.933292,22.27077 48.648438,30.12305 55.080672,19.91726 79.168582,79.34952 53.576172,133.38867 -10.2013,21.54016 -18.133297,36.33093 -14.53711,55.10352 3.59618,18.77258 16.10068,29.84676 33.79883,47.54492 v 0.002 c 17.69698,17.6969 28.77111,30.19751 47.54102,33.79492 18.76991,3.59741 33.56005,-4.33199 55.09179,-14.52929 19.38094,-9.17848 28.5542,-12.24271 36.75782,-12.19922 8.20361,0.0435 19.51877,3.53598 41.69336,13.00586 31.68883,13.53307 46.05064,28.1492 55.68164,54.7832 7.4873,20.70578 14.20621,36.83265 29.88476,46.97266 15.67855,10.14 33.06714,10.44921 57.34961,10.44921 24.48253,0 42.07248,-0.24584 57.83984,-10.79296 15.76737,-10.54713 22.27265,-26.93304 30.125,-48.64844 19.91715,-55.07957 79.3478,-79.16867 133.38672,-53.57617 h 0.002 c 21.54022,10.2012 36.32896,18.13324 55.10156,14.53711 18.7726,-3.59614 29.84867,-16.10059 47.54687,-33.79883 17.69687,-17.6969 30.1988,-28.77116 33.79688,-47.54102 3.59807,-18.76986 -4.3319,-33.56162 -14.5293,-55.09375 -9.17863,-19.38106 -12.24437,-28.55616 -12.20117,-36.75976 0.0432,-8.2036 3.53605,-19.51703 13.00586,-41.69141 13.53305,-31.68868 28.14887,-46.0486 54.7832,-55.67969 20.70583,-7.48733 36.83266,-14.20621 46.97266,-29.88476 10.13999,-15.67855 10.44922,-33.06717 10.44922,-57.34961 0,-24.48251 -0.24586,-42.07247 -10.79297,-57.83985 -10.54712,-15.76737 -26.93296,-22.27256 -48.64844,-30.125 -55.07958,-19.91716 -79.16854,-79.34761 -53.57617,-133.38672 10.20132,-21.54028 18.13312,-36.33272 14.53711,-55.10546 -3.59602,-18.77274 -16.10045,-29.84662 -33.79883,-47.54493 -17.69699,-17.69694 -28.77109,-30.19948 -47.54101,-33.79687 -18.76993,-3.597388 -33.55995,4.33399 -55.0918,14.53125 -19.38083,9.17848 -28.55417,12.24076 -36.75781,12.19727 -8.20365,-0.0435 -19.51879,-3.53599 -41.69336,-13.00586 C 569.05291,100.21676 554.69151,85.602482 545.06056,58.968758 537.57331,38.262929 530.85436,22.136103 515.17579,11.996101 499.49722,1.8560999 482.10865,1.5468829 457.82618,1.5468829 Z"
     id="path2"
     inkscape:connector-curvature="0"
     sodipodi:nodetypes="ssccscsccsssccsccscccsssscccssscscssssccsssccccss" />
  <text
     xml:space="preserve"
     style="font-style:normal;font-weight:normal;font-size:40px;line-height:1.25;font-family:sans-serif;letter-spacing:0px;word-spacing:0px;fill:#ff0000;fill-opacity:1;stroke:none"
     x="250.06564"
     y="652.35742"
     id="text814"><tspan
       sodipodi:role="line"
       id="tspan812"
       x="250.06564"
       y="652.35742"
       style="font-style:normal;font-variant:normal;font-weight:normal;font-stretch:normal;font-size:601.33300781px;line-height:50px;font-family:'Roman Antique';-inkscape-font-specification:'Roman Antique';fill:#ff0000;fill-opacity:1">X</tspan></text>
</svg>
