<?xml version="1.0" encoding="UTF-8" standalone="no"?>
<svg
   xmlns:dc="http://purl.org/dc/elements/1.1/"
   xmlns:cc="http://creativecommons.org/ns#"
   xmlns:rdf="http://www.w3.org/1999/02/22-rdf-syntax-ns#"
   xmlns:svg="http://www.w3.org/2000/svg"
   xmlns="http://www.w3.org/2000/svg"
   xmlns:sodipodi="http://sodipodi.sourceforge.net/DTD/sodipodi-0.dtd"
   xmlns:inkscape="http://www.inkscape.org/namespaces/inkscape"
   viewBox="0 0 915.65238 915.65238"
   version="1.1"
   id="svg4"
   sodipodi:docname="Coin2.svg"
   inkscape:version="0.92.5 (2060ec1f9f, 2020-04-08)">
  <metadata
     id="metadata10">
    <rdf:RDF>
      <cc:Work
         rdf:about="">
        <dc:format>image/svg+xml</dc:format>
        <dc:type
           rdf:resource="http://purl.org/dc/dcmitype/StillImage" />
        <dc:title />
      </cc:Work>
    </rdf:RDF>
  </metadata>
  <defs
     id="defs8" />
  <sodipodi:namedview
     pagecolor="#ffffff"
     bordercolor="#666666"
     borderopacity="1"
     objecttolerance="10"
     gridtolerance="10"
     guidetolerance="10"
     inkscape:pageopacity="0"
     inkscape:pageshadow="2"
     inkscape:window-width="1848"
     inkscape:window-height="1016"
     id="namedview6"
     showgrid="false"
     inkscape:zoom="0.36449902"
     inkscape:cx="423.82542"
     inkscape:cy="-85.550867"
     inkscape:window-x="72"
     inkscape:window-y="1051"
     inkscape:window-maximized="1"
     inkscape:current-layer="svg4"
     showguides="true"
     inkscape:guide-bbox="true" />
  <path
     style="opacity:1;vector-effect:none;fill:#000000;fill-opacity:1;stroke:none;stroke-width:27.50699997;stroke-linecap:butt;stroke-linejoin:miter;stroke-miterlimit:4;stroke-dasharray:27.507, 27.50700000000000145;stroke-dashoffset:0;stroke-opacity:1"
     d="M 457.82617 54.318359 A 403.50784 403.50784 0 0 0 436.06055 55.683594 C 443.26955 55.314042 450.52429 55.115234 457.82617 55.115234 C 468.5574 55.115234 479.24244 55.54271 489.86523 56.357422 A 403.50784 403.50784 0 0 0 457.82617 54.318359 z M 489.86523 56.357422 A 403.50784 403.50784 0 0 1 517.62109 59.400391 C 508.42925 58.078659 499.17082 57.07111 489.86523 56.357422 z M 517.62109 59.400391 A 403.50784 403.50784 0 0 1 547.71484 64.84375 C 537.77559 62.665778 527.73623 60.854885 517.62109 59.400391 z M 436.06055 55.683594 C 432.63875 55.859004 429.22552 56.067195 425.82617 56.324219 A 403.50784 403.50784 0 0 1 436.06055 55.683594 z M 425.82617 56.324219 A 403.50784 403.50784 0 0 0 407.50391 58.109375 C 413.57172 57.382811 419.6805 56.788891 425.82617 56.324219 z M 407.50391 58.109375 C 397.55907 59.300176 387.72239 60.838109 378.00781 62.710938 A 403.50784 403.50784 0 0 1 407.50391 58.109375 z M 353.33594 68.25 A 403.50784 403.50784 0 0 0 347.88281 69.689453 C 349.69534 69.19791 351.5135 68.717751 353.33594 68.25 z M 575.42578 71.919922 C 576.26468 72.16484 577.10424 72.408086 577.94141 72.658203 A 403.50784 403.50784 0 0 0 575.42578 71.919922 z M 457.82617 80.585938 C 406.629 80.585938 357.7909 90.30635 313.12109 107.95117 C 313.12109 107.95117 313.11914 107.95117 313.11914 107.95117 C 257.85415 138.19798 220.40737 236.72458 261.76367 342.38867 L 253.45898 353.9668 C 226.71208 391.21115 232.93454 436.14611 269.60547 470.56055 C 281.77631 481.98261 305.71182 497.80572 307.74414 495.77344 C 308.23469 495.28272 303.75322 491.15628 297.7832 486.60352 C 287.86107 479.03678 270.36719 458.70799 270.36719 454.74219 C 270.36719 453.83315 274.12001 456.4788 278.70508 460.62109 C 293.9922 474.43212 297.17903 473.63269 283.83398 459.33398 C 267.34823 441.67019 240.46918 417.38729 259.8418 370.31445 C 267.82536 350.87466 267.74984 354.70502 276.14648 370.41992 C 291.03722 405.19134 302.64021 442.631 357.14258 464.95312 C 372.49101 471.92208 373.71838 472.97298 375.80859 480.9375 C 381.33543 501.99628 390.07164 530.74876 404.41211 541.29492 C 409.33305 544.9138 413.64496 547.5202 413.99414 547.08594 C 424.60995 532.43123 425.70163 490.17614 417.08594 482.37891 C 411.47711 477.30294 410.44894 477.25796 403.53711 481.78711 C 396.82657 486.184 395.87244 486.20011 394.23828 481.94141 C 393.23633 479.33076 392.41602 475.13622 392.41602 472.62109 C 392.41602 464.08796 472.86476 388.55273 481.95312 388.55273 C 483.35309 388.55273 478.99523 397.06672 472.26953 407.47266 C 465.5437 417.8787 460.04102 428.06745 460.04102 430.11328 C 460.04102 432.15915 462.91012 437.4751 466.41406 441.92969 C 475.4808 453.45632 488.74984 452.85451 500.39648 440.38672 C 505.35108 435.08272 510.06213 431.40385 510.86523 432.20703 C 512.86813 434.20991 506.08364 453.10742 503.36133 453.10742 C 502.15709 453.10742 496.75608 457.41688 491.36328 462.68945 C 480.67416 473.13999 478.99763 480.96756 486.16992 486.91992 C 488.70574 489.02455 490.78125 494.30458 490.78125 498.6543 C 490.78125 503.08136 494.47611 540.42252 499.17773 545.33008 C 499.35413 545.51381 499.48093 545.65688 499.64844 545.83398 L 508.65625 537.73242 C 521.60106 526.09389 525.68786 507.43218 532.20508 487.76367 C 536.73076 474.10558 537.19078 473.563 548.00195 469.08203 C 604.80405 447.2085 618.07154 403.31247 634.91797 373.48438 C 644.23154 356.9939 644.91681 356.29217 646.29102 361.76758 C 667.61882 410.15137 645.21224 437.84989 626.41992 458.38086 C 613.20664 472.81651 614.32587 474.20018 629.12109 461.72461 C 634.93269 456.82425 639.284 454.02723 638.79102 455.50586 C 637.21085 460.2464 621.23436 478.24695 612.43359 485.20508 C 607.74486 488.91213 601.99084 493.46195 599.64648 495.31641 L 595.38281 498.6875 L 599.64648 497.34766 C 616.19796 492.13251 645.09015 468.57734 656.66992 450.85938 C 668.12493 433.33247 671.45217 422.67123 671.45117 403.50195 C 671.44996 384.10318 667.26687 370.68114 656.22266 354.62891 L 649.27148 344.52148 C 690.03079 251.21896 615.43416 113.67117 601.95703 107.88281 C 556.57906 90.028108 507.70494 80.585932 457.82617 80.585938 z M 460.59961 105.18164 L 485.3457 105.18164 L 485.3457 339.42188 L 535.26562 339.42188 L 535.26562 369.28906 L 393.18555 369.28906 L 393.18555 339.42188 L 450.35938 339.42188 L 450.35938 154.24805 C 447.23049 157.09249 443.39095 160.0801 438.83984 163.20898 C 434.57318 166.05343 429.73648 168.89774 424.33203 171.74219 C 419.21203 174.58663 413.80803 177.28961 408.11914 179.84961 C 402.43025 182.40961 396.88491 184.54138 391.48047 186.24805 L 380.38672 159.79492 C 394.89339 154.10603 408.97362 146.99622 422.62695 138.46289 C 436.28029 129.64511 448.93739 118.55053 460.59961 105.18164 z M 611.35938 111.72656 C 612.58047 112.2439 613.80008 112.76515 615.01562 113.29492 C 613.79994 112.76508 612.58054 112.24406 611.35938 111.72656 z M 293.62891 116.27148 C 292.06073 116.99218 290.49986 117.72421 288.94336 118.46484 C 290.49969 117.72432 292.06091 116.99208 293.62891 116.27148 z M 288.86523 118.50195 C 287.39185 119.20344 285.92371 119.91361 284.46094 120.63281 C 285.92382 119.91359 287.39174 119.20346 288.86523 118.50195 z M 283.82617 120.94727 C 282.51318 121.59581 281.20468 122.25134 279.90039 122.91406 C 281.20457 122.25143 282.51329 121.59572 283.82617 120.94727 z M 279.21289 123.26172 C 277.78629 123.99016 276.36523 124.72737 274.94922 125.47266 C 276.36546 124.72729 277.78606 123.99024 279.21289 123.26172 z M 640.96094 125.76367 C 642.31873 126.479 643.67216 127.20219 645.02148 127.93359 C 643.67225 127.20229 642.31864 126.47891 640.96094 125.76367 z M 645.21094 128.03711 C 646.51681 128.7459 647.81937 129.46179 649.11719 130.18555 C 647.81897 129.46155 646.51725 128.74609 645.21094 128.03711 z M 251.98828 138.57812 C 250.66409 139.39498 249.34447 140.21868 248.03125 141.05078 C 249.34478 140.21853 250.66377 139.39513 251.98828 138.57812 z M 665.91797 140.11719 C 667.11593 140.86675 668.31004 141.62392 669.5 142.38672 C 668.30981 141.62382 667.11615 140.86681 665.91797 140.11719 z M 247.35352 141.48242 C 246.09673 142.28243 244.84423 143.08847 243.59766 143.90234 C 244.84415 143.08856 246.0968 142.28234 247.35352 141.48242 z M 669.91406 142.65234 C 671.11817 143.42637 672.3179 144.20656 673.51367 144.99414 C 672.31794 144.20664 671.11813 143.4263 669.91406 142.65234 z M 243.12891 144.20898 C 241.90202 145.01254 240.68169 145.82373 239.46484 146.64062 C 240.68143 145.82396 241.90229 145.01232 243.12891 144.20898 z M 673.86328 145.22461 C 675.10214 146.04249 676.33666 146.86684 677.56641 147.69922 C 676.33668 146.8669 675.10212 146.04243 673.86328 145.22461 z M 685.5293 153.23633 C 686.7701 154.12246 688.00557 155.01677 689.23633 155.91797 C 688.00547 155.01674 686.77021 154.12249 685.5293 153.23633 z M 226.11719 156.00977 C 224.82672 156.9574 223.54344 157.91394 222.26562 158.87695 C 223.54339 157.91402 224.82677 156.95732 226.11719 156.00977 z M 689.44141 156.06641 C 690.63907 156.9446 691.83155 157.83023 693.01953 158.72266 C 691.83154 157.83028 690.63908 156.94456 689.44141 156.06641 z M 693.24414 158.89258 C 694.44695 159.79751 695.64517 160.70944 696.83789 161.62891 C 695.64488 160.70927 694.44725 159.79768 693.24414 158.89258 z M 221.56445 159.4082 C 220.42465 160.27129 219.28973 161.14039 218.16016 162.01562 C 219.28993 161.14026 220.42444 160.27141 221.56445 159.4082 z M 697.08008 161.81641 C 698.28253 162.7449 699.47985 163.67983 700.67188 164.62305 C 699.48003 163.68002 698.28235 162.74471 697.08008 161.81641 z M 217.62305 162.43359 C 216.4823 163.32073 215.34696 164.21384 214.2168 165.11328 C 215.34677 164.21402 216.48249 163.32054 217.62305 162.43359 z M 213.50195 165.68359 C 212.43704 166.53525 211.37763 167.39334 210.32227 168.25586 C 211.37769 167.39332 212.43698 166.53526 213.50195 165.68359 z M 209.5293 168.9043 C 208.46254 169.78087 207.40059 170.66317 206.34375 171.55078 C 207.40065 170.66315 208.46247 169.78088 209.5293 168.9043 z M 193.74609 182.60938 C 192.69948 183.56914 191.65668 184.5329 190.62109 185.50391 C 191.65654 184.53305 192.69963 183.56898 193.74609 182.60938 z M 189.84961 186.23242 C 188.93208 187.09751 188.01811 187.96598 187.10938 188.83984 C 188.01822 187.96588 188.93196 187.09761 189.84961 186.23242 z M 186.10547 189.81055 C 185.17736 190.70956 184.25275 191.6114 183.33398 192.51953 C 184.25272 191.61143 185.17739 190.70952 186.10547 189.81055 z M 729.56445 189.9375 C 731.57542 203.16583 730.0031 230.29644 729.19922 242.89062 C 727.49898 269.52783 721.1648 299.35328 708.30273 325.01172 C 696.21364 349.12829 697.26224 349.4693 718.61328 328.375 C 743.13936 304.14373 753.8322 279.94567 755.97656 243.82031 L 757.35938 220.54297 C 758.07736 221.18378 758.78638 221.83783 759.49023 222.49805 C 750.58843 211.59891 741.03316 201.13827 730.84766 191.17578 C 730.42247 190.7599 729.99142 190.35124 729.56445 189.9375 z M 182.63867 193.20898 C 181.66533 194.17599 180.69705 195.14781 179.73438 196.125 C 180.6969 195.14798 181.6655 194.17582 182.63867 193.20898 z M 179.07227 196.79883 C 177.99585 197.89685 176.92616 199.00066 175.86328 200.11133 C 176.92605 199.00077 177.99596 197.89674 179.07227 196.79883 z M 175.66211 200.31836 C 174.43961 201.59776 173.2239 202.88373 172.01953 204.17969 C 173.16891 202.94267 174.42742 201.62158 175.66211 200.31836 z M 171.94727 204.25781 C 166.2264 210.41719 160.71668 216.76644 155.41797 223.28711 C 156.82379 275.65149 164.14788 293.29893 192.14453 329.19922 C 209.73721 346.0287 211.0027 346.31729 203.08008 331.69336 C 188.81201 305.35669 168.02738 235.37638 171.08398 213.15234 C 171.49975 210.12939 171.5925 207.24204 171.94727 204.25781 z M 759.74609 222.81445 C 760.88148 224.20806 762.00502 225.6099 763.11914 227.01758 C 762.00486 225.60982 760.88179 224.20802 759.74609 222.81445 z M 764.00195 228.14062 C 764.96625 229.36841 765.92114 230.60155 766.86914 231.83984 C 765.92122 230.60166 764.96617 229.3683 764.00195 228.14062 z M 767.76367 233.00781 C 768.91245 234.52052 770.05135 236.0404 771.17578 237.56836 C 770.05125 236.04026 768.91254 234.52064 767.76367 233.00781 z M 771.64062 238.20508 C 772.6514 239.58471 773.65166 240.97154 774.64258 242.36328 C 773.65149 240.97129 772.65162 239.58491 771.64062 238.20508 z M 775.4082 243.44336 C 776.39612 244.84126 777.37397 246.24446 778.3418 247.6543 C 777.3741 246.24465 776.39598 244.84107 775.4082 243.44336 z M 778.76562 248.26758 C 779.86696 249.87872 780.95428 251.49864 782.0293 253.125 C 780.95416 251.49845 779.8671 249.87891 778.76562 248.26758 z M 782.68945 254.13281 C 783.52753 255.40958 784.35785 256.69067 785.17969 257.97656 C 784.35795 256.69081 783.52743 255.40944 782.68945 254.13281 z M 786.07812 259.38672 C 786.97469 260.80343 787.86143 262.22487 788.73828 263.65234 C 787.86146 262.22493 786.97467 260.80338 786.07812 259.38672 z M 789.19336 264.38867 C 790.12032 265.90553 791.03293 267.43025 791.9375 268.95898 C 791.03294 267.43038 790.12025 265.90543 789.19336 264.38867 z M 792.86523 270.53906 C 793.6119 271.81502 794.35093 273.09496 795.08203 274.37891 C 794.35097 273.09502 793.61186 271.81496 792.86523 270.53906 z M 795.68164 275.43164 C 796.65045 277.14594 797.60783 278.86562 798.54883 280.59375 C 797.6078 278.86556 796.65049 277.14599 795.68164 275.43164 z M 798.82812 281.11133 C 799.65674 282.63914 800.47436 284.17267 801.28125 285.71094 C 800.47421 284.17251 799.65699 282.63922 798.82812 281.11133 z M 114.78906 284.65234 C 113.69163 286.7267 112.61171 288.8116 111.55273 290.9082 C 112.61172 288.81168 113.69162 286.72661 114.78906 284.65234 z M 801.87109 286.84375 C 802.64155 288.32471 803.40215 289.81035 804.15234 291.30078 C 803.4021 289.81023 802.64161 288.32483 801.87109 286.84375 z M 111.37109 291.27148 C 110.33026 293.33776 109.30775 295.41454 108.30469 297.50195 C 109.30786 295.41438 110.33014 293.33792 111.37109 291.27148 z M 804.59766 292.17969 C 805.44722 293.87881 806.28227 295.58388 807.10547 297.29492 C 806.28243 295.58425 805.44709 293.87843 804.59766 292.17969 z M 108.17773 297.76367 C 107.19728 299.80815 106.2368 301.86342 105.29297 303.92773 C 106.23657 301.86388 107.19751 299.80768 108.17773 297.76367 z M 807.6582 298.45703 C 808.33299 299.87233 808.99948 301.29173 809.65625 302.71484 C 808.99932 301.29139 808.33325 299.87257 807.6582 298.45703 z M 810.18164 303.85742 C 810.91818 305.46757 811.64599 307.08125 812.35938 308.70117 C 811.64619 307.08144 810.91806 305.46736 810.18164 303.85742 z M 812.53906 309.10742 C 815.44205 320.14188 812.49393 326.6147 804.21289 343.11523 C 786.57914 378.25169 756.06588 407.34901 721.12695 422.3457 C 706.60255 428.57996 708.47281 429.47559 726.34766 424.84375 C 761.02047 415.85912 796.50919 394.06485 815.30859 365.61719 L 826.49023 346.14258 C 822.50094 333.56287 817.84638 321.20005 812.53906 309.10742 z M 99.128906 318.19336 C 98.237952 320.38026 97.365715 322.57638 96.515625 324.7832 C 97.365607 322.57666 98.238059 320.37998 99.128906 318.19336 z M 96.496094 324.83398 C 93.199478 333.39573 90.211794 342.10596 87.546875 350.95117 C 90.502565 355.55919 94.309933 361.94024 96.304688 365.09766 C 113.26544 391.94428 155.44288 419.34781 191.51172 426.95703 C 196.69284 428.05005 193.36762 425.63811 180.62695 419.06055 C 141.53462 398.87861 111.61759 366.78371 98.628906 331.10156 C 97.733691 328.6423 97.048938 326.63741 96.496094 324.83398 z M 826.55273 346.34375 C 827.04806 347.90911 827.53319 349.47887 828.00781 351.05078 C 827.53309 349.47854 827.04824 347.90934 826.55273 346.34375 z M 79.273438 383.8457 C 78.906118 385.65384 78.551742 387.46585 78.210938 389.2832 C 78.551838 387.46589 78.906085 385.6538 79.273438 383.8457 z M 78.03125 390.22656 C 77.656136 392.25607 77.298823 394.29136 76.957031 396.33203 C 77.29887 394.29186 77.656117 392.25561 78.03125 390.22656 z M 76.845703 397.01562 C 76.543917 398.83842 76.255461 400.66659 75.980469 402.49805 C 76.255605 400.66636 76.543812 398.83866 76.845703 397.01562 z M 74.025391 417.65234 C 73.844977 419.32064 73.673745 420.9913 73.515625 422.66602 C 73.67392 420.99159 73.844866 419.32036 74.025391 417.65234 z M 73.425781 423.58203 C 73.23708 425.63505 73.067069 427.69349 72.912109 429.75586 C 73.067171 427.69321 73.236954 425.63531 73.425781 423.58203 z M 842.58594 428.06055 C 841.44204 444.05578 836.58117 456.59281 827.17578 471.78711 C 808.06779 500.78185 724.74393 507.40372 652.92773 507.04688 C 634.60751 507.35489 634.22455 507.45359 644.40234 509.29883 C 695.21973 518.53156 749.07741 518.45405 791.98242 507.14062 L 805.83398 505.63281 C 784.36743 551.26663 716.59857 595.52124 636.9082 598.77539 C 697.14306 541.69576 623.1641 504.69267 561.13867 568.90625 C 552.25852 590.51343 516.72178 583.82285 506.9375 607.16992 C 506.9375 614.14726 515.36923 632.39438 525.96484 648.35352 C 550.79002 687.69098 551.91314 688.43587 557.05078 701.31445 C 562.6353 715.02521 560.35559 750.77325 559.08594 754.58203 C 551.31098 740.69841 549.34341 727.79601 536.56445 712.68359 C 531.13218 706.2594 518.37751 690.25511 512.82617 680.00977 C 507.27491 669.7644 502.72013 662.69877 502.70312 664.30859 C 502.68703 665.91841 506.08294 677.42836 510.25 689.88477 C 513.76675 700.22419 519.3418 710.88651 525.75 721.50586 C 540.29457 745.49009 571.60804 770.19559 523.17578 808.74219 C 527.54203 785.72953 526.61522 756.53067 506.10938 741.50781 C 505.68414 741.98146 506.61564 749.56211 508.18164 758.35352 C 517.06436 786.08908 520.38803 811.20849 504.38477 828.54297 C 500.83384 831.26754 497.2746 832.64513 493.35547 833.45703 C 582.76007 825.38046 666.90073 787.02341 730.84766 724.47656 C 803.20876 653.69987 843.79492 557.80574 843.79492 457.82617 C 843.79492 447.85624 843.38438 437.92837 842.58594 428.06055 z M 72.818359 431.08789 C 72.703258 432.69694 72.598327 434.30927 72.503906 435.92383 C 72.598413 434.30936 72.703205 432.69682 72.818359 431.08789 z M 72.400391 437.72266 C 72.294126 439.70381 72.201872 441.68859 72.126953 443.67773 C 72.201925 441.6883 72.294048 439.70408 72.400391 437.72266 z M 72.089844 444.78125 C 72.02956 446.51778 71.981542 448.2576 71.945312 450 C 71.981566 448.25774 72.029529 446.51762 72.089844 444.78125 z M 438.42383 453.88086 C 437.39847 453.91583 436.11817 454.21894 434.5918 454.80469 C 426.91315 457.75119 425.45599 465.39844 432.57227 465.39844 C 435.95366 465.39844 439.53793 463.26713 440.53906 460.6582 C 442.28359 456.11209 441.49999 453.776 438.42383 453.88086 z M 72.039062 469.14648 C 74.979619 565.02023 115.17917 656.37555 184.80469 724.47656 C 256.86944 794.9635 354.57856 834.73397 456.56836 835.05859 C 445.79009 832.50867 439.08961 822.11798 436.13867 798.00586 C 432.74658 770.28947 432.34375 738.81942 432.34375 708.86133 C 432.34375 699.35269 431.96252 691.97647 431.49805 692.46484 C 431.03326 692.95296 428.49499 708.69615 425.85742 727.45117 C 421.25239 758.17258 413.03269 806.59558 440.71484 834.47461 C 440.71484 834.47461 419.22966 833.77426 415.25586 831.18945 C 405.79843 824.7656 399.61372 822.04867 401.76172 782.41016 C 402.52938 774.79092 404.23796 760.19207 405.97656 753.32227 C 407.71519 746.45256 408.66968 740.36684 408.09961 739.79688 C 402.7968 737.05321 388.41063 785.52518 395.60547 810.20117 C 377.8356 792.6739 363.36352 769.22523 378.42969 740.85938 C 389.6759 723.47442 396.52123 708.50291 404.86133 683.03711 C 413.17065 657.66561 412.63237 653.89785 403.44141 673.07617 C 392.9941 694.87595 393.77415 707.20128 376.75195 722.56445 C 366.41037 730.67946 362.62433 755.87695 361.67578 755.87695 C 357.05858 755.87695 356.33238 693.55731 365.20508 679.50195 C 368.31516 674.5753 375.22883 664.65051 380.57227 657.44141 C 391.60874 642.55162 404.63672 616.8797 404.63672 610.01953 C 404.63672 606.98605 400.83193 602.50499 393.44727 596.83789 C 375.50449 583.06846 346.41166 593.33415 336.39648 563.88867 C 286.03211 530.13669 216.05229 563.84883 258.29883 606.0332 C 223.5634 610.10265 150.28525 585.85507 109.36523 526.19922 L 95.353516 509.81836 C 149.21041 521.82432 198.95226 524.65124 270.36914 509.41797 C 276.03752 508.08326 270.66389 507.30729 247.99023 506.17969 C 193.20366 508.54372 112.08019 513.67378 72.039062 469.14648 z M 475.64844 692.05859 C 484.64963 745.6938 483.22865 781.0049 480.78906 798.16406 C 479.37994 817.89041 477.80188 831.73763 465.03906 834.99219 C 470.19284 834.89812 475.334 834.70634 480.46094 834.41211 C 497.04166 805.91295 499.30197 749.64852 475.64844 692.05859 z M 337.71094 842.99414 A 403.50784 403.50784 0 0 0 340.22656 843.73242 C 339.38766 843.4875 338.5481 843.24426 337.71094 842.99414 z M 568.98828 845.55664 A 403.50784 403.50784 0 0 1 559.81055 847.96484 C 562.88043 847.19603 565.93951 846.39406 568.98828 845.55664 z M 367.9375 850.80859 C 377.87675 852.98657 387.91612 854.79746 398.03125 856.25195 A 403.50784 403.50784 0 0 1 367.9375 850.80859 z M 398.03125 856.25195 C 407.2231 857.57369 416.48152 858.58123 425.78711 859.29492 A 403.50784 403.50784 0 0 1 398.03125 856.25195 z M 425.78711 859.29492 A 403.50784 403.50784 0 0 0 457.82617 861.33398 A 403.50784 403.50784 0 0 0 479.29492 859.97656 C 472.16185 860.34228 465.00439 860.53711 457.82617 860.53711 C 447.09495 860.53711 436.40991 860.10963 425.78711 859.29492 z M 479.29492 859.97656 C 482.87874 859.79282 486.45738 859.57168 490.02734 859.29688 A 403.50784 403.50784 0 0 1 479.29492 859.97656 z M 490.02734 859.29688 A 403.50784 403.50784 0 0 0 508.49414 857.4668 C 502.3634 858.2118 496.20631 858.82124 490.02734 859.29688 z M 508.49414 857.4668 C 518.0873 856.30104 527.61454 854.80324 537.0625 852.98828 A 403.50784 403.50784 0 0 1 508.49414 857.4668 z "
     id="path853" />
  <path
     style="color:#000000;font-style:normal;font-variant:normal;font-weight:normal;font-stretch:normal;font-size:medium;line-height:normal;font-family:sans-serif;font-variant-ligatures:normal;font-variant-position:normal;font-variant-caps:normal;font-variant-numeric:normal;font-variant-alternates:normal;font-feature-settings:normal;text-indent:0;text-align:start;text-decoration:none;text-decoration-line:none;text-decoration-style:solid;text-decoration-color:#000000;letter-spacing:normal;word-spacing:normal;text-transform:none;writing-mode:lr-tb;direction:ltr;text-orientation:mixed;dominant-baseline:auto;baseline-shift:baseline;text-anchor:start;white-space:normal;shape-padding:0;clip-rule:nonzero;display:inline;overflow:visible;visibility:visible;opacity:1;isolation:auto;mix-blend-mode:normal;color-interpolation:sRGB;color-interpolation-filters:linearRGB;solid-color:#000000;solid-opacity:1;vector-effect:none;fill:#000000;fill-opacity:1;fill-rule:nonzero;stroke:none;stroke-width:27.50699997;stroke-linecap:butt;stroke-linejoin:miter;stroke-miterlimit:4;stroke-dasharray:27.507, 27.507;stroke-dashoffset:0;stroke-opacity:1;color-rendering:auto;image-rendering:auto;shape-rendering:auto;text-rendering:auto;enable-background:accumulate"
     d="M 460.66797 7.9316406 C 451.21387 7.8726296 441.75639 8.1089151 432.31445 8.640625 L 432.88086 18.707031 C 423.62701 19.227613 414.41461 20.034627 405.25586 21.126953 L 404.06445 11.115234 C 394.67302 12.233565 385.31742 13.648314 376.01758 15.351562 L 377.83398 25.269531 C 368.72688 26.938454 359.68634 28.888631 350.72656 31.117188 L 348.29492 21.330078 C 339.11655 23.61094 330.01135 26.180876 320.99609 29.03125 L 324.03516 38.646484 C 315.2156 41.435989 306.49077 44.503725 297.87109 47.835938 L 294.23438 38.421875 C 285.41312 41.829934 276.69956 45.516302 268.10938 49.470703 L 272.33008 58.640625 C 263.93497 62.50582 255.66119 66.636565 247.51758 71.023438 L 242.72852 62.128906 C 234.40285 66.612081 226.21718 71.357131 218.1875 76.355469 L 223.52734 84.933594 C 215.68853 89.813526 207.99307 94.9434 200.45508 100.32031 L 194.58594 92.089844 C 186.8869 97.579916 179.35856 103.31187 172.01758 109.27734 L 178.39453 117.12305 C 171.23653 122.94033 164.24527 128.99312 157.43359 135.2793 L 150.57617 127.84375 C 143.62363 134.25658 136.87414 140.88847 130.33984 147.72461 L 137.6543 154.71484 C 131.24832 161.41926 125.07644 168.30697 119.13867 175.36133 L 111.39453 168.83789 C 105.30063 176.07308 99.436401 183.49925 93.8125 191.10352 L 101.96094 197.12891 C 96.454882 204.57656 91.195674 212.18431 86.1875 219.9375 L 77.671875 214.43359 C 72.536105 222.37879 67.655057 230.48514 63.033203 238.73633 L 71.884766 243.69531 C 67.364493 251.76891 63.103352 259.97611 59.107422 268.30664 L 49.957031 263.91406 C 45.863859 272.44214 42.041053 281.09881 38.496094 289.86914 L 47.908203 293.67383 C 44.444476 302.24413 41.246771 310.92138 38.330078 319.69727 L 28.699219 316.49609 C 25.715699 325.47112 23.013446 334.54208 20.603516 343.69141 L 30.423828 346.27734 C 28.071119 355.20745 26.002089 364.21973 24.214844 373.30273 L 14.246094 371.33984 C 12.418447 380.62213 10.887087 389.96272 9.6523438 399.3418 L 19.728516 400.66797 C 18.524194 409.81363 17.606071 419.01585 16.980469 428.26172 L 6.8398438 427.57422 C 6.2004367 437.01278 5.8613693 446.47147 5.8222656 455.93164 L 15.984375 455.97266 C 15.98176 456.59067 15.972656 457.20789 15.972656 457.82617 C 15.972656 466.47869 16.233959 475.10333 16.742188 483.69336 L 6.5996094 484.29297 C 7.1585099 493.73476 8.0166163 503.1599 9.1738281 512.55078 L 19.255859 511.30859 C 20.38728 520.50136 21.802782 529.6411 23.507812 538.71094 L 13.529297 540.58789 C 15.277362 549.88336 17.319596 559.12404 19.654297 568.29297 L 29.494141 565.78711 C 31.775732 574.75449 34.34199 583.64006 37.181641 592.43164 L 27.517578 595.55273 C 30.425349 604.55508 33.618532 613.46297 37.089844 622.26172 L 46.537109 618.53516 C 49.928362 627.13442 53.590627 635.62684 57.519531 643.99805 L 48.330078 648.31055 C 52.349686 656.8741 56.640402 665.30866 61.193359 673.59961 L 70.085938 668.7168 C 74.529488 676.81283 79.228697 684.77808 84.185547 692.5957 L 75.626953 698.02344 C 80.693036 706.01071 86.010649 713.83814 91.572266 721.49023 L 99.767578 715.53516 C 105.18895 722.99908 110.85895 730.30475 116.76562 737.44336 L 108.96289 743.90234 C 114.99361 751.18841 121.25407 758.28418 127.73242 765.17578 L 135.10938 758.24219 C 138.48333 761.83332 141.91735 765.37752 145.42188 768.86523 C 148.48106 771.90974 151.58622 774.89829 154.72461 777.84375 L 147.79883 785.22266 C 154.69626 791.69535 161.79616 797.95025 169.08594 803.97461 L 175.53125 796.17578 C 182.67111 802.07858 189.98027 807.7446 197.44727 813.16602 L 191.50781 821.34766 C 199.16178 826.90399 206.98941 832.21975 214.97656 837.2832 L 220.38867 828.74805 C 228.20398 833.70474 236.16466 838.41073 244.25977 842.85938 L 239.39648 851.71094 C 247.68572 856.266 256.11624 860.559 264.67188 864.58398 L 268.96875 855.45117 C 277.3342 859.38785 285.82322 863.05933 294.41797 866.46484 L 290.70117 875.84766 C 299.49354 879.3313 308.39501 882.53749 317.38672 885.46289 L 320.50781 875.86719 C 329.29226 878.72659 338.17119 881.31233 347.13281 883.62109 L 344.61719 893.39062 C 353.77471 895.74968 363.00589 897.82269 372.29297 899.60352 L 374.19141 889.69727 C 383.25553 891.43674 392.38744 892.89644 401.57617 894.07031 L 400.29688 904.07227 C 409.67784 905.27114 419.09604 906.17565 428.53125 906.78516 L 429.18164 896.72266 C 438.38149 897.31729 447.62374 897.62903 456.89648 897.64844 L 456.875 907.72852 C 466.33066 907.74902 475.78736 907.47352 485.22656 906.90234 L 484.61719 896.8418 C 493.8691 896.28267 503.0793 895.43922 512.23438 894.30859 L 513.46875 904.30859 C 522.85238 903.15016 532.20074 901.69906 541.49609 899.95508 L 539.63672 890.04883 C 548.73673 888.34197 557.76783 886.35001 566.71875 884.08398 L 569.19336 893.86133 C 578.35956 891.54172 587.45377 888.93468 596.45898 886.04492 L 593.37695 876.4375 C 602.18475 873.61125 610.89775 870.51093 619.50391 867.14258 L 623.18164 876.54297 C 631.98679 873.09785 640.6853 869.37783 649.25977 865.38672 L 645 856.23438 C 653.37852 852.33436 661.63638 848.17287 669.76172 843.75195 L 674.58594 852.62109 C 682.89407 848.10295 691.06044 843.32379 699.06836 838.29297 L 693.69727 829.74414 C 701.51492 824.83187 709.1859 819.66613 716.70117 814.25781 L 722.60156 822.46094 C 730.27974 816.93822 737.78267 811.17248 745.09766 805.17773 L 738.68945 797.35938 C 745.82312 791.51207 752.78639 785.42658 759.57227 779.11133 L 766.46289 786.51953 C 773.38685 780.07827 780.10903 773.41855 786.61523 766.55273 L 779.26758 759.5918 C 785.64469 752.86124 791.78934 745.95016 797.69727 738.87109 L 805.4707 745.36133 C 811.53311 738.10103 817.36694 730.6505 822.95898 723.02148 L 814.78711 717.03125 C 820.26138 709.56099 825.48936 701.93242 830.46484 694.1582 L 839.00195 699.625 C 844.10254 691.65945 848.95196 683.5311 853.53906 675.25781 L 844.67188 670.3418 C 849.158 662.2494 853.38671 654.02541 857.34766 645.67773 L 866.50781 650.02539 C 870.56356 641.48105 874.34938 632.8095 877.85742 624.02344 L 868.43359 620.25977 C 871.86115 611.67488 875.01669 602.9821 877.89648 594.19336 L 887.54297 597.35742 C 890.49086 588.36729 893.15175 579.28511 895.52344 570.12891 L 885.69141 567.58203 C 888.00633 558.64218 890.04211 549.62224 891.79102 540.53125 L 901.76367 542.45117 C 903.55224 533.16093 905.04521 523.81565 906.24023 514.43164 L 896.16602 513.14844 C 897.33162 503.99789 898.21232 494.79199 898.79883 485.54297 L 908.93164 486.1875 C 909.53164 476.7448 909.82978 467.28413 909.83008 457.82617 L 899.67969 457.82617 C 899.67969 449.79506 899.45178 441.78845 899.01367 433.81055 L 909.15625 433.25586 C 908.63856 423.80867 907.81901 414.37931 906.70312 404.98633 L 896.61523 406.18359 C 895.52275 396.98622 894.14304 387.84185 892.47656 378.76562 L 902.46484 376.93164 C 900.75692 367.62623 898.75177 358.37626 896.45703 349.19922 L 886.60938 351.66211 C 884.36571 342.68512 881.84331 333.78734 879.04102 324.98438 L 888.70898 321.90625 C 885.83925 312.89317 882.6836 303.96895 879.24805 295.1543 L 869.79492 298.83984 C 866.43995 290.22627 862.81132 281.71928 858.91797 273.33203 L 868.11914 269.06055 C 864.13561 260.48077 859.88122 252.02707 855.36328 243.7168 L 846.45117 248.5625 C 842.04194 240.44807 837.37451 232.46465 832.45117 224.62695 L 841.03516 219.23438 C 836.00235 211.22343 830.71427 203.37334 825.1875 195.69922 L 816.9668 201.61914 C 811.57659 194.13203 805.94096 186.8 800.06445 179.63672 L 807.89062 173.21484 C 801.89022 165.90172 795.65896 158.77951 789.21094 151.86133 L 781.81055 158.75781 C 778.03287 154.70301 774.17356 150.71128 770.23047 146.78711 C 767.60977 144.17898 764.95826 141.60776 762.2793 139.07227 L 769.22852 131.72852 C 762.35914 125.22878 755.28592 118.94417 748.01953 112.88867 L 741.54883 120.6543 C 734.43319 114.72109 727.14548 109.02694 719.70117 103.57422 L 725.67188 95.419922 C 718.04228 89.833325 710.23526 84.485916 702.26758 79.388672 L 696.82422 87.898438 C 689.0291 82.908677 681.08635 78.171949 673.00977 73.689453 L 677.91016 64.857422 C 669.64218 60.2705 661.22965 55.939789 652.6875 51.878906 L 648.35352 60.998047 C 640.0036 57.025968 631.53215 53.314578 622.95117 49.873047 L 626.70703 40.505859 C 617.93004 36.986309 609.04278 33.742229 600.0625 30.779297 L 596.90234 40.355469 C 588.12993 37.459496 579.26188 34.836189 570.31055 32.490234 L 572.86719 22.738281 C 563.719 20.340578 554.49547 18.230018 545.2168 16.410156 L 543.27734 26.304688 C 534.22012 24.527339 525.09373 23.03247 515.91016 21.820312 L 517.23047 11.824219 C 507.8553 10.586418 498.44172 9.6424057 489.00781 8.9941406 L 488.31641 19.054688 C 479.11857 18.421659 469.8779 18.073629 460.60547 18.015625 L 460.66797 7.9316406 z M 457.82617 57.769531 C 564.49762 57.769531 666.7725 99.937013 742.17383 174.97656 C 817.57516 250.01611 859.9082 351.74235 859.9082 457.82617 C 859.9082 563.90999 817.57516 665.63623 742.17383 740.67578 C 666.7725 815.71533 564.49762 857.88281 457.82617 857.88281 C 351.15473 857.88281 248.87985 815.71533 173.47852 740.67578 C 98.077179 665.63623 55.744141 563.90999 55.744141 457.82617 C 55.744141 351.74235 98.077179 250.01611 173.47852 174.97656 C 248.87985 99.937012 351.15473 57.769531 457.82617 57.769531 z "
     id="path831-3" />
</svg>
