<?xml version="1.0" encoding="UTF-8" standalone="no"?>
<svg
   xmlns:dc="http://purl.org/dc/elements/1.1/"
   xmlns:cc="http://creativecommons.org/ns#"
   xmlns:rdf="http://www.w3.org/1999/02/22-rdf-syntax-ns#"
   xmlns:svg="http://www.w3.org/2000/svg"
   xmlns="http://www.w3.org/2000/svg"
   xmlns:sodipodi="http://sodipodi.sourceforge.net/DTD/sodipodi-0.dtd"
   xmlns:inkscape="http://www.inkscape.org/namespaces/inkscape"
   viewBox="0 0 915.65238 915.65238"
   version="1.1"
   id="svg4"
   sodipodi:docname="Coin.svg"
   inkscape:version="0.92.5 (2060ec1f9f, 2020-04-08)">
  <metadata
     id="metadata10">
    <rdf:RDF>
      <cc:Work
         rdf:about="">
        <dc:format>image/svg+xml</dc:format>
        <dc:type
           rdf:resource="http://purl.org/dc/dcmitype/StillImage" />
        <dc:title />
      </cc:Work>
    </rdf:RDF>
  </metadata>
  <defs
     id="defs8" />
  <sodipodi:namedview
     pagecolor="#ffffff"
     bordercolor="#666666"
     borderopacity="1"
     objecttolerance="10"
     gridtolerance="10"
     guidetolerance="10"
     inkscape:pageopacity="0"
     inkscape:pageshadow="2"
     inkscape:window-width="1920"
     inkscape:window-height="1043"
     id="namedview6"
     showgrid="false"
     inkscape:zoom="0.36449902"
     inkscape:cx="776.58161"
     inkscape:cy="260.92319"
     inkscape:window-x="1920"
     inkscape:window-y="1024"
     inkscape:window-maximized="1"
     inkscape:current-layer="svg4"
     showguides="true"
     inkscape:guide-bbox="true" />
  <ellipse
     style="opacity:1;vector-effect:none;fill:#ffffff;fill-opacity:1;stroke:#000000;stroke-width:27.50699997;stroke-linecap:butt;stroke-linejoin:miter;stroke-miterlimit:4;stroke-dasharray:27.507, 27.507;stroke-dashoffset:0;stroke-opacity:1"
     id="path831-3"
     cx="457.82394"
     cy="457.82635"
     rx="438.25235"
     ry="436.14957" />
  <ellipse
     style="opacity:1;vector-effect:none;fill:#ffffff;fill-opacity:1;stroke:#000000;stroke-width:39.77220154;stroke-linecap:butt;stroke-linejoin:miter;stroke-miterlimit:4;stroke-dasharray:none;stroke-dashoffset:0;stroke-opacity:1"
     id="path831"
     cx="457.8262"
     cy="457.8262"
     rx="421.96719"
     ry="419.94257" />
  <path
     style="fill:#000000;fill-opacity:1;stroke:none;stroke-width:2.13124657"
     d="m 601.95703,107.88281 c 13.47713,5.78836 88.07376,143.33615 47.31445,236.63867 l 6.95118,10.10743 c 11.04421,16.05223 15.2273,29.47427 15.22851,48.87304 10e-4,19.16928 -3.32624,29.83054 -14.78125,47.35743 -11.57977,17.71796 -40.47196,41.27313 -57.02344,46.48828 l -4.26367,1.33984 4.26367,-3.37109 c 2.34436,-1.85446 8.09838,-6.40428 12.78711,-10.11133 8.80077,-6.95813 24.77726,-24.95868 26.35743,-29.69922 0.49298,-1.47863 -3.85833,1.31839 -9.66993,6.21875 -14.79522,12.47557 -15.91445,11.0919 -2.70117,-3.34375 18.79232,-20.53097 41.1989,-48.22949 19.8711,-96.61328 -1.37421,-5.47541 -2.05948,-4.77366 -11.37305,11.7168 -16.84643,29.8281 -30.11392,73.72412 -86.91602,95.59765 -10.81117,4.48097 -11.27119,5.02355 -15.79687,18.68164 -6.51722,19.66851 -10.60402,38.33022 -23.54883,49.96875 l -9.00781,8.10156 c -0.16751,-0.1771 -0.29431,-0.32017 -0.47071,-0.5039 -4.70162,-4.90756 -8.39648,-42.24872 -8.39648,-46.67578 0,-4.34972 -2.07551,-9.62975 -4.61133,-11.73438 -7.17229,-5.95236 -5.49576,-13.77993 5.19336,-24.23047 5.3928,-5.27257 10.79381,-9.58203 11.99805,-9.58203 2.72231,0 9.5068,-18.89751 7.5039,-20.90039 -0.8031,-0.80318 -5.51415,2.87569 -10.46875,8.17969 -11.64664,12.46779 -24.91568,13.0696 -33.98242,1.54297 -3.50394,-4.45459 -6.37304,-9.77054 -6.37304,-11.81641 0,-2.04583 5.50268,-12.23458 12.22851,-22.64062 6.7257,-10.40594 11.08356,-18.91993 9.68359,-18.91993 -9.08837,0 -89.5371,75.53523 -89.5371,84.06836 0,2.51513 0.82031,6.70967 1.82226,9.32032 1.63416,4.2587 2.58829,4.24259 9.29883,-0.1543 6.91183,-4.52915 7.94,-4.48417 13.54883,0.5918 8.61569,7.79723 7.52401,50.05232 -3.0918,64.70703 -0.34918,0.43426 -4.66109,-2.17214 -9.58203,-5.79102 -14.34047,-10.54616 -23.07668,-39.29864 -28.60352,-60.35742 -2.09021,-7.96452 -3.31758,-9.01544 -18.66601,-15.98438 -54.50237,-22.32213 -66.10621,-59.76215 -80.99695,-94.53357 -8.39664,-15.7149 -8.32112,-19.54526 -16.30468,-0.10547 -19.37262,47.07284 7.50728,71.35611 23.99303,89.0199 13.34505,14.29871 10.15822,15.09814 -5.1289,1.28711 -4.58507,-4.14229 -8.33789,-6.78794 -8.33789,-5.8789 0,3.9658 17.49388,24.29459 27.41601,31.86133 5.97002,4.55276 10.45149,8.6792 9.96094,9.16992 -2.03232,2.03228 -25.96783,-13.79083 -38.13867,-25.21289 -36.67093,-34.41444 -42.89339,-79.3494 -16.14649,-116.59375 l 8.30453,-11.5783 c -41.79181,-106.77681 -3.11461,-206.2752 53.1048,-235.38026 -56.97113,12.13608 -113.76645,65.86027 -142.92104,97.24957 -0.35477,2.98423 -0.44752,5.87158 -0.86329,8.89453 -3.0566,22.22404 17.72803,92.20435 31.9961,118.54102 7.92262,14.62393 6.65713,14.33534 -10.93555,-2.49414 -27.99701,-35.90075 -35.32087,-53.5481 -36.72656,-105.91406 -24.69347,30.38787 -44.68994,64.58518 -58.921876,101.54687 0.552933,1.80385 1.237323,3.80952 2.132812,6.26953 12.988684,35.68215 42.905714,67.77705 81.998044,87.95899 12.74067,6.57756 16.06589,8.9895 10.88477,7.89648 -36.06884,-7.60922 -78.24628,-35.01275 -95.207032,-61.85937 -1.994755,-3.15742 -5.802123,-9.53847 -8.757813,-14.14649 -10.209116,33.88539 -15.689453,69.75295 -15.689453,106.875 0,3.77968 0.06611,7.55345 0.18164,11.32031 40.041128,44.5273 121.164598,39.39724 175.951168,37.03321 22.67366,1.1276 28.04729,1.90357 22.37891,3.23828 -71.41688,15.23327 -121.15873,12.40635 -175.015624,0.40039 l 14.011714,16.38086 c 40.92002,59.65585 114.19817,83.90343 148.9336,79.83398 -42.24654,-42.18437 27.73328,-75.89651 78.09765,-42.14453 10.01518,29.44548 39.10801,19.17979 57.05079,32.94922 7.38466,5.6671 11.18945,10.14816 11.18945,13.18164 0,6.86017 -13.02798,32.53209 -24.06445,47.42188 -5.34344,7.2091 -12.25711,17.13389 -15.36719,22.06054 -8.8727,14.05536 -8.1465,76.375 -3.5293,76.375 0.94855,0 4.73429,-25.19834 15.07587,-33.31335 17.0222,-15.36317 16.24245,-27.68765 26.68976,-49.48743 9.19096,-19.17832 9.72924,-15.41056 1.41992,9.96094 -8.3401,25.4658 -15.18543,40.43733 -26.43164,57.82227 -15.06617,28.36587 -0.59409,51.81452 17.17578,69.34179 -7.19484,-24.67599 7.19133,-73.14795 12.49414,-70.40429 0.57007,0.56998 -0.38442,6.65568 -2.12305,13.52539 -1.7386,6.8698 -3.44718,21.46865 -4.21484,29.08789 -2.148,39.63851 4.03671,42.35544 13.49414,48.77929 3.9738,2.58481 25.45898,3.28516 25.45898,3.28516 -27.68215,-27.87903 -19.46245,-76.30203 -14.85742,-107.02344 2.63757,-18.75502 5.17584,-34.49821 5.64063,-34.98633 0.46447,-0.48837 0.8457,6.88785 0.8457,16.39649 0,29.95809 0.40283,61.42814 3.79492,89.14453 2.95094,24.11212 9.65142,34.50281 20.42969,37.05273 0.41941,10e-4 0.83826,0.008 1.25781,0.008 2.40691,0 4.81093,-0.0304 7.21289,-0.0742 12.76282,-3.25456 14.34088,-17.10178 15.75,-36.82813 2.43959,-17.15916 3.86057,-52.47026 -5.14062,-106.10547 23.65353,57.58993 21.39322,113.85436 4.8125,142.35352 4.30614,-0.24713 8.60115,-0.56626 12.88476,-0.95313 10e-4,-2.5e-4 0.003,2.6e-4 0.004,0 3.92152,-0.81174 7.48241,-2.19004 11.03516,-4.91601 16.00326,-17.33448 12.67959,-42.45389 3.79687,-70.18945 -1.566,-8.79141 -2.49749,-16.37206 -2.07226,-16.84571 20.50586,15.02286 21.43265,44.22172 17.0664,67.23438 48.43226,-38.5466 17.11879,-63.2521 2.57422,-87.23633 -6.4082,-10.61935 -11.98325,-21.28167 -15.5,-31.62109 -4.16706,-12.45641 -7.563,-23.96636 -7.54688,-25.57618 0.017,-1.60982 4.57179,5.45581 10.12305,15.70118 5.55134,10.24534 18.30601,26.24963 23.73828,32.67382 12.77896,15.11242 14.74653,28.01482 22.52149,41.89844 1.26965,-3.80878 3.54936,-39.55682 -2.03516,-53.26758 -5.13764,-12.87858 -6.26076,-13.62347 -31.08594,-52.96093 -10.59561,-15.95914 -19.02734,-34.20626 -19.02734,-41.1836 9.78428,-23.34707 45.32102,-16.65649 54.20117,-38.26367 62.02543,-64.21358 136.00439,-27.21049 75.76953,29.86914 79.69037,-3.25415 147.45923,-47.50876 168.92578,-93.14258 l -13.85156,1.50781 c -42.90501,11.31342 -96.76269,11.39094 -147.58008,2.15821 -10.17779,-1.84524 -9.79483,-1.94393 8.52539,-2.25195 71.8162,0.35685 155.14006,-6.26503 174.24805,-35.25977 9.40539,-15.1943 14.26626,-27.73133 15.41016,-43.72656 -2.26218,-27.95791 -7.6931,-55.42144 -16.09571,-81.91797 l -11.18164,19.47461 c -18.7994,28.44766 -54.28812,50.24193 -88.96093,59.22656 -17.87485,4.63184 -19.74511,3.73621 -5.22071,-2.49805 34.93893,-14.99669 65.45219,-44.09401 83.08594,-79.23047 8.28304,-16.50454 11.23074,-22.97627 8.32422,-34.01562 -13.56487,-30.90555 -31.3648,-60.05463 -53.04492,-86.59961 -0.70452,-0.66086 -1.41412,-1.31561 -2.13281,-1.95703 l -1.38282,23.27734 c -2.14436,36.12536 -12.8372,60.32342 -37.36328,84.55469 -21.35104,21.0943 -22.39964,20.75329 -10.31055,-3.36328 12.86207,-25.65844 19.19625,-55.4839 20.89649,-82.1211 0.80388,-12.59419 2.3762,-39.72479 0.36523,-52.95312 -36.85796,-35.71584 -80.33286,-63.45374 -127.60742,-82.05469 z m -163.5332,345.99805 c 3.07616,-0.10486 3.85976,2.23123 2.11523,6.77734 -1.00113,2.60893 -4.5854,4.74024 -7.96679,4.74024 -7.11628,0 -5.65912,-7.64725 2.01953,-10.59375 1.52637,-0.58575 2.80667,-0.88886 3.83203,-0.92383 z"
     id="path861"
     inkscape:connector-curvature="0"
     sodipodi:nodetypes="cccccccccccccccccccsccsccsscsscccccccccccsccccccccsccccccccsccccccccsccsccccccccccccsccscccccccccccccccccccccccccccccsssccccccsccccsccc" />
  <path
     style="color:#000000;font-style:normal;font-variant:normal;font-weight:normal;font-stretch:normal;font-size:medium;line-height:normal;font-family:sans-serif;font-variant-ligatures:normal;font-variant-position:normal;font-variant-caps:normal;font-variant-numeric:normal;font-variant-alternates:normal;font-feature-settings:normal;text-indent:0;text-align:start;text-decoration:none;text-decoration-line:none;text-decoration-style:solid;text-decoration-color:#000000;letter-spacing:normal;word-spacing:normal;text-transform:none;writing-mode:lr-tb;direction:ltr;text-orientation:mixed;dominant-baseline:auto;baseline-shift:baseline;text-anchor:start;white-space:normal;shape-padding:0;clip-rule:nonzero;display:inline;overflow:visible;visibility:visible;opacity:1;isolation:auto;mix-blend-mode:normal;color-interpolation:sRGB;color-interpolation-filters:linearRGB;solid-color:#000000;solid-opacity:1;vector-effect:none;fill:#ff0000;fill-opacity:1;fill-rule:nonzero;stroke:none;stroke-width:25.47211075;stroke-linecap:butt;stroke-linejoin:miter;stroke-miterlimit:4;stroke-dasharray:none;stroke-dashoffset:0;stroke-opacity:1;color-rendering:auto;image-rendering:auto;shape-rendering:auto;text-rendering:auto;enable-background:accumulate"
     d="M 457.8262,55.115264 C 230.8949,55.115263 46.384802,235.41141 46.384802,457.8262 c 0,106.87641 43.4269,209.36685 120.609298,284.85938 77.1825,75.49252 181.7898,117.85156 290.8321,117.85156 109.0423,0 213.6496,-42.35904 290.832,-117.85156 77.1825,-75.49253 120.6094,-177.98296 120.6094,-284.85938 0,-106.87641 -43.4269,-209.36685 -120.6094,-284.85937 C 671.4758,97.4743 566.8685,55.115262 457.8262,55.115264 Z m 0,25.470706 c 102.4442,-1e-5 200.6604,39.8131 273.0215,110.58984 72.3611,70.77674 112.9472,166.67082 112.9472,266.65039 0,99.97957 -40.5861,195.87365 -112.9472,266.65039 -72.3611,70.77674 -170.5773,110.58985 -273.0215,110.58985 -102.4442,0 -200.6604,-39.81311 -273.0215,-110.58985 C 112.4436,653.69985 71.857402,557.80577 71.857402,457.8262 71.857402,249.48572 244.3596,80.58597 457.8262,80.58597 Z"
     id="path1453-3"
     inkscape:connector-curvature="0" />
  <text
     xml:space="preserve"
     style="font-style:normal;font-weight:normal;font-size:192px;line-height:1.25;font-family:sans-serif;letter-spacing:0px;word-spacing:0px;fill:#000000;fill-opacity:1;stroke:none"
     x="348.3862"
     y="369.2887"
     id="text833"><tspan
       sodipodi:role="line"
       id="tspan831"
       x="348.3862"
       y="369.2887"
       style="font-style:normal;font-variant:normal;font-weight:normal;font-stretch:normal;font-size:426.66665649px;font-family:'Ubuntu Mono';-inkscape-font-specification:'Ubuntu Mono'">1</tspan></text>
</svg>
