<?xml version="1.0" encoding="UTF-8" standalone="no"?>
<svg
   xmlns:dc="http://purl.org/dc/elements/1.1/"
   xmlns:cc="http://creativecommons.org/ns#"
   xmlns:rdf="http://www.w3.org/1999/02/22-rdf-syntax-ns#"
   xmlns:svg="http://www.w3.org/2000/svg"
   xmlns="http://www.w3.org/2000/svg"
   xmlns:sodipodi="http://sodipodi.sourceforge.net/DTD/sodipodi-0.dtd"
   xmlns:inkscape="http://www.inkscape.org/namespaces/inkscape"
   viewBox="0 0 915.65238 915.65238"
   version="1.1"
   id="svg4"
   sodipodi:docname="Coin.svg"
   inkscape:version="0.92.5 (2060ec1f9f, 2020-04-08)">
  <metadata
     id="metadata10">
    <rdf:RDF>
      <cc:Work
         rdf:about="">
        <dc:format>image/svg+xml</dc:format>
        <dc:type
           rdf:resource="http://purl.org/dc/dcmitype/StillImage" />
        <dc:title />
      </cc:Work>
    </rdf:RDF>
  </metadata>
  <defs
     id="defs8" />
  <sodipodi:namedview
     pagecolor="#ffffff"
     bordercolor="#666666"
     borderopacity="1"
     objecttolerance="10"
     gridtolerance="10"
     guidetolerance="10"
     inkscape:pageopacity="0"
     inkscape:pageshadow="2"
     inkscape:window-width="1848"
     inkscape:window-height="1016"
     id="namedview6"
     showgrid="false"
     inkscape:zoom="0.12886986"
     inkscape:cx="-2279.7732"
     inkscape:cy="-912.61685"
     inkscape:window-x="72"
     inkscape:window-y="1051"
     inkscape:window-maximized="1"
     inkscape:current-layer="svg4"
     showguides="true"
     inkscape:guide-bbox="true" />
  <ellipse
     style="opacity:1;vector-effect:none;fill:none;fill-opacity:1;stroke:#000000;stroke-width:27.50699997;stroke-linecap:butt;stroke-linejoin:miter;stroke-miterlimit:4;stroke-dasharray:27.507, 27.50700000000000145;stroke-dashoffset:0;stroke-opacity:1"
     id="path831-3"
     cx="457.82394"
     cy="457.82635"
     rx="438.25235"
     ry="436.14957" />
  <ellipse
     style="opacity:1;vector-effect:none;fill:none;fill-opacity:1;stroke:#000000;stroke-width:39.77220154;stroke-linecap:butt;stroke-linejoin:miter;stroke-miterlimit:4;stroke-dasharray:none;stroke-dashoffset:0;stroke-opacity:1"
     id="path831"
     cx="457.8262"
     cy="457.8262"
     rx="421.96719"
     ry="419.94257" />
  <path
     style="fill:#000000;fill-opacity:1;stroke:none;stroke-width:2.13124657"
     d="M 601.95703 107.88281 C 615.43416 113.67117 690.03079 251.21896 649.27148 344.52148 L 656.22266 354.62891 C 667.26687 370.68114 671.44996 384.10318 671.45117 403.50195 C 671.45217 422.67123 668.12493 433.33248 656.66992 450.85938 C 645.09015 468.57734 616.19796 492.13251 599.64648 497.34766 L 595.38281 498.6875 L 599.64648 495.31641 C 601.99084 493.46195 607.74486 488.91213 612.43359 485.20508 C 621.23436 478.24695 637.21085 460.2464 638.79102 455.50586 C 639.284 454.02723 634.93269 456.82425 629.12109 461.72461 C 614.32587 474.20018 613.20664 472.81651 626.41992 458.38086 C 645.21224 437.84989 667.61882 410.15137 646.29102 361.76758 C 644.91681 356.29217 644.23154 356.99391 634.91797 373.48438 C 618.07154 403.31248 604.80405 447.2085 548.00195 469.08203 C 537.19078 473.563 536.73076 474.10558 532.20508 487.76367 C 525.68786 507.43218 521.60106 526.09389 508.65625 537.73242 L 499.64844 545.83398 C 499.48093 545.65688 499.35413 545.51381 499.17773 545.33008 C 494.47611 540.42252 490.78125 503.08136 490.78125 498.6543 C 490.78125 494.30458 488.70574 489.02455 486.16992 486.91992 C 478.99763 480.96756 480.67416 473.13999 491.36328 462.68945 C 496.75608 457.41688 502.15709 453.10742 503.36133 453.10742 C 506.08364 453.10742 512.86813 434.20991 510.86523 432.20703 C 510.06213 431.40385 505.35108 435.08272 500.39648 440.38672 C 488.74984 452.85451 475.4808 453.45632 466.41406 441.92969 C 462.91012 437.4751 460.04102 432.15915 460.04102 430.11328 C 460.04102 428.06745 465.5437 417.8787 472.26953 407.47266 C 478.99523 397.06672 483.35309 388.55273 481.95312 388.55273 C 472.86476 388.55273 392.41602 464.08796 392.41602 472.62109 C 392.41602 475.13622 393.23633 479.33076 394.23828 481.94141 C 395.87244 486.20011 396.82657 486.184 403.53711 481.78711 C 410.44894 477.25796 411.47711 477.30294 417.08594 482.37891 C 425.70163 490.17614 424.60995 532.43123 413.99414 547.08594 C 413.64496 547.5202 409.33305 544.9138 404.41211 541.29492 C 390.07164 530.74876 381.33543 501.99628 375.80859 480.9375 C 373.71838 472.97298 372.49101 471.92206 357.14258 464.95312 C 302.64021 442.63099 291.03722 405.19134 276.14648 370.41992 C 267.74984 354.70502 267.82536 350.87466 259.8418 370.31445 C 240.46918 417.38729 267.34823 441.67019 283.83398 459.33398 C 297.17903 473.63269 293.9922 474.43212 278.70508 460.62109 C 274.12001 456.4788 270.36719 453.83315 270.36719 454.74219 C 270.36719 458.70799 287.86107 479.03678 297.7832 486.60352 C 303.75322 491.15628 308.23469 495.28272 307.74414 495.77344 C 305.71182 497.80572 281.77631 481.98261 269.60547 470.56055 C 232.93454 436.14611 226.71208 391.21115 253.45898 353.9668 L 261.76367 342.38867 C 220.407 236.72363 257.85529 138.19703 313.12109 107.95117 C 260.55209 128.71622 213.7593 160.45966 175.70117 200.27734 C 174.45383 201.59408 173.18117 202.92947 172.01953 204.17969 C 172.00197 204.19859 171.98436 204.21742 171.9668 204.23633 C 171.96052 204.24309 171.95354 204.25106 171.94727 204.25781 C 171.5925 207.24204 171.49975 210.12939 171.08398 213.15234 C 168.02738 235.37638 188.81201 305.35669 203.08008 331.69336 C 211.0027 346.31729 209.73721 346.0287 192.14453 329.19922 C 164.14788 293.29893 156.82379 275.65149 155.41797 223.28711 C 155.39521 223.31512 155.37236 223.34307 155.34961 223.37109 C 152.2871 227.14205 149.29671 230.97122 146.38086 234.85742 C 144.91195 236.81517 143.46216 238.78721 142.03125 240.77344 C 139.21733 244.67941 136.47844 248.64109 133.81445 252.6543 C 133.7306 252.78062 133.6462 252.90677 133.5625 253.0332 C 132.24874 255.01753 130.95219 257.01367 129.67578 259.02344 C 128.36199 261.09206 127.06863 263.17446 125.79492 265.26953 C 124.55427 267.31024 123.333 269.36437 122.13086 271.42969 C 122.05658 271.55731 121.98234 271.68478 121.9082 271.8125 C 119.5337 275.90311 117.23631 280.04046 115.01562 284.22461 C 114.93997 284.36716 114.86453 284.50969 114.78906 284.65234 C 113.69162 286.72661 112.61172 288.81168 111.55273 290.9082 C 111.49171 291.02902 111.43199 291.15059 111.37109 291.27148 C 110.33014 293.33792 109.30786 295.41438 108.30469 297.50195 C 108.27202 297.56993 108.23771 297.63707 108.20508 297.70508 C 107.20245 299.79478 106.22021 301.89738 105.25586 304.00781 C 105.14654 304.24705 105.03851 304.48706 104.92969 304.72656 C 103.00016 308.97313 101.15093 313.26035 99.378906 317.58789 C 99.296735 317.78857 99.212688 317.98861 99.130859 318.18945 C 98.239443 320.3774 97.366129 322.5753 96.515625 324.7832 C 96.50932 324.79957 96.502397 324.81566 96.496094 324.83203 C 96.496263 324.83258 96.495925 324.83343 96.496094 324.83398 C 97.048938 326.63741 97.733691 328.6423 98.628906 331.10156 C 111.61759 366.78371 141.53462 398.87861 180.62695 419.06055 C 193.36762 425.63811 196.69284 428.05005 191.51172 426.95703 C 155.44288 419.34781 113.26544 391.94428 96.304688 365.09766 C 94.309933 361.94024 90.502565 355.55919 87.546875 350.95117 C 86.942824 352.9561 86.357896 354.96963 85.787109 356.98828 C 85.731722 357.18418 85.676166 357.38015 85.621094 357.57617 C 84.470767 361.67037 83.390515 365.7928 82.378906 369.94141 C 82.333364 370.12821 82.287446 370.31504 82.242188 370.50195 C 81.24024 374.63911 80.306778 378.80164 79.445312 382.99023 C 79.394485 383.23743 79.345256 383.48505 79.294922 383.73242 C 78.919304 385.57796 78.558933 387.42807 78.210938 389.2832 C 78.15437 389.58485 78.094896 389.8856 78.039062 390.1875 C 77.661295 392.22949 77.301066 394.27875 76.957031 396.33203 C 76.922725 396.53686 76.889438 396.74233 76.855469 396.94727 C 76.549439 398.79285 76.259028 400.64358 75.980469 402.49805 C 75.919498 402.90411 75.858476 403.31031 75.798828 403.7168 C 75.497675 405.76827 75.208683 407.82277 74.941406 409.88477 C 74.685704 411.85747 74.451004 413.83627 74.226562 415.81836 C 74.15992 416.40717 74.09512 416.99632 74.03125 417.58594 C 73.84281 419.32469 73.664213 421.06678 73.5 422.8125 C 73.475862 423.06924 73.449393 423.32514 73.425781 423.58203 C 73.236835 425.6366 73.06725 427.69582 72.912109 429.75977 C 72.878892 430.20191 72.850018 430.64532 72.818359 431.08789 C 72.700368 432.73646 72.592366 434.38862 72.496094 436.04297 C 72.464743 436.58202 72.43138 437.1205 72.402344 437.66016 C 72.294555 439.6623 72.202711 441.66743 72.126953 443.67773 C 72.113729 444.02885 72.10404 444.38107 72.091797 444.73242 C 72.029766 446.51161 71.980122 448.29471 71.943359 450.08008 C 71.933261 450.57078 71.924198 451.06158 71.916016 451.55273 C 71.881219 453.64029 71.857422 455.73049 71.857422 457.82617 C 71.857422 459.67757 71.874535 461.52656 71.904297 463.375 C 71.906234 463.50393 71.908084 463.6328 71.910156 463.76172 C 71.940954 465.55778 71.98407 467.35345 72.039062 469.14648 C 112.08019 513.67378 193.20366 508.54372 247.99023 506.17969 C 270.66389 507.30729 276.03752 508.08326 270.36914 509.41797 C 198.95226 524.65124 149.21041 521.82432 95.353516 509.81836 L 109.36523 526.19922 C 150.28525 585.85507 223.5634 610.10265 258.29883 606.0332 C 216.05229 563.84883 286.03211 530.13669 336.39648 563.88867 C 346.41166 593.33415 375.50449 583.06846 393.44727 596.83789 C 400.83193 602.50499 404.63672 606.98605 404.63672 610.01953 C 404.63672 616.8797 391.60874 642.55162 380.57227 657.44141 C 375.22883 664.65051 368.31516 674.5753 365.20508 679.50195 C 356.33238 693.55731 357.05858 755.87695 361.67578 755.87695 C 362.62433 755.87695 366.41037 730.67946 376.75195 722.56445 C 393.77415 707.20128 392.9941 694.87595 403.44141 673.07617 C 412.63237 653.89785 413.17065 657.66561 404.86133 683.03711 C 396.52123 708.50291 389.6759 723.47443 378.42969 740.85938 C 363.36352 769.22524 377.8356 792.6739 395.60547 810.20117 C 388.41063 785.52518 402.7968 737.05322 408.09961 739.79688 C 408.66968 740.36685 407.71519 746.45256 405.97656 753.32227 C 404.23796 760.19207 402.52938 774.79092 401.76172 782.41016 C 399.61372 822.04867 405.79843 824.7656 415.25586 831.18945 C 419.22966 833.77426 440.71484 834.47461 440.71484 834.47461 C 413.03269 806.59558 421.25239 758.17258 425.85742 727.45117 C 428.49499 708.69615 431.03326 692.95296 431.49805 692.46484 C 431.96252 691.97647 432.34375 699.35269 432.34375 708.86133 C 432.34375 738.81942 432.74658 770.28947 436.13867 798.00586 C 439.08961 822.11798 445.79009 832.50867 456.56836 835.05859 C 456.98777 835.05993 457.40662 835.06641 457.82617 835.06641 C 460.23308 835.06641 462.6371 835.03599 465.03906 834.99219 C 477.80188 831.73763 479.37994 817.89041 480.78906 798.16406 C 483.22865 781.0049 484.64963 745.6938 475.64844 692.05859 C 499.30197 749.64852 497.04166 805.91295 480.46094 834.41211 C 480.46617 834.41181 480.47133 834.41046 480.47656 834.41016 C 484.76175 834.16405 489.03595 833.84739 493.29883 833.46289 C 493.31444 833.46148 493.33009 833.46039 493.3457 833.45898 C 493.34899 833.45869 493.35218 833.45733 493.35547 833.45703 C 497.2746 832.64513 500.83384 831.26754 504.38477 828.54297 C 520.38803 811.20849 517.06436 786.08908 508.18164 758.35352 C 506.61564 749.56211 505.68415 741.98146 506.10938 741.50781 C 526.61523 756.53067 527.54203 785.72953 523.17578 808.74219 C 571.60804 770.19559 540.29457 745.49009 525.75 721.50586 C 519.3418 710.88651 513.76675 700.22419 510.25 689.88477 C 506.08294 677.42836 502.68701 665.91841 502.70312 664.30859 C 502.72012 662.69877 507.27491 669.7644 512.82617 680.00977 C 518.37751 690.25511 531.13218 706.2594 536.56445 712.68359 C 549.34341 727.79601 551.31098 740.69841 559.08594 754.58203 C 560.35559 750.77325 562.6353 715.02521 557.05078 701.31445 C 551.91314 688.43587 550.79002 687.69098 525.96484 648.35352 C 515.36923 632.39438 506.9375 614.14726 506.9375 607.16992 C 516.72178 583.82285 552.25852 590.51343 561.13867 568.90625 C 623.1641 504.69267 697.14306 541.69576 636.9082 598.77539 C 716.59857 595.52124 784.36743 551.26663 805.83398 505.63281 L 791.98242 507.14062 C 749.07741 518.45404 695.21973 518.53156 644.40234 509.29883 C 634.22455 507.45359 634.60751 507.35489 652.92773 507.04688 C 724.74393 507.40373 808.06779 500.78185 827.17578 471.78711 C 836.58117 456.59281 841.44204 444.05578 842.58594 428.06055 C 842.4465 426.33728 842.29433 424.61589 842.13086 422.89648 C 842.12857 422.87243 842.12729 422.84827 842.125 422.82422 C 842.12289 422.80208 842.12125 422.77995 842.11914 422.75781 C 841.95485 421.03661 841.77813 419.31866 841.58984 417.60156 C 840.63632 408.90565 839.37605 400.26285 837.81445 391.68945 C 837.50843 390.00934 837.19043 388.33295 836.86133 386.6582 C 836.85456 386.62376 836.84858 386.58913 836.8418 386.55469 C 836.83282 386.50908 836.82345 386.46357 836.81445 386.41797 C 836.48645 384.75464 836.1456 383.09336 835.79492 381.43555 C 835.44111 379.7629 835.07603 378.0926 834.69922 376.42578 C 834.69232 376.39527 834.68659 376.36449 834.67969 376.33398 C 834.67599 376.31766 834.67167 376.30148 834.66797 376.28516 C 832.753 367.82963 830.54258 359.4521 828.04297 351.16406 C 828.03886 351.15045 828.03536 351.13665 828.03125 351.12305 C 828.02394 351.09881 828.01513 351.07502 828.00781 351.05078 C 827.52021 349.43589 827.0232 347.82272 826.51367 346.21484 C 826.50602 346.1907 826.49789 346.16672 826.49023 346.14258 L 815.30859 365.61719 C 796.50919 394.06485 761.02047 415.85912 726.34766 424.84375 C 708.47281 429.47559 706.60255 428.57996 721.12695 422.3457 C 756.06588 407.34901 786.57914 378.25169 804.21289 343.11523 C 812.4944 326.61375 815.44288 320.14108 812.53906 309.10547 C 812.53824 309.10359 812.53793 309.10149 812.53711 309.09961 C 812.49296 308.99902 812.44658 308.89938 812.40234 308.79883 C 811.67379 307.14291 810.93056 305.49333 810.17773 303.84766 C 810.00479 303.4696 809.83047 303.09235 809.65625 302.71484 C 808.96727 301.22193 808.26946 299.73225 807.56055 298.24805 C 807.41067 297.93426 807.26209 297.62003 807.11133 297.30664 C 806.27594 295.57012 805.429 293.83946 804.56641 292.11523 C 804.43015 291.84288 804.28927 291.57282 804.15234 291.30078 C 803.40215 289.81035 802.64155 288.32471 801.87109 286.84375 C 801.6851 286.48623 801.49967 286.12844 801.3125 285.77148 C 800.46448 284.15421 799.60651 282.54119 798.73438 280.93555 C 798.68571 280.84594 798.63859 280.75558 798.58984 280.66602 C 798.57661 280.6417 798.56207 280.61807 798.54883 280.59375 C 797.60783 278.86562 796.65045 277.14594 795.68164 275.43164 C 795.49262 275.09717 795.30141 274.76363 795.11133 274.42969 C 794.37078 273.12865 793.62177 271.83189 792.86523 270.53906 C 792.5711 270.03643 792.27896 269.53263 791.98242 269.03125 C 791.06373 267.47796 790.13511 265.92974 789.19336 264.38867 C 789.16442 264.34131 789.13639 264.29344 789.10742 264.24609 C 788.98584 264.04734 788.86024 263.85089 788.73828 263.65234 C 787.84337 262.19547 786.9389 260.7445 786.02344 259.29883 C 785.76241 258.88662 785.49903 258.47574 785.23633 258.06445 C 784.38572 256.73271 783.52623 255.40594 782.6582 254.08398 C 782.44841 253.76448 782.2401 253.44392 782.0293 253.125 C 780.95428 251.49864 779.86696 249.87872 778.76562 248.26758 C 778.62545 248.06251 778.4824 247.85912 778.3418 247.6543 C 777.37397 246.24446 776.39612 244.84126 775.4082 243.44336 C 775.15354 243.08301 774.89857 242.72283 774.64258 242.36328 C 773.63249 240.94461 772.61278 239.53104 771.58203 238.125 C 771.44618 237.93968 771.31199 237.75345 771.17578 237.56836 C 770.03562 236.01902 768.88197 234.477 767.7168 232.94336 C 767.43625 232.57409 767.15114 232.20819 766.86914 231.83984 C 765.92114 230.60155 764.96625 229.3684 764.00195 228.14062 C 763.72076 227.7826 763.44078 227.42352 763.1582 227.06641 C 761.98053 225.57805 760.7934 224.09554 759.5918 222.62305 C 759.55841 222.58214 759.52559 222.5409 759.49219 222.5 C 759.49152 222.49937 759.49091 222.49868 759.49023 222.49805 C 758.78638 221.83783 758.07738 221.18378 757.35938 220.54297 L 755.97656 243.82031 C 753.8322 279.94567 743.13936 304.14373 718.61328 328.375 C 697.26224 349.4693 696.21364 349.12829 708.30273 325.01172 C 721.1648 299.35328 727.49898 269.52782 729.19922 242.89062 C 730.0031 230.29644 731.57542 203.16583 729.56445 189.9375 C 727.26083 187.70526 724.9308 185.50361 722.57617 183.33398 C 721.39886 182.24917 720.2152 181.17257 719.02539 180.10352 C 716.64577 177.9654 714.24301 175.85981 711.81445 173.78516 C 709.38589 171.7105 706.93316 169.66688 704.45703 167.65625 C 703.23586 166.66465 702.00788 165.681 700.77539 164.70508 C 700.75834 164.69158 700.74166 164.67756 700.72461 164.66406 C 700.70714 164.65024 700.68935 164.63687 700.67188 164.62305 C 699.47985 163.67983 698.28253 162.7449 697.08008 161.81641 C 697.03935 161.78496 696.99973 161.75213 696.95898 161.7207 C 696.91887 161.68975 696.87802 161.65984 696.83789 161.62891 C 695.64517 160.70944 694.44695 159.79751 693.24414 158.89258 C 693.21521 158.87081 693.18714 158.84793 693.1582 158.82617 C 693.13218 158.8066 693.10611 158.78714 693.08008 158.76758 C 691.8528 157.84526 690.62043 156.93057 689.38281 156.02344 C 689.36328 156.00912 689.34375 155.99478 689.32422 155.98047 C 689.3073 155.96808 689.29035 155.95575 689.27344 155.94336 C 688.0307 155.03315 686.78229 154.13117 685.5293 153.23633 C 685.50503 153.219 685.4813 153.20092 685.45703 153.18359 C 685.43762 153.16974 685.41785 153.15643 685.39844 153.14258 C 684.12317 152.23263 682.84236 151.33147 681.55664 150.4375 C 680.27596 149.54704 678.9901 148.66361 677.69922 147.78906 C 677.6744 147.77225 677.64982 147.75509 677.625 147.73828 C 677.60556 147.72512 677.58585 147.71238 677.56641 147.69922 C 676.33666 146.86684 675.10214 146.04249 673.86328 145.22461 C 673.79593 145.18014 673.72949 145.13427 673.66211 145.08984 C 673.61295 145.05743 673.56285 145.02653 673.51367 144.99414 C 672.3179 144.20656 671.11817 143.42637 669.91406 142.65234 C 669.77611 142.56367 669.63806 142.47522 669.5 142.38672 C 668.29255 141.61271 667.08091 140.84433 665.86523 140.08398 C 665.79082 140.03744 665.71703 139.98985 665.64258 139.94336 C 665.60165 139.9178 665.56047 139.89273 665.51953 139.86719 C 664.2135 139.05224 662.90324 138.2464 661.58789 137.44727 C 660.23131 136.62308 658.86828 135.80729 657.50195 135 C 656.13563 134.19271 654.76457 133.39385 653.38867 132.60352 C 652.05172 131.83555 650.71106 131.0761 649.36523 130.32422 C 649.32604 130.30232 649.28725 130.2797 649.24805 130.25781 C 649.22718 130.24616 649.20642 130.2343 649.18555 130.22266 C 647.86527 129.48597 646.5396 128.75827 645.21094 128.03711 C 645.16636 128.01291 645.12272 127.98707 645.07812 127.96289 C 645.05944 127.95276 645.04017 127.94372 645.02148 127.93359 C 643.67216 127.20219 642.31873 126.479 640.96094 125.76367 C 640.93414 125.74956 640.90766 125.73481 640.88086 125.7207 C 640.86927 125.7146 640.85729 125.70923 640.8457 125.70312 C 639.45365 124.97034 638.05704 124.24512 636.65625 123.5293 C 635.25935 122.81547 633.85855 122.10901 632.45312 121.41211 C 632.43748 121.40435 632.4219 121.39643 632.40625 121.38867 C 632.40051 121.38583 632.39441 121.3837 632.38867 121.38086 C 630.97321 120.67931 629.55284 119.98704 628.12891 119.30273 C 626.71863 118.62499 625.30514 117.95568 623.88672 117.29492 C 623.86718 117.28582 623.84766 117.27668 623.82812 117.26758 C 623.82231 117.26487 623.81636 117.26247 623.81055 117.25977 C 622.37825 116.59292 620.94238 115.93462 619.50195 115.28516 C 618.1699 114.68456 616.833 114.09153 615.49414 113.50586 C 615.37933 113.45564 615.26525 113.40363 615.15039 113.35352 C 615.11271 113.33707 615.0748 113.32112 615.03711 113.30469 C 613.75985 112.74791 612.47863 112.19941 611.19531 111.65625 C 611.05508 111.5969 610.91569 111.53575 610.77539 111.47656 C 610.74286 111.46284 610.71027 111.44926 610.67773 111.43555 C 609.24795 110.83283 607.81408 110.24006 606.37695 109.6543 C 604.90713 109.05521 603.43436 108.46409 601.95703 107.88281 z M 438.42383 453.88086 C 441.49999 453.776 442.28359 456.11209 440.53906 460.6582 C 439.53793 463.26713 435.95366 465.39844 432.57227 465.39844 C 425.45599 465.39844 426.91315 457.75119 434.5918 454.80469 C 436.11817 454.21894 437.39847 453.91583 438.42383 453.88086 z "
     id="path861" />
  <text
     xml:space="preserve"
     style="font-style:normal;font-weight:normal;font-size:192px;line-height:1.25;font-family:sans-serif;letter-spacing:0px;word-spacing:0px;fill:#000000;fill-opacity:1;stroke:none"
     x="348.3862"
     y="369.2887"
     id="text833"><tspan
       sodipodi:role="line"
       id="tspan831"
       x="348.3862"
       y="369.2887"
       style="font-style:normal;font-variant:normal;font-weight:normal;font-stretch:normal;font-size:426.66665649px;font-family:'Ubuntu Mono';-inkscape-font-specification:'Ubuntu Mono'">1</tspan></text>
</svg>
