<?xml version="1.0" encoding="UTF-8" standalone="no"?>
<svg
   xmlns:dc="http://purl.org/dc/elements/1.1/"
   xmlns:cc="http://creativecommons.org/ns#"
   xmlns:rdf="http://www.w3.org/1999/02/22-rdf-syntax-ns#"
   xmlns:svg="http://www.w3.org/2000/svg"
   xmlns="http://www.w3.org/2000/svg"
   xmlns:sodipodi="http://sodipodi.sourceforge.net/DTD/sodipodi-0.dtd"
   xmlns:inkscape="http://www.inkscape.org/namespaces/inkscape"
   viewBox="0 0 915.65238 915.65238"
   version="1.1"
   id="svg4"
   sodipodi:docname="Counter.svg"
   inkscape:version="0.92.5 (2060ec1f9f, 2020-04-08)">
  <metadata
     id="metadata10">
    <rdf:RDF>
      <cc:Work
         rdf:about="">
        <dc:format>image/svg+xml</dc:format>
        <dc:type
           rdf:resource="http://purl.org/dc/dcmitype/StillImage" />
        <dc:title></dc:title>
      </cc:Work>
    </rdf:RDF>
  </metadata>
  <defs
     id="defs8" />
  <sodipodi:namedview
     pagecolor="#ffffff"
     bordercolor="#666666"
     borderopacity="1"
     objecttolerance="10"
     gridtolerance="10"
     guidetolerance="10"
     inkscape:pageopacity="0"
     inkscape:pageshadow="2"
     inkscape:window-width="1920"
     inkscape:window-height="1043"
     id="namedview6"
     showgrid="false"
     inkscape:zoom="0.25773973"
     inkscape:cx="457.8262"
     inkscape:cy="457.8262"
     inkscape:window-x="0"
     inkscape:window-y="0"
     inkscape:window-maximized="1"
     inkscape:current-layer="svg4" />
  <path
     d="m 457.82618,1.5468829 c -24.48225,0 -42.07221,0.244486 -57.83984,10.7910151 -15.76764,10.54653 -22.27254,26.932898 -30.125,48.648438 C 349.94396,116.06733 290.51375,140.15497 236.47462,114.56251 214.93445,104.3613 200.14369,96.429272 181.3711,100.0254 c -18.77259,3.59613 -29.84667,16.10059 -47.54492,33.79882 -17.69826,17.69829 -30.20278,28.77222 -33.79883,47.54493 -3.596057,18.7727 4.33576,33.56515 14.53711,55.10546 25.59242,54.03915 1.50412,113.46952 -53.576172,133.38672 -21.715362,7.85244 -38.101302,14.35766 -48.648438,30.125 -10.5471351,15.76734 -10.7929681,33.35732 -10.7929681,57.83985 0,24.48252 0.245551,42.07282 10.7929681,57.83984 10.547418,15.76702 26.933292,22.27077 48.648438,30.12305 55.080672,19.91726 79.168582,79.34952 53.576172,133.38867 -10.2013,21.54016 -18.133297,36.33093 -14.53711,55.10352 3.59618,18.77258 16.10068,29.84676 33.79883,47.54492 v 0.002 c 17.69698,17.6969 28.77111,30.19751 47.54102,33.79492 18.76991,3.59741 33.56005,-4.33199 55.09179,-14.52929 19.38094,-9.17848 28.5542,-12.24271 36.75782,-12.19922 8.20361,0.0435 19.51877,3.53598 41.69336,13.00586 31.68883,13.53307 46.05064,28.1492 55.68164,54.7832 7.4873,20.70578 14.20621,36.83265 29.88476,46.97266 15.67855,10.14 33.06714,10.44921 57.34961,10.44921 24.48253,0 42.07248,-0.24584 57.83984,-10.79296 15.76737,-10.54713 22.27265,-26.93304 30.125,-48.64844 19.91715,-55.07957 79.3478,-79.16867 133.38672,-53.57617 h 0.002 c 21.54022,10.2012 36.32896,18.13324 55.10156,14.53711 18.7726,-3.59614 29.84867,-16.10059 47.54687,-33.79883 17.69687,-17.6969 30.1988,-28.77116 33.79688,-47.54102 3.59807,-18.76986 -4.3319,-33.56162 -14.5293,-55.09375 -9.17863,-19.38106 -12.24437,-28.55616 -12.20117,-36.75976 0.0432,-8.2036 3.53605,-19.51703 13.00586,-41.69141 13.53305,-31.68868 28.14887,-46.0486 54.7832,-55.67969 20.70583,-7.48733 36.83266,-14.20621 46.97266,-29.88476 10.13999,-15.67855 10.44922,-33.06717 10.44922,-57.34961 0,-24.48251 -0.24586,-42.07247 -10.79297,-57.83985 -10.54712,-15.76737 -26.93296,-22.27256 -48.64844,-30.125 -55.07958,-19.91716 -79.16854,-79.34761 -53.57617,-133.38672 10.20132,-21.54028 18.13312,-36.33272 14.53711,-55.10546 -3.59602,-18.77274 -16.10045,-29.84662 -33.79883,-47.54493 -17.69699,-17.69694 -28.77109,-30.19948 -47.54101,-33.79687 -18.76993,-3.597388 -33.55995,4.33399 -55.0918,14.53125 -19.38083,9.17848 -28.55417,12.24076 -36.75781,12.19727 -8.20365,-0.0435 -19.51879,-3.53599 -41.69336,-13.00586 C 569.05291,100.21676 554.69151,85.602482 545.06056,58.968758 537.57331,38.262929 530.85436,22.136103 515.17579,11.996101 499.49722,1.8560999 482.10865,1.5468829 457.82618,1.5468829 Z m 0,38.8437501 c 22.99709,0 32.87598,2.038009 36.25391,4.222656 3.37792,2.184646 7.50442,8.360712 14.44922,27.566403 12.85284,35.543618 38.68755,60.949578 76.95703,77.292968 23.05091,9.84413 39.0143,16.03297 56.74218,16.12695 17.72789,0.094 33.13827,-6.24904 53.5918,-15.93554 21.10612,-9.99564 29.06342,-11.88706 31.1543,-11.48633 2.09088,0.40073 9.9891,5.71766 27.38476,23.11328 17.39753,17.39745 22.71464,25.29544 23.11524,27.38672 0.40059,2.09128 -1.49412,10.05468 -11.49414,31.16992 -34.66816,73.20293 -0.0857,159.21983 75.47461,186.54297 20.41343,7.38161 27.33991,11.85611 29.57226,15.19336 2.23236,3.33725 4.23438,12.97853 4.23438,36.24219 0,22.99706 -2.03802,32.87599 -4.22266,36.2539 -2.18464,3.37791 -8.36067,7.50433 -27.5664,14.44922 -35.54259,12.85235 -60.95108,38.6847 -77.29493,76.95508 -9.84422,23.05112 -16.03359,39.01622 -16.12695,56.74414 -0.0934,17.72792 6.25106,33.13652 15.9375,53.58985 9.99545,21.1057 11.88735,29.06232 11.48633,31.15429 -0.40102,2.09197 -5.71973,9.99118 -23.11524,27.38672 -17.3976,17.39764 -25.29626,22.71478 -27.38671,23.11523 -2.09046,0.40046 -10.05255,-1.49412 -31.16797,-11.49414 -73.20286,-34.66842 -159.21984,-0.0857 -186.54297,75.47461 -7.38152,20.41332 -11.85606,27.33988 -15.19336,29.57227 -3.3373,2.23239 -12.97856,4.23437 -36.24219,4.23437 -22.99707,0 -32.87597,-2.03799 -36.25391,-4.22265 -3.37793,-2.18466 -7.50436,-8.36073 -14.44921,-27.56641 -12.85271,-35.54348 -38.68703,-60.95128 -76.95704,-77.29492 -23.05091,-9.84412 -39.01432,-16.03297 -56.74218,-16.12695 -17.72787,-0.094 -33.13819,6.24906 -53.5918,15.93554 -21.10593,9.99564 -29.06136,11.88709 -31.15234,11.48633 -2.09099,-0.40075 -9.9911,-5.71773 -27.38672,-23.11328 -17.39755,-17.39755 -22.71476,-25.29616 -23.11524,-27.38672 -0.40048,-2.09055 1.49407,-10.05272 11.49414,-31.16797 34.66816,-73.20283 0.0873,-159.22162 -75.474608,-186.54492 -20.413549,-7.38162 -27.340152,-11.85469 -29.572265,-15.1914 -2.232113,-3.33672 -4.234375,-12.97858 -4.234375,-36.24219 0,-23.26362 2.00198,-32.90489 4.234375,-36.24219 2.232395,-3.3373 9.158932,-7.81175 29.572265,-15.19336 75.561018,-27.3231 110.142758,-113.34018 75.474608,-186.54297 -10.00002,-21.11522 -11.89475,-29.0786 -11.49414,-31.16992 0.40061,-2.09132 5.7178,-9.98926 23.11524,-27.38672 17.39765,-17.39763 25.29625,-22.71478 27.38672,-23.11523 2.09047,-0.40046 10.05261,1.49412 31.16797,11.49414 73.2026,34.66811 159.22171,0.087 186.54492,-75.474608 h -0.002 C 413.77216,53.781999 418.245,46.857036 421.582,44.625008 c 3.337,-2.232029 12.98024,-4.234375 36.24414,-4.234375 z"
     fill="none"
     stroke="#444"
     stroke-width="1"
     id="path2"
     style="fill:#000000;fill-opacity:1" />
</svg>
