<?xml version="1.0" encoding="UTF-8" standalone="no"?>
<!-- Created with Inkscape (http://www.inkscape.org/) -->

<svg
   xmlns:dc="http://purl.org/dc/elements/1.1/"
   xmlns:cc="http://creativecommons.org/ns#"
   xmlns:rdf="http://www.w3.org/1999/02/22-rdf-syntax-ns#"
   xmlns:svg="http://www.w3.org/2000/svg"
   xmlns="http://www.w3.org/2000/svg"
   xmlns:sodipodi="http://sodipodi.sourceforge.net/DTD/sodipodi-0.dtd"
   xmlns:inkscape="http://www.inkscape.org/namespaces/inkscape"
   width="53.406212mm"
   height="52.112789mm"
   viewBox="0 0 53.406212 52.112789"
   version="1.1"
   id="svg8"
   inkscape:version="0.92.5 (2060ec1f9f, 2020-04-08)"
   sodipodi:docname="dice.svg">
  <defs
     id="defs2" />
  <sodipodi:namedview
     id="base"
     pagecolor="#ffffff"
     bordercolor="#666666"
     borderopacity="1.0"
     inkscape:pageopacity="0.0"
     inkscape:pageshadow="2"
     inkscape:zoom="2"
     inkscape:cx="-52.835078"
     inkscape:cy="-21.165351"
     inkscape:document-units="mm"
     inkscape:current-layer="layer1"
     showgrid="false"
     fit-margin-top="0"
     fit-margin-left="0"
     fit-margin-right="0"
     fit-margin-bottom="0"
     inkscape:window-width="1848"
     inkscape:window-height="1016"
     inkscape:window-x="72"
     inkscape:window-y="1107"
     inkscape:window-maximized="1" />
  <metadata
     id="metadata5">
    <rdf:RDF>
      <cc:Work
         rdf:about="">
        <dc:format>image/svg+xml</dc:format>
        <dc:type
           rdf:resource="http://purl.org/dc/dcmitype/StillImage" />
        <dc:title></dc:title>
      </cc:Work>
    </rdf:RDF>
  </metadata>
  <g
     inkscape:label="Capa 1"
     inkscape:groupmode="layer"
     id="layer1"
     transform="translate(-0.50522897,-0.20431974)">
    <path
       style="fill:#000000;stroke-width:0.38943553"
       d="m 102.48828,0.0390625 c -0.0496,0.01942677 -0.0953,0.02810408 -0.14648,0.05078125 C 101.82317,0.32043273 87.888525,13.139792 73.982422,28.441406 55.991122,48.238219 48.909188,55.413465 48.986328,55.960938 c 28.451218,1.230676 22.959374,0.917556 52.179692,0.859335 1.02814,0.0019 1.45207,0.0039 2.52148,0.0059 v -0.01172 c 44.74877,-0.0858 46.44628,-0.125797 46.54883,-0.853515 0.0771,-0.547473 -2.00284,-7.722717 -19.99414,-27.519532 C 116.33608,13.139795 103.14754,0.32824511 102.62891,0.09765625 102.58065,0.0752871 102.52982,0.05636939 102.48828,0.0390625 Z M 87.591797,5.1796875 C 87.421348,5.0131993 24.357671,40.348277 19.095703,43.537109 c -2.903252,1.759416 -2.515644,2.055784 9.583985,7.308594 10.64682,4.62212 12.170505,4.99115 14.105468,4.234375 0.281961,-0.110249 8.954356,-9.981486 20.798828,-23.02539 7.179496,-7.906511 15.826009,-16.826 24.007813,-26.8750005 z m 29.041013,0 c 8.18181,10.0490025 16.82832,18.9684915 24.00781,26.8750005 11.84448,13.043905 20.51687,22.915141 20.79883,23.02539 1.93496,0.756775 3.45865,0.387745 14.10547,-4.234375 12.09963,-5.25281 12.48724,-5.549178 9.58399,-7.308594 C 179.86694,40.348277 116.80326,5.0131997 116.63281,5.1796875 Z M 13.158203,51.625 c -0.400819,0.01417 -0.814797,0.181127 -1.103515,0.462891 -0.59316,0.57877 -0.394532,3.676283 -0.394532,41.326171 0,24.394488 -0.120234,37.919918 0.0918,37.919918 0.196917,0 0.705821,-0.99631 1.130859,-2.21289 0.42505,-1.21658 6.116911,-17.01878 12.650391,-35.115231 6.533408,-18.096449 12.099609,-29.912798 12.099609,-30.464843 10e-7,-0.55205 -0.309841,-1.361443 -0.689453,-1.798828 -0.609528,-0.702592 -21.22444,-9.548613 -23.394531,-10.080079 -0.125722,-0.03061 -0.257019,-0.04202 -0.390625,-0.03711 z m 177.906247,0 c -0.1336,-0.0049 -0.2649,0.0065 -0.39062,0.03711 -2.17009,0.531466 -22.78305,9.377487 -23.39258,10.080079 -0.37961,0.437385 -0.68945,1.246778 -0.68945,1.798828 0,0.552045 5.5662,12.368394 12.09961,30.464843 6.53348,18.09645 12.22534,33.89865 12.65039,35.11523 0.42503,1.21658 0.93394,2.21289 1.13086,2.21289 0.21203,0 0.0918,-13.52544 0.0918,-37.919917 0,-37.649888 0.19668,-40.747401 -0.39648,-41.326171 -0.28872,-0.281764 -0.7027,-0.448718 -1.10352,-0.462891 z m -139.792966,12.298828 -1.78125,1.175781 c 0.0031,0.813903 7.083386,13.031261 25.535157,44.773441 7.21036,16.33004 19.148431,29.80833 27.105459,46.80078 10.21659,-18.31501 18.51585,-32.09335 27.06642,-46.80078 18.45177,-31.74218 25.53396,-43.959538 25.53711,-44.773441 l 0.004,-1.154297 -52.32226,0.857422 z m -8.705078,6.542969 c -0.915934,0 -1.133622,-0.516962 -13.269531,33.111323 -15.327413,43.29523 -13.251436,41.2841 -13.515625,43.16602 0.242642,0.51948 1.101683,0.72115 1.408203,0.83594 0.30652,0.11479 15.480448,2.45497 36.556641,5.30859 21.076199,2.85362 37.511615,4.90991 38.162109,5.00391 0.650498,0.094 1.404751,0.0828 1.675781,-0.0234 0.271019,-0.10625 0.491724,-0.56891 0.490235,-1.02734 C 94.072639,156.38339 82.91901,137.84015 68.650391,113.29688 45.35542,73.227431 43.427315,70.466797 42.566406,70.466797 Z m 119.089844,0 c -0.86091,0 -2.78706,2.760634 -26.08203,42.830083 -14.26862,24.54328 -25.4242,43.0865 -25.42578,43.54492 -10e-4,0.45843 0.21921,0.92109 0.49023,1.02734 0.27103,0.10624 1.02528,0.1174 1.67578,0.0234 0.65049,-0.094 17.08591,-2.15029 38.16211,-5.00391 21.07619,-2.85362 36.25208,-5.1938 36.5586,-5.30859 0.30652,-0.11479 1.16556,-0.31645 1.4082,-0.83594 -0.26419,-1.88191 1.81179,0.1292 -13.51563,-43.16602 C 162.79183,69.949805 162.57218,70.466797 161.65625,70.466797 Z M 24.144531,154.93555 c -1.059057,0 -1.143668,0.0717 -0.642578,0.54101 0.942841,0.88302 72.619482,41.13074 73.5625,41.30664 0.579742,0.10813 1.005498,-0.097 1.292969,-0.62109 0.547355,-0.998 0.595833,-28.0534 0.05273,-29.44727 -0.207159,-0.53166 -1.692337,-1.14889 -2.210937,-1.48046 -0.65472,-0.41861 -10.86838,-1.27437 -35.44336,-4.60938 -19.465511,-2.64162 -35.940307,-5.68945 -36.611328,-5.68945 z m 155.935549,0 c -0.67102,0 -17.14582,3.04783 -36.61133,5.68945 -24.57498,3.33501 -34.78864,4.19077 -35.44336,4.60938 -0.5186,0.33157 -2.00378,0.94881 -2.21094,1.48046 -0.5431,1.39388 -0.49462,28.44927 0.0527,29.44727 0.28747,0.52412 0.71322,0.72922 1.29297,0.62109 0.94301,-0.1759 72.61966,-40.42362 73.5625,-41.30664 0.50109,-0.4693 0.41648,-0.54101 -0.64258,-0.54101 z"
       transform="matrix(0.26458333,0,0,0.26458333,0.50522897,0.20431974)"
       id="path80"
       inkscape:connector-curvature="0"
       sodipodi:nodetypes="ccccccccccccscccccsccscccsscccccccccsccsscccccccccccscssscccsssscccssccsscccccsssscccccscccc" />
  </g>
</svg>
