<?xml version="1.0" encoding="UTF-8" standalone="no"?>
<svg
   xmlns:dc="http://purl.org/dc/elements/1.1/"
   xmlns:cc="http://creativecommons.org/ns#"
   xmlns:rdf="http://www.w3.org/1999/02/22-rdf-syntax-ns#"
   xmlns:svg="http://www.w3.org/2000/svg"
   xmlns="http://www.w3.org/2000/svg"
   xmlns:sodipodi="http://sodipodi.sourceforge.net/DTD/sodipodi-0.dtd"
   xmlns:inkscape="http://www.inkscape.org/namespaces/inkscape"
   viewBox="0 0 915.65238 915.65238"
   version="1.1"
   id="svg4"
   sodipodi:docname="Help.svg"
   inkscape:version="0.92.5 (2060ec1f9f, 2020-04-08)">
  <metadata
     id="metadata10">
    <rdf:RDF>
      <cc:Work
         rdf:about="">
        <dc:format>image/svg+xml</dc:format>
        <dc:type
           rdf:resource="http://purl.org/dc/dcmitype/StillImage" />
        <dc:title></dc:title>
      </cc:Work>
    </rdf:RDF>
  </metadata>
  <defs
     id="defs8" />
  <sodipodi:namedview
     pagecolor="#ffffff"
     bordercolor="#666666"
     borderopacity="1"
     objecttolerance="10"
     gridtolerance="10"
     guidetolerance="10"
     inkscape:pageopacity="0"
     inkscape:pageshadow="2"
     inkscape:window-width="1848"
     inkscape:window-height="1016"
     id="namedview6"
     showgrid="false"
     inkscape:zoom="0.18224951"
     inkscape:cx="1312.0909"
     inkscape:cy="201.73338"
     inkscape:window-x="72"
     inkscape:window-y="1051"
     inkscape:window-maximized="1"
     inkscape:current-layer="svg4" />
  <path
     d="M 457.82617 1.546875 C 433.34392 1.546875 415.75396 1.7913615 399.98633 12.337891 C 384.21869 22.884421 377.71379 39.270788 369.86133 60.986328 C 349.94395 116.06732 290.51374 140.15496 236.47461 114.5625 C 214.93444 104.36129 200.14368 96.429263 181.37109 100.02539 C 162.5985 103.62152 151.52442 116.12599 133.82617 133.82422 C 116.12791 151.52251 103.62339 162.59643 100.02734 181.36914 C 96.431287 200.14184 104.3631 214.9343 114.56445 236.47461 C 140.15687 290.51376 116.06857 349.94413 60.988281 369.86133 C 39.272919 377.71377 22.88698 384.21899 12.339844 399.98633 C 1.7927086 415.75367 1.546875 433.34364 1.546875 457.82617 C 1.546875 482.30869 1.7924267 499.899 12.339844 515.66602 C 22.887262 531.43304 39.273135 537.93678 60.988281 545.78906 C 116.06895 565.70632 140.15686 625.13858 114.56445 679.17773 C 104.36315 700.71789 96.431157 715.50866 100.02734 734.28125 C 103.62352 753.05383 116.12802 764.12801 133.82617 781.82617 L 133.82617 781.82812 C 151.52315 799.52503 162.59728 812.02564 181.36719 815.62305 C 200.1371 819.22046 214.92724 811.29105 236.45898 801.09375 C 255.83992 791.91527 265.01318 788.85104 273.2168 788.89453 C 281.42041 788.93803 292.73557 792.43051 314.91016 801.90039 C 346.59899 815.43346 360.9608 830.04959 370.5918 856.68359 C 378.0791 877.38937 384.79801 893.51624 400.47656 903.65625 C 416.15511 913.79625 433.5437 914.10547 457.82617 914.10547 C 482.3087 914.10547 499.89866 913.85962 515.66602 903.3125 C 531.43339 892.76537 537.93867 876.37946 545.79102 854.66406 C 565.70817 799.58449 625.13881 775.49539 679.17773 801.08789 L 679.17969 801.08789 C 700.71991 811.28909 715.50865 819.22113 734.28125 815.625 C 753.05385 812.02886 764.12992 799.52441 781.82812 781.82617 C 799.52499 764.12927 812.02692 753.05502 815.625 734.28516 C 819.22307 715.5153 811.2931 700.72354 801.0957 679.19141 C 791.91707 659.81035 788.85133 650.63524 788.89453 642.43164 C 788.93773 634.22804 792.43058 622.91461 801.90039 600.74023 C 815.43344 569.05155 830.04926 554.69164 856.68359 545.06055 C 877.38942 537.57322 893.51625 530.85433 903.65625 515.17578 C 913.79624 499.49723 914.10547 482.10861 914.10547 457.82617 C 914.10547 433.34366 913.85961 415.75371 903.3125 399.98633 C 892.76538 384.21896 876.37954 377.71377 854.66406 369.86133 C 799.58448 349.94417 775.49552 290.51372 801.08789 236.47461 C 811.28921 214.93433 819.22101 200.14188 815.625 181.36914 C 812.02898 162.5964 799.52455 151.52253 781.82617 133.82422 C 764.12918 116.12728 753.05508 103.62473 734.28516 100.02734 C 715.51523 96.429956 700.72521 104.36133 679.19336 114.55859 C 659.81253 123.73707 650.63919 126.79935 642.43555 126.75586 C 634.2319 126.71236 622.91676 123.21987 600.74219 113.75 C 569.05286 100.2167 554.6915 85.602474 545.06055 58.96875 C 537.5733 38.262921 530.85435 22.136096 515.17578 11.996094 C 499.49721 1.8560927 482.10864 1.546875 457.82617 1.546875 z M 451.8125 263.89648 C 472.25782 263.89648 488.89422 266.70201 501.72266 272.31445 C 514.95198 277.92689 525.3753 285.14334 532.99219 293.96289 C 540.60907 302.38155 545.82073 311.80346 548.62695 322.22656 C 551.83406 332.64967 553.4375 342.67164 553.4375 352.29297 C 553.4375 364.31963 551.03332 375.14234 546.22266 384.76367 C 541.81288 393.98411 536.19987 402.80399 529.38477 411.22266 C 522.56966 419.64132 515.15254 427.65851 507.13477 435.27539 C 499.11699 442.89228 491.70183 450.91142 484.88672 459.33008 C 478.07161 467.34785 472.25793 476.16773 467.44727 485.78906 C 463.03749 495.41039 460.83203 506.03243 460.83203 517.6582 L 418.13867 517.6582 L 417.53711 506.23438 C 417.53711 488.99616 421.94607 474.16192 430.76562 461.73438 C 439.58518 448.90594 449.20775 437.07985 459.63086 426.25586 C 470.45485 415.43187 480.27615 404.60915 489.0957 393.78516 C 497.91525 382.96116 502.32422 370.53306 502.32422 356.50195 C 502.32422 341.26818 497.51391 329.04075 487.89258 319.82031 C 478.27125 310.59987 464.03903 305.99023 445.19727 305.99023 C 433.57149 305.99023 421.94608 307.393 410.32031 310.19922 C 399.09543 313.00544 387.67069 317.61508 376.04492 324.0293 L 362.21484 285.54492 C 374.2415 278.72981 387.8717 273.51815 403.10547 269.91016 C 418.33924 265.90127 434.57429 263.89648 451.8125 263.89648 z M 443.99609 569.97461 C 454.82009 569.97461 464.24004 573.78351 472.25781 581.40039 C 480.27559 588.61639 484.28516 598.43769 484.28516 610.86523 C 484.28516 623.29278 480.27559 633.31476 472.25781 640.93164 C 464.24004 648.14764 454.82009 651.75586 443.99609 651.75586 C 432.77121 651.75586 423.14863 648.14764 415.13086 640.93164 C 407.51397 633.31476 403.70703 623.29278 403.70703 610.86523 C 403.70703 598.43769 407.51397 588.61639 415.13086 581.40039 C 423.14863 573.78351 432.77121 569.97461 443.99609 569.97461 z "
     id="path2" />
</svg>
