<?xml version="1.0" encoding="UTF-8" standalone="no"?>
<svg
   xmlns:dc="http://purl.org/dc/elements/1.1/"
   xmlns:cc="http://creativecommons.org/ns#"
   xmlns:rdf="http://www.w3.org/1999/02/22-rdf-syntax-ns#"
   xmlns:svg="http://www.w3.org/2000/svg"
   xmlns="http://www.w3.org/2000/svg"
   xmlns:sodipodi="http://sodipodi.sourceforge.net/DTD/sodipodi-0.dtd"
   xmlns:inkscape="http://www.inkscape.org/namespaces/inkscape"
   viewBox="0 0 915.65238 915.65238"
   version="1.1"
   id="svg4"
   sodipodi:docname="Help.svg"
   inkscape:version="0.92.5 (2060ec1f9f, 2020-04-08)">
  <metadata
     id="metadata10">
    <rdf:RDF>
      <cc:Work
         rdf:about="">
        <dc:format>image/svg+xml</dc:format>
        <dc:type
           rdf:resource="http://purl.org/dc/dcmitype/StillImage" />
        <dc:title />
      </cc:Work>
    </rdf:RDF>
  </metadata>
  <defs
     id="defs8" />
  <sodipodi:namedview
     pagecolor="#ffffff"
     bordercolor="#666666"
     borderopacity="1"
     objecttolerance="10"
     gridtolerance="10"
     guidetolerance="10"
     inkscape:pageopacity="0"
     inkscape:pageshadow="2"
     inkscape:window-width="1848"
     inkscape:window-height="1016"
     id="namedview6"
     showgrid="false"
     inkscape:zoom="0.12886986"
     inkscape:cx="-769.51065"
     inkscape:cy="493.64743"
     inkscape:window-x="72"
     inkscape:window-y="1107"
     inkscape:window-maximized="1"
     inkscape:current-layer="svg4" />
  <path
     d="M 457.82617 1.546875 C 433.34392 1.546875 415.75396 1.7913615 399.98633 12.337891 C 384.21869 22.884421 377.71379 39.270788 369.86133 60.986328 C 349.94395 116.06732 290.51374 140.15496 236.47461 114.5625 C 214.93444 104.36129 200.14368 96.429263 181.37109 100.02539 C 162.5985 103.62152 151.52442 116.12599 133.82617 133.82422 C 116.12791 151.52251 103.62339 162.59643 100.02734 181.36914 C 96.431287 200.14184 104.3631 214.9343 114.56445 236.47461 C 140.15687 290.51376 116.06857 349.94413 60.988281 369.86133 C 39.272919 377.71377 22.88698 384.21899 12.339844 399.98633 C 1.7927086 415.75367 1.546875 433.34364 1.546875 457.82617 C 1.546875 482.30869 1.7924267 499.899 12.339844 515.66602 C 22.887262 531.43304 39.273135 537.93678 60.988281 545.78906 C 116.06895 565.70632 140.15686 625.13858 114.56445 679.17773 C 104.36315 700.71789 96.431157 715.50866 100.02734 734.28125 C 103.62352 753.05383 116.12802 764.12801 133.82617 781.82617 L 133.82617 781.82812 C 151.52315 799.52503 162.59728 812.02564 181.36719 815.62305 C 200.1371 819.22046 214.92724 811.29105 236.45898 801.09375 C 255.83992 791.91527 265.01318 788.85104 273.2168 788.89453 C 281.42041 788.93803 292.73557 792.43051 314.91016 801.90039 C 346.59899 815.43346 360.9608 830.04959 370.5918 856.68359 C 378.0791 877.38937 384.79801 893.51624 400.47656 903.65625 C 416.15511 913.79625 433.5437 914.10547 457.82617 914.10547 C 482.3087 914.10547 499.89866 913.85962 515.66602 903.3125 C 531.43339 892.76537 537.93867 876.37946 545.79102 854.66406 C 565.70817 799.58449 625.13881 775.49539 679.17773 801.08789 L 679.17969 801.08789 C 700.71991 811.28909 715.50865 819.22113 734.28125 815.625 C 753.05385 812.02886 764.12992 799.52441 781.82812 781.82617 C 799.52499 764.12927 812.02692 753.05502 815.625 734.28516 C 819.22307 715.5153 811.2931 700.72354 801.0957 679.19141 C 791.91707 659.81035 788.85133 650.63524 788.89453 642.43164 C 788.93773 634.22804 792.43058 622.91461 801.90039 600.74023 C 815.43344 569.05155 830.04926 554.69164 856.68359 545.06055 C 877.38942 537.57322 893.51625 530.85433 903.65625 515.17578 C 913.79624 499.49723 914.10547 482.10861 914.10547 457.82617 C 914.10547 433.34366 913.85961 415.75371 903.3125 399.98633 C 892.76538 384.21896 876.37954 377.71377 854.66406 369.86133 C 799.58448 349.94417 775.49552 290.51372 801.08789 236.47461 C 811.28921 214.93433 819.22101 200.14188 815.625 181.36914 C 812.02898 162.5964 799.52455 151.52253 781.82617 133.82422 C 764.12918 116.12728 753.05508 103.62473 734.28516 100.02734 C 715.51523 96.429956 700.72521 104.36133 679.19336 114.55859 C 659.81253 123.73707 650.63919 126.79935 642.43555 126.75586 C 634.2319 126.71236 622.91676 123.21987 600.74219 113.75 C 569.05286 100.2167 554.6915 85.602474 545.06055 58.96875 C 537.5733 38.262921 530.85435 22.136096 515.17578 11.996094 C 499.49721 1.8560927 482.10864 1.546875 457.82617 1.546875 z M 450.16016 249.82617 C 454.16016 250.27062 458.16016 250.49219 462.16016 250.49219 C 466.6046 250.49219 471.27127 250.71571 476.16016 251.16016 L 487.49219 256.49219 C 491.49219 260.93663 499.93728 267.16016 512.82617 275.16016 L 525.49219 286.49219 L 528.16016 289.82617 C 530.38238 291.60395 533.27062 294.49219 536.82617 298.49219 C 542.60395 304.26997 545.49219 314.49349 545.49219 329.16016 C 545.49219 330.93793 544.38238 332.93793 542.16016 335.16016 C 540.38238 337.38238 539.27062 339.38238 538.82617 341.16016 C 539.71506 343.82682 540.16016 345.6033 540.16016 346.49219 C 540.16016 347.38108 539.49349 349.15951 538.16016 351.82617 C 536.82682 354.04839 536.16016 355.38173 536.16016 355.82617 C 535.71571 359.38173 535.49219 362.49349 535.49219 365.16016 C 535.49219 367.38238 535.27062 368.93728 534.82617 369.82617 C 533.49284 373.38173 530.38108 376.26997 525.49219 378.49219 C 521.04774 386.49219 513.93793 393.15885 504.16016 398.49219 C 495.27127 403.82552 489.27127 408.27062 486.16016 411.82617 C 484.82682 415.38173 482.82682 419.82682 480.16016 425.16016 C 477.49349 430.04905 474.38173 435.60395 470.82617 441.82617 C 469.49284 445.82617 468.82617 449.82617 468.82617 453.82617 C 468.82617 456.49284 469.49284 461.15951 470.82617 467.82617 L 469.49219 471.82617 C 469.93663 471.82617 471.93663 472.93793 475.49219 475.16016 L 471.49219 478.49219 C 471.49219 481.15885 471.71571 483.38238 472.16016 485.16016 C 473.04905 485.6046 473.93728 486.93793 474.82617 489.16016 C 474.82617 490.49349 473.49284 494.04839 470.82617 499.82617 C 496.15951 523.82617 508.82617 539.38108 508.82617 546.49219 C 508.82617 557.6033 501.04774 563.16016 485.49219 563.16016 C 484.15885 563.16016 479.93728 560.49349 472.82617 555.16016 L 466.16016 555.16016 C 445.27127 556.04905 429.93793 545.82552 420.16016 524.49219 C 412.16016 508.04774 408.16016 487.82617 408.16016 463.82617 C 408.16016 462.04839 408.82682 456.04839 410.16016 445.82617 C 411.49349 438.27062 411.49349 433.15885 410.16016 430.49219 C 414.16016 427.38108 417.71506 422.27127 420.82617 415.16016 C 423.93728 407.16016 429.27062 399.82682 436.82617 393.16016 C 438.60395 388.27127 441.04905 382.27127 444.16016 375.16016 C 447.27127 368.04904 451.04774 359.60395 455.49219 349.82617 L 465.49219 331.82617 C 465.49219 325.15951 462.82552 316.71441 457.49219 306.49219 C 451.26997 296.26996 445.04839 291.16016 438.82617 291.16016 L 424.16016 304.49219 C 415.27127 313.38108 403.71441 317.82617 389.49219 317.82617 C 385.49219 317.82617 381.49219 315.82617 377.49219 311.82617 C 373.49219 307.38173 371.04905 302.93663 370.16016 298.49219 C 372.38238 278.93663 379.27062 266.26997 390.82617 260.49219 C 399.27062 255.6033 413.93728 253.16016 434.82617 253.16016 C 437.04839 253.16016 442.16016 252.04839 450.16016 249.82617 z M 451.49219 591.16016 C 453.71441 591.6046 456.6046 592.04774 460.16016 592.49219 L 473.49219 592.49219 C 486.82552 599.15885 493.49219 612.49219 493.49219 632.49219 C 493.49219 644.04774 487.49219 652.71441 475.49219 658.49219 C 464.82552 663.38108 453.49219 665.82617 441.49219 665.82617 C 435.71441 665.82617 428.82617 661.38108 420.82617 652.49219 C 413.27062 643.6033 409.49219 636.04839 409.49219 629.82617 C 409.49219 630.71506 409.71571 630.04839 410.16016 627.82617 C 411.04905 625.60395 411.93728 622.04905 412.82617 617.16016 C 412.82617 615.82682 412.38108 614.26997 411.49219 612.49219 C 415.93663 605.38108 422.38173 600.71441 430.82617 598.49219 C 439.27062 596.71441 445.04905 594.49284 448.16016 591.82617 L 451.49219 591.16016 z "
     id="path2" />
</svg>
