<?xml version="1.0" encoding="UTF-8" standalone="no"?>
<svg
   xmlns:dc="http://purl.org/dc/elements/1.1/"
   xmlns:cc="http://creativecommons.org/ns#"
   xmlns:rdf="http://www.w3.org/1999/02/22-rdf-syntax-ns#"
   xmlns:svg="http://www.w3.org/2000/svg"
   xmlns="http://www.w3.org/2000/svg"
   xmlns:sodipodi="http://sodipodi.sourceforge.net/DTD/sodipodi-0.dtd"
   xmlns:inkscape="http://www.inkscape.org/namespaces/inkscape"
   viewBox="0 0 915.65238 915.65238"
   version="1.1"
   id="svg4"
   sodipodi:docname="more.svg"
   inkscape:version="0.92.5 (2060ec1f9f, 2020-04-08)">
  <metadata
     id="metadata10">
    <rdf:RDF>
      <cc:Work
         rdf:about="">
        <dc:format>image/svg+xml</dc:format>
        <dc:type
           rdf:resource="http://purl.org/dc/dcmitype/StillImage" />
        <dc:title></dc:title>
      </cc:Work>
    </rdf:RDF>
  </metadata>
  <defs
     id="defs8" />
  <sodipodi:namedview
     pagecolor="#ffffff"
     bordercolor="#666666"
     borderopacity="1"
     objecttolerance="10"
     gridtolerance="10"
     guidetolerance="10"
     inkscape:pageopacity="0"
     inkscape:pageshadow="2"
     inkscape:window-width="1848"
     inkscape:window-height="1016"
     id="namedview6"
     showgrid="false"
     inkscape:zoom="0.12886986"
     inkscape:cx="-1815.93"
     inkscape:cy="-1007.167"
     inkscape:window-x="72"
     inkscape:window-y="1107"
     inkscape:window-maximized="1"
     inkscape:current-layer="svg4" />
  <path
     style="fill:#000000;fill-opacity:1"
     d="m 457.82617,914.10547 c -24.48225,0 -42.07221,-0.24449 -57.83984,-10.79102 -15.76764,-10.54653 -22.27254,-26.93289 -30.125,-48.64843 -19.91738,-55.081 -79.34759,-79.16864 -133.38672,-53.57618 -21.54017,10.20121 -36.33093,18.13324 -55.10352,14.53711 -18.77259,-3.59613 -29.84667,-16.1006 -47.54492,-33.79883 -17.69826,-17.69829 -30.20278,-28.77221 -33.79883,-47.54492 -3.596052,-18.7727 4.33576,-33.56516 14.53711,-55.10547 C 140.15687,625.13858 116.06857,565.70821 60.988281,545.79102 39.272919,537.93857 22.88698,531.43335 12.339844,515.66602 1.792709,499.89867 1.546875,482.3087 1.546875,457.82617 c 0,-24.48252 0.2455521,-42.07283 10.792969,-57.83985 10.547418,-15.76702 26.933291,-22.27076 48.648437,-30.12303 55.080669,-19.91727 79.168579,-79.34953 53.576169,-133.38868 -10.2013,-21.54016 -18.133292,-36.33093 -14.53711,-55.10352 3.59618,-18.77257 16.10068,-29.84676 33.79883,-47.54492 v -0.002 c 17.69698,-17.69691 28.77111,-30.19751 47.54102,-33.79493 18.76991,-3.597405 33.56005,4.332 55.09179,14.5293 19.38094,9.17849 28.5542,12.24271 36.75782,12.19922 8.20361,-0.0435 19.51877,-3.53598 41.69336,-13.00586 31.68883,-13.53306 46.05064,-28.149195 55.68164,-54.783195 7.4873,-20.70578 14.20621,-36.83265 29.88476,-46.97266 15.67855,-10.14 33.06714,-10.44922 57.34961,-10.44922 24.48253,0 42.07249,0.24585 57.83985,10.79297 15.76737,10.54713 22.27265,26.93304 30.125,48.64844 19.91715,55.079575 79.34779,79.168665 133.38671,53.576165 h 0.002 c 21.54022,-10.2012 36.32896,-18.133235 55.10156,-14.53711 18.7726,3.59614 29.84867,16.10059 47.54687,33.79883 17.69687,17.6969 30.1988,28.77115 33.79688,47.54101 3.59807,18.76986 -4.3319,33.56162 -14.5293,55.09375 -9.17863,19.38106 -12.24437,28.55618 -12.20117,36.75977 0.0432,8.2036 3.53605,19.51703 13.00586,41.69141 13.53305,31.68868 28.14887,46.04859 54.7832,55.67968 20.70583,7.48733 36.83266,14.20622 46.97266,29.88477 10.13999,15.67855 10.44922,33.06717 10.44922,57.34961 0,24.48251 -0.24586,42.07246 -10.79297,57.83985 -10.54712,15.76737 -26.93296,22.27255 -48.64844,30.125 -55.07958,19.91715 -79.16854,79.34761 -53.57617,133.38671 10.20132,21.54028 18.13312,36.33273 14.53711,55.10547 -3.59602,18.77274 -16.10045,29.84661 -33.79883,47.54492 -17.69699,17.69694 -28.77109,30.19949 -47.54101,33.79688 -18.76993,3.59739 -33.55995,-4.33398 -55.0918,-14.53125 -19.38083,-9.17848 -28.55417,-12.24076 -36.75781,-12.19727 -8.20365,0.0435 -19.51879,3.53599 -41.69336,13.00586 -31.68933,13.53331 -46.05069,28.14753 -55.68164,54.78125 -7.48725,20.70583 -14.2062,36.83266 -29.88477,46.97266 -15.67857,10.14 -33.06714,10.44922 -57.34961,10.44922 z M 263.08594,585.78711 c 0.45554,0 44.45952,-43.62899 97.78515,-96.95313 l 96.95508,-96.95312 96.95508,96.95312 c 53.32563,53.32414 97.33251,96.95313 97.79297,96.95313 0.90574,0 58.79297,-57.61793 58.79297,-58.51954 0,-0.79722 -252.74337,-253.40234 -253.54102,-253.40234 -0.37056,0 -57.56902,56.89206 -127.10742,126.42773 -69.53847,69.53569 -126.43359,126.67922 -126.43359,126.98438 0,0.90144 57.89487,58.50977 58.80078,58.50977 z"
     id="path2"
     inkscape:connector-curvature="0" />
</svg>
