<?xml version="1.0" encoding="UTF-8" standalone="no"?>
<!-- Created with Inkscape (http://www.inkscape.org/) -->

<svg
   xmlns:dc="http://purl.org/dc/elements/1.1/"
   xmlns:cc="http://creativecommons.org/ns#"
   xmlns:rdf="http://www.w3.org/1999/02/22-rdf-syntax-ns#"
   xmlns:svg="http://www.w3.org/2000/svg"
   xmlns="http://www.w3.org/2000/svg"
   xmlns:sodipodi="http://sodipodi.sourceforge.net/DTD/sodipodi-0.dtd"
   xmlns:inkscape="http://www.inkscape.org/namespaces/inkscape"
   width="53.406212mm"
   height="52.112789mm"
   viewBox="0 0 53.406212 52.112789"
   version="1.1"
   id="svg8"
   inkscape:version="0.92.3 (2405546, 2018-03-11)"
   sodipodi:docname="random_icon.svg">
  <defs
     id="defs2" />
  <sodipodi:namedview
     id="base"
     pagecolor="#ffffff"
     bordercolor="#666666"
     borderopacity="1.0"
     inkscape:pageopacity="0.0"
     inkscape:pageshadow="2"
     inkscape:zoom="0.35"
     inkscape:cx="1071.0995"
     inkscape:cy="-338.50147"
     inkscape:document-units="mm"
     inkscape:current-layer="layer1"
     showgrid="false"
     fit-margin-top="0"
     fit-margin-left="0"
     fit-margin-right="0"
     fit-margin-bottom="0"
     inkscape:window-width="1853"
     inkscape:window-height="1025"
     inkscape:window-x="67"
     inkscape:window-y="27"
     inkscape:window-maximized="1" />
  <metadata
     id="metadata5">
    <rdf:RDF>
      <cc:Work
         rdf:about="">
        <dc:format>image/svg+xml</dc:format>
        <dc:type
           rdf:resource="http://purl.org/dc/dcmitype/StillImage" />
        <dc:title />
      </cc:Work>
    </rdf:RDF>
  </metadata>
  <g
     inkscape:label="Capa 1"
     inkscape:groupmode="layer"
     id="layer1"
     transform="translate(-0.50522897,-0.20431974)">
    <path
       style="fill:#000000;stroke-width:0.26458335"
       d="m 23.415546,52.045068 c -1.463144,-0.43847 -1.757508,-0.94828 -1.757508,-3.04386 0,-2.108586 -0.09106,-2.255316 -1.719792,-2.771153 -0.582083,-0.184351 -1.619922,-0.616585 -2.306308,-0.960522 -1.77341,-0.888624 -2.297231,-0.809839 -3.627471,0.545576 -0.63204,0.644001 -1.431764,1.241841 -1.777163,1.328529 -1.148128,0.288163 -3.3664337,-1.310368 -5.4291138,-3.912264 -1.422807,-1.794751 -1.370477,-2.525969 0.307764,-4.300464 0.727604,-0.769334 1.322917,-1.528937 1.322917,-1.688004 0,-0.15907 -0.281193,-0.850808 -0.624873,-1.537192 -0.343679,-0.686388 -0.829875,-1.874187 -1.080433,-2.639558 -0.250559,-0.765368 -0.675914,-1.509508 -0.945234,-1.653645 -0.26932,-0.144135 -1.266768,-0.262065 -2.216551,-0.262065 -2.58479997,0 -3.07598797,-0.765479 -3.05597497,-4.7625 0.01167,-2.330687 0.365181,-3.998786 0.93587797,-4.41609 0.260559,-0.190525 1.157611,-0.34641 1.99345,-0.34641 2.19445,0 2.716393,-0.272201 3.122216,-1.628285 0.189256,-0.632412 0.687772,-1.831054 1.107812,-2.663649 0.42004,-0.832595 0.76371,-1.643394 0.76371,-1.801775 0,-0.158382 -0.595313,-0.917422 -1.322917,-1.686756 -1.654979,-1.749896 -1.719371,-2.494346 -0.372274,-4.3039563 1.52036,-2.042361 4.0309338,-4.055162 5.0580178,-4.055162 0.404239,0 1.16198,0.495938 2.070341,1.355029 1.106988,1.046942 1.569603,1.322404 2.034683,1.211542 1.0968,-0.261445 5.361009,-2.106572 5.558827,-2.405308 0.106912,-0.161455 0.196209,-1.045522 0.198437,-1.964594 0.0022,-0.919072 0.1222,-1.891802 0.266604,-2.161623 0.294891,-0.55100896 1.380146,-0.94093696 3.243177,-1.16526296 l 1.256771,-0.151326 -8.68e-4,6.14650096 -8.7e-4,6.1465013 0.0017,27.659038 v 6.080376 6.080372 l -1.124479,-0.0227 c -0.618464,-0.0125 -1.464694,-0.1247 -1.880513,-0.24931 z"
       id="path32"
       inkscape:connector-curvature="0"
       sodipodi:nodetypes="csccscssscccsscsssssssccccssccccccccc" />
    <path
       style="fill:#000000;stroke-width:0.10303815"
       d="M 27.986681,0.24413153 27.939434,15.23982 C 41.407853,15.2146 41.550061,15.21195 41.578393,15.010893 41.598803,14.866041 39.725265,12.96737 34.965067,7.7294627 31.285744,3.6809115 28.162658,0.31857731 28.025437,0.25756734 c -0.01355,-0.006027 -0.02564,-0.008317 -0.03876,-0.0134358 z m 3.377424,1.33052037 c 2.164769,2.6587986 4.45249,5.0187465 6.352066,7.110677 3.13385,3.4512001 5.428422,6.0628901 5.503024,6.0920601 0.511958,0.20023 0.915248,0.102739 3.732219,-1.120197 3.20136,-1.389806 3.303913,-1.46822 2.535761,-1.933732 C 48.094946,10.879748 31.409203,1.530602 31.364105,1.5746519 Z M 51.057778,13.863596 c -0.03535,-0.0013 -0.07009,0.0017 -0.103354,0.0098 -0.57417,0.140617 -6.028167,2.480981 -6.189438,2.666875 -0.100439,0.115725 -0.182417,0.329876 -0.182417,0.475939 0,0.146062 1.472796,3.272625 3.201427,8.060644 1.72865,4.788019 3.234622,8.969018 3.347083,9.290905 0.112458,0.321886 0.247105,0.585493 0.299206,0.585493 0.0561,0 0.02421,-3.578755 0.02421,-10.033128 0,-9.961533 0.05219,-10.780941 -0.10475,-10.934074 -0.07639,-0.07455 -0.18592,-0.118723 -0.29197,-0.122473 z m -23.204732,3.493417 -0.267269,24.026596 c 0.02704,-0.01906 0.05234,-0.04332 0.07648,-0.07286 0.05717,-0.06997 3.219085,-5.486233 7.026444,-12.035957 4.882031,-8.398451 6.755734,-11.630885 6.756565,-11.84623 l 0.001,-0.305407 z m 15.423953,1.49152 c -0.227782,0 -0.737787,0.73031 -6.901248,11.332017 -3.775239,6.493743 -6.726591,11.400003 -6.727009,11.521293 -3.94e-4,0.121293 0.058,0.243708 0.129707,0.27182 0.07171,0.02811 0.271275,0.03106 0.443386,0.0062 0.172109,-0.02487 4.520793,-0.568489 10.097205,-1.323509 5.576408,-0.75502 9.591397,-1.374343 9.672497,-1.404714 0.0811,-0.03037 0.308447,-0.08392 0.372646,-0.221368 -0.0699,-0.497923 0.47935,0.03429 -3.576028,-11.420903 -3.210959,-8.897493 -3.268816,-8.760838 -3.511156,-8.760838 z m 4.874343,22.349171 c -0.177541,0 -4.536499,0.806173 -9.686748,1.505101 -6.50213,0.882389 -9.204421,1.108894 -9.377649,1.219649 -0.137213,0.08773 -0.53024,0.251188 -0.585051,0.391856 -0.143695,0.368797 -0.130871,7.5272 0.01395,7.791254 0.07606,0.138674 0.188706,0.192942 0.342096,0.164333 0.249507,-0.04654 19.213951,-10.695419 19.463411,-10.929051 0.13258,-0.124169 0.110196,-0.143142 -0.170013,-0.143142 z"
       id="path80"
       inkscape:connector-curvature="0"
       sodipodi:nodetypes="cccccccccccsccccsccssccccccsccccscccsccccccsccccccc" />
  </g>
</svg>
