<?xml version="1.0" encoding="UTF-8" standalone="no"?>
<!-- Created with Inkscape (http://www.inkscape.org/) -->

<svg
   xmlns:dc="http://purl.org/dc/elements/1.1/"
   xmlns:cc="http://creativecommons.org/ns#"
   xmlns:rdf="http://www.w3.org/1999/02/22-rdf-syntax-ns#"
   xmlns:svg="http://www.w3.org/2000/svg"
   xmlns="http://www.w3.org/2000/svg"
   xmlns:sodipodi="http://sodipodi.sourceforge.net/DTD/sodipodi-0.dtd"
   xmlns:inkscape="http://www.inkscape.org/namespaces/inkscape"
   width="53.406212mm"
   height="52.112789mm"
   viewBox="0 0 53.406212 52.112789"
   version="1.1"
   id="svg8"
   inkscape:version="0.92.5 (2060ec1f9f, 2020-04-08)"
   sodipodi:docname="random_character.svg">
  <defs
     id="defs2" />
  <sodipodi:namedview
     id="base"
     pagecolor="#ffffff"
     bordercolor="#666666"
     borderopacity="1.0"
     inkscape:pageopacity="0.0"
     inkscape:pageshadow="2"
     inkscape:zoom="1.4"
     inkscape:cx="165.7807"
     inkscape:cy="0.38993815"
     inkscape:document-units="mm"
     inkscape:current-layer="layer1"
     showgrid="false"
     fit-margin-top="0"
     fit-margin-left="0"
     fit-margin-right="0"
     fit-margin-bottom="0"
     inkscape:window-width="1920"
     inkscape:window-height="1043"
     inkscape:window-x="1920"
     inkscape:window-y="0"
     inkscape:window-maximized="1" />
  <metadata
     id="metadata5">
    <rdf:RDF>
      <cc:Work
         rdf:about="">
        <dc:format>image/svg+xml</dc:format>
        <dc:type
           rdf:resource="http://purl.org/dc/dcmitype/StillImage" />
        <dc:title></dc:title>
      </cc:Work>
    </rdf:RDF>
  </metadata>
  <g
     inkscape:label="Capa 1"
     inkscape:groupmode="layer"
     id="layer1"
     transform="translate(-0.50522897,-0.20431974)">
    <path
       style="fill:#000000;stroke-width:0.10303815"
       d="M 26.019634,0.24413051 26.066884,15.23982 C 12.598465,15.2146 12.456257,15.21195 12.427925,15.010893 c -0.02041,-0.144852 1.853128,-2.043523 6.613326,-7.2814305 3.679323,-4.048551 6.80241,-7.410886 6.93963,-7.47189599 0.01355,-0.006 0.02564,-0.0083 0.03876,-0.01344 z M 22.64221,1.5746515 c -2.164769,2.658798 -4.45249,5.018746 -6.352066,7.110677 -3.13385,3.4512005 -5.428421,6.0628905 -5.503023,6.0920605 -0.511958,0.20023 -0.9152483,0.102739 -3.7322173,-1.120197 -3.201358,-1.389806 -3.303911,-1.46822 -2.53576,-1.933732 C 5.9113717,10.879748 22.597112,1.5306015 22.64221,1.5746515 Z M 2.9485417,13.863596 c 0.03535,-0.0013 0.07009,0.0017 0.103354,0.0098 0.57417,0.140617 6.028164,2.480981 6.189435,2.666875 0.100438,0.115725 0.182416,0.329876 0.182416,0.475939 0,0.146062 -1.472795,3.272625 -3.201425,8.060644 -1.728649,4.788019 -3.23462,8.969017 -3.347081,9.290904 -0.112458,0.321887 -0.247105,0.585494 -0.299206,0.585494 -0.0561,0 -0.02421,-3.578754 -0.02421,-10.033128 0,-9.961533 -0.05219,-10.780941 0.10475,-10.934074 0.07639,-0.07455 0.18592,-0.118724 0.29197,-0.122474 z m 23.2047283,3.493417 0.267268,24.026599 c -0.02704,-0.0191 -0.05234,-0.0433 -0.07648,-0.0729 -0.05717,-0.07 -3.219085,-5.486234 -7.026444,-12.03596 -4.882031,-8.398451 -6.755734,-11.630885 -6.756565,-11.84623 l -0.001,-0.305407 z m -15.423953,1.49152 c 0.227782,0 0.737787,0.730311 6.901247,11.332018 3.775239,6.493742 6.726591,11.400001 6.727009,11.521291 3.97e-4,0.12129 -0.058,0.24371 -0.129707,0.27182 -0.07171,0.0281 -0.271274,0.0311 -0.443386,0.006 -0.172108,-0.0249 -4.520793,-0.56849 -10.097205,-1.323506 -5.5764063,-0.755021 -9.5913933,-1.374344 -9.6724933,-1.404716 -0.0811,-0.03037 -0.308446,-0.08392 -0.372645,-0.221366 0.0699,-0.497925 -0.47935,0.03429 3.576025,-11.420904 3.2109583,-8.897485 3.2688153,-8.76083 3.5111553,-8.76083 z M 5.8549757,41.197702 c 0.177541,0 4.5364973,0.80618 9.6867453,1.5051 6.50213,0.88239 9.204421,1.1089 9.377649,1.21965 0.137214,0.0877 0.53024,0.25119 0.585052,0.39186 0.143694,0.36879 0.13087,7.5272 -0.01395,7.79125 -0.07606,0.13868 -0.188706,0.19295 -0.342096,0.16434 -0.249506,-0.0465 -19.2139473,-10.69542 -19.4634073,-10.92905 -0.13258,-0.12417 -0.110196,-0.14315 0.170013,-0.14315 z"
       id="path80-3"
       inkscape:connector-curvature="0"
       sodipodi:nodetypes="cccccccccccsccccsccssccccccsccccscccsccccccsccccccc" />
    <path
       style="fill:#000000;stroke-width:0.26458341"
       d="M 27.585777,26.260953 V 0.23954826 l 1.521353,0.229026 c 5.383582,0.81044704 10.816436,3.73717304 13.849005,7.46057404 2.576597,3.1635557 3.484089,5.6892907 4.294137,11.9514687 0.434555,3.359355 0.697966,3.963013 3.86106,8.848365 2.187826,3.37906 2.658758,4.597506 2.238653,5.792068 -0.355415,1.010613 -1.762493,1.827036 -3.486412,2.022899 -2.49608,0.283599 -2.337867,0.09008 -2.542988,3.110507 -0.235563,3.468743 -0.820099,6.299813 -1.673386,8.104713 -0.908341,1.92134 -2.820961,3.86143 -4.170796,4.23071 -0.63009,0.17237 -3.654566,0.29012 -7.47448,0.291 l -6.416146,0.001 z m 15.516996,0.111724 c 1.844098,-1.124463 1.65096,-3.850142 -0.33151,-4.678471 -1.145,-0.478411 -1.920412,-0.336606 -2.935949,0.536923 -0.605682,0.520986 -0.740161,0.852098 -0.740161,1.822414 0,2.293543 2.077751,3.495895 4.00762,2.319134 z"
       id="path32-6"
       inkscape:connector-curvature="0"
       sodipodi:nodetypes="ccsscscasscccccsssc" />
  </g>
</svg>
