<?xml version="1.0" encoding="UTF-8" standalone="no"?>
<svg
   xmlns:dc="http://purl.org/dc/elements/1.1/"
   xmlns:cc="http://creativecommons.org/ns#"
   xmlns:rdf="http://www.w3.org/1999/02/22-rdf-syntax-ns#"
   xmlns:svg="http://www.w3.org/2000/svg"
   xmlns="http://www.w3.org/2000/svg"
   xmlns:sodipodi="http://sodipodi.sourceforge.net/DTD/sodipodi-0.dtd"
   xmlns:inkscape="http://www.inkscape.org/namespaces/inkscape"
   viewBox="0 0 915.65238 915.65238"
   version="1.1"
   id="svg4"
   sodipodi:docname="Search.svg"
   inkscape:version="0.92.5 (2060ec1f9f, 2020-04-08)">
  <metadata
     id="metadata10">
    <rdf:RDF>
      <cc:Work
         rdf:about="">
        <dc:format>image/svg+xml</dc:format>
        <dc:type
           rdf:resource="http://purl.org/dc/dcmitype/StillImage" />
        <dc:title></dc:title>
      </cc:Work>
    </rdf:RDF>
  </metadata>
  <defs
     id="defs8" />
  <sodipodi:namedview
     pagecolor="#ffffff"
     bordercolor="#666666"
     borderopacity="1"
     objecttolerance="10"
     gridtolerance="10"
     guidetolerance="10"
     inkscape:pageopacity="0"
     inkscape:pageshadow="2"
     inkscape:window-width="1848"
     inkscape:window-height="1016"
     id="namedview6"
     showgrid="false"
     inkscape:zoom="0.25773973"
     inkscape:cx="-516.53754"
     inkscape:cy="335.21422"
     inkscape:window-x="72"
     inkscape:window-y="1107"
     inkscape:window-maximized="1"
     inkscape:current-layer="svg4" />
  <path
     d="M 457.82617 1.546875 C 433.34392 1.546875 415.75396 1.7913615 399.98633 12.337891 C 384.21869 22.884421 377.71379 39.270788 369.86133 60.986328 C 349.94395 116.06732 290.51374 140.15496 236.47461 114.5625 C 214.93444 104.36129 200.14368 96.429263 181.37109 100.02539 C 162.5985 103.62152 151.52442 116.12599 133.82617 133.82422 C 116.12791 151.52251 103.62339 162.59643 100.02734 181.36914 C 96.431287 200.14184 104.3631 214.9343 114.56445 236.47461 C 140.15687 290.51376 116.06857 349.94413 60.988281 369.86133 C 39.272919 377.71377 22.88698 384.21899 12.339844 399.98633 C 1.7927086 415.75367 1.546875 433.34364 1.546875 457.82617 C 1.546875 482.30869 1.7924267 499.899 12.339844 515.66602 C 22.887262 531.43304 39.273135 537.93678 60.988281 545.78906 C 116.06895 565.70632 140.15686 625.13858 114.56445 679.17773 C 104.36315 700.71789 96.431157 715.50866 100.02734 734.28125 C 103.62352 753.05383 116.12802 764.12801 133.82617 781.82617 L 133.82617 781.82812 C 151.52315 799.52503 162.59728 812.02564 181.36719 815.62305 C 200.1371 819.22046 214.92724 811.29105 236.45898 801.09375 C 255.83992 791.91527 265.01318 788.85104 273.2168 788.89453 C 281.42041 788.93803 292.73557 792.43051 314.91016 801.90039 C 346.59899 815.43346 360.9608 830.04959 370.5918 856.68359 C 378.0791 877.38937 384.79801 893.51624 400.47656 903.65625 C 416.15511 913.79625 433.5437 914.10547 457.82617 914.10547 C 482.3087 914.10547 499.89866 913.85962 515.66602 903.3125 C 531.43339 892.76537 537.93867 876.37946 545.79102 854.66406 C 565.70817 799.58449 625.13881 775.49539 679.17773 801.08789 L 679.17969 801.08789 C 700.71991 811.28909 715.50865 819.22113 734.28125 815.625 C 753.05385 812.02886 764.12992 799.52441 781.82812 781.82617 C 799.52499 764.12927 812.02692 753.05502 815.625 734.28516 C 819.22307 715.5153 811.2931 700.72354 801.0957 679.19141 C 791.91707 659.81035 788.85133 650.63524 788.89453 642.43164 C 788.93773 634.22804 792.43058 622.91461 801.90039 600.74023 C 815.43344 569.05155 830.04926 554.69164 856.68359 545.06055 C 877.38942 537.57322 893.51625 530.85433 903.65625 515.17578 C 913.79624 499.49723 914.10547 482.10861 914.10547 457.82617 C 914.10547 433.34366 913.85961 415.75371 903.3125 399.98633 C 892.76538 384.21896 876.37954 377.71377 854.66406 369.86133 C 799.58448 349.94417 775.49552 290.51372 801.08789 236.47461 C 811.28921 214.93433 819.22101 200.14188 815.625 181.36914 C 812.02898 162.5964 799.52455 151.52253 781.82617 133.82422 C 764.12918 116.12728 753.05508 103.62473 734.28516 100.02734 C 715.51523 96.429956 700.72521 104.36133 679.19336 114.55859 C 659.81253 123.73707 650.63919 126.79935 642.43555 126.75586 C 634.2319 126.71236 622.91676 123.21987 600.74219 113.75 C 569.05286 100.2167 554.6915 85.602474 545.06055 58.96875 C 537.5733 38.262921 530.85435 22.136096 515.17578 11.996094 C 499.49721 1.8560927 482.10864 1.546875 457.82617 1.546875 z M 420.59961 253.95312 C 431.46941 254.03065 442.47317 255.15432 453.48633 257.37305 C 470.06742 260.71364 489.84773 268.49255 504.73438 277.52539 C 549.27188 304.54973 578.41952 350.15559 584.00781 401.5625 C 585.01202 410.80065 585.02141 427.86761 584.02734 436.89648 C 581.5792 459.13424 574.9732 479.97102 564.21094 499.4043 L 561.92773 503.52539 L 606.79883 548.35938 C 631.47803 573.01725 652.69157 594.60446 653.93945 596.33203 C 657.13632 600.75746 659.71217 606.62756 660.82617 612.02539 C 666.84385 641.18278 640.94985 666.9386 611.80078 660.78711 C 607.13158 659.80177 601.18082 657.28805 597.19922 654.62109 C 595.84587 653.71461 574.20108 632.48176 549.09961 607.43555 L 503.45898 561.89648 L 497.65039 565.13867 C 483.97412 572.77254 466.28755 579.02616 449.40625 582.19727 C 435.41319 584.82585 415.97509 585.55531 401.57812 583.99023 C 334.37829 576.6852 278.40699 529.25722 260.02148 464.04102 C 256.32368 450.9243 254.47956 438.42786 254.02148 423.38281 C 252.90438 386.69503 264.53254 350.17988 286.79492 320.46094 C 318.96783 277.51197 368.22693 253.57959 420.59961 253.95312 z M 419.91602 295.23242 C 387.3459 295.12398 355.69108 307.8214 332.10352 331.14062 C 302.73609 360.17377 289.73501 401.89132 297.39453 442.50586 C 306.74184 492.06973 345.4594 531.21933 394.93555 541.13672 C 404.65966 543.08592 408.95274 543.42078 421.87109 543.23438 C 430.96507 543.10315 434.97408 542.82215 439.71875 541.98438 C 466.30812 537.28984 487.87134 526.14011 506.83203 507.2832 C 525.10315 489.11218 536.69892 467.3524 541.42578 442.36523 C 544.58749 425.6522 544.00987 405.54873 539.90039 389.2168 C 536.86159 377.13942 530.301 362.07037 523.58203 351.73828 C 505.15808 323.40677 475.63817 303.60926 442.52344 297.37891 C 434.99752 295.96297 427.4322 295.25745 419.91602 295.23242 z "
     id="path2" />
</svg>
