<?xml version="1.0" encoding="UTF-8" standalone="no"?>
<svg
   xmlns:dc="http://purl.org/dc/elements/1.1/"
   xmlns:cc="http://creativecommons.org/ns#"
   xmlns:rdf="http://www.w3.org/1999/02/22-rdf-syntax-ns#"
   xmlns:svg="http://www.w3.org/2000/svg"
   xmlns="http://www.w3.org/2000/svg"
   xmlns:sodipodi="http://sodipodi.sourceforge.net/DTD/sodipodi-0.dtd"
   xmlns:inkscape="http://www.inkscape.org/namespaces/inkscape"
   viewBox="0 0 915.65238 915.65238"
   version="1.1"
   id="svg4"
   sodipodi:docname="Settings.svg"
   inkscape:version="0.92.5 (2060ec1f9f, 2020-04-08)">
  <metadata
     id="metadata10">
    <rdf:RDF>
      <cc:Work
         rdf:about="">
        <dc:format>image/svg+xml</dc:format>
        <dc:type
           rdf:resource="http://purl.org/dc/dcmitype/StillImage" />
        <dc:title></dc:title>
      </cc:Work>
    </rdf:RDF>
  </metadata>
  <defs
     id="defs8" />
  <sodipodi:namedview
     pagecolor="#ffffff"
     bordercolor="#666666"
     borderopacity="1"
     objecttolerance="10"
     gridtolerance="10"
     guidetolerance="10"
     inkscape:pageopacity="0"
     inkscape:pageshadow="2"
     inkscape:window-width="1848"
     inkscape:window-height="1016"
     id="namedview6"
     showgrid="false"
     inkscape:zoom="1.0309589"
     inkscape:cx="423.10188"
     inkscape:cy="460.17247"
     inkscape:window-x="72"
     inkscape:window-y="27"
     inkscape:window-maximized="1"
     inkscape:current-layer="svg4" />
  <path
     d="m 457.82617,1.546875 c -24.48225,0 -42.07221,0.2444865 -57.83984,10.791016 -15.76764,10.54653 -22.27254,26.932897 -30.125,48.648437 -19.91738,55.080992 -79.34759,79.168632 -133.38672,53.576172 -21.54017,-10.20121 -36.33093,-18.133237 -55.10352,-14.53711 -18.77259,3.59613 -29.84667,16.1006 -47.54492,33.79883 -17.69826,17.69829 -30.20278,28.77221 -33.79883,47.54492 -3.596053,18.7727 4.33576,33.56516 14.53711,55.10547 25.59242,54.03915 1.50412,113.46952 -53.576169,133.38672 -21.715362,7.85244 -38.101301,14.35766 -48.648437,30.125 -10.5471354,15.76734 -10.792969,33.35731 -10.792969,57.83984 0,24.48252 0.2455517,42.07283 10.792969,57.83985 10.547418,15.76702 26.933291,22.27076 48.648437,30.12304 55.080669,19.91726 79.168579,79.34952 53.576169,133.38867 -10.2013,21.54016 -18.133293,36.33093 -14.53711,55.10352 3.59618,18.77258 16.10068,29.84676 33.79883,47.54492 v 0.002 c 17.69698,17.69691 28.77111,30.19752 47.54102,33.79493 18.76991,3.59741 33.56005,-4.332 55.09179,-14.5293 19.38094,-9.17848 28.5542,-12.24271 36.75782,-12.19922 8.20361,0.0435 19.51877,3.53598 41.69336,13.00586 31.68883,13.53307 46.05064,28.1492 55.68164,54.7832 7.4873,20.70578 14.20621,36.83265 29.88476,46.97266 15.67855,10.14 33.06714,10.44922 57.34961,10.44922 24.48253,0 42.07249,-0.24585 57.83985,-10.79297 15.76737,-10.54713 22.27265,-26.93304 30.125,-48.64844 19.91715,-55.07957 79.34779,-79.16867 133.38671,-53.57617 h 0.002 c 21.54022,10.2012 36.32896,18.13324 55.10156,14.53711 18.7726,-3.59614 29.84867,-16.10059 47.54687,-33.79883 17.69687,-17.6969 30.1988,-28.77115 33.79688,-47.54101 3.59807,-18.76986 -4.3319,-33.56162 -14.5293,-55.09375 -9.17863,-19.38106 -12.24437,-28.55617 -12.20117,-36.75977 0.0432,-8.2036 3.53605,-19.51703 13.00586,-41.69141 13.53305,-31.68868 28.14887,-46.04859 54.7832,-55.67968 20.70583,-7.48733 36.83266,-14.20622 46.97266,-29.88477 10.13999,-15.67855 10.44922,-33.06717 10.44922,-57.34961 0,-24.48251 -0.24586,-42.07246 -10.79297,-57.83984 -10.54712,-15.76737 -26.93296,-22.27256 -48.64844,-30.125 -55.07958,-19.91716 -79.16854,-79.34761 -53.57617,-133.38672 10.20132,-21.54028 18.13312,-36.33273 14.53711,-55.10547 -3.59602,-18.77274 -16.10045,-29.84661 -33.79883,-47.54492 -17.69699,-17.69694 -28.77109,-30.19949 -47.54101,-33.79688 -18.76993,-3.597384 -33.55995,4.33399 -55.0918,14.53125 -19.38083,9.17848 -28.55417,12.24076 -36.75781,12.19727 C 634.2319,126.71236 622.91676,123.21987 600.74219,113.75 569.05286,100.2167 554.6915,85.602474 545.06055,58.96875 537.5733,38.262921 530.85435,22.136096 515.17578,11.996094 499.49721,1.8560927 482.10864,1.546875 457.82617,1.546875 Z M 355.5625,180.61328 l 40.74219,40.81445 40.74219,40.81641 -17.72071,17.4707 c -30.3409,29.91358 -45.22782,40.90156 -57.32422,42.31446 -4.46272,0.52124 -5.14484,0.87016 -5.88867,3.0039 -0.81116,2.32688 0.74619,4.00256 43.25586,46.50586 34.10714,34.10202 44.40481,43.91666 45.45117,43.32032 0.74408,-0.42407 9.6663,-8.78833 19.82617,-18.58594 10.15988,-9.79761 21.34306,-20.49752 24.85157,-23.7793 l 6.3789,-5.9668 -1.62695,-4.1289 c -5.81836,-14.7621 -7.529,-42.52786 -3.73047,-60.57422 10.05722,-47.78072 46.52094,-83.66578 94.04688,-92.55664 4.41998,-0.82687 12.85174,-1.45171 20.41015,-1.51367 14.59491,-0.11964 16.77404,0.59181 19.14063,6.25586 2.58334,6.18281 2.36307,6.47253 -29.52539,38.47461 l -29.66992,29.77539 2.81445,10.0957 c 4.77649,17.13696 7.60084,27.37733 10.66797,38.67969 l 2.94922,10.86328 3.15625,0.83594 c 17.33393,4.58553 52.67247,13.32031 53.89062,13.32031 0.85624,0 14.25322,-12.72995 29.89844,-28.41016 15.5909,-15.62577 29.42434,-28.98269 30.74023,-29.68164 5.19263,-2.7581 10.92356,-1.04469 13.56055,4.05469 1.82715,3.53331 1.78485,23.52351 -0.0723,34.10156 -7.34376,41.83035 -37.33793,77.13782 -77.01562,90.6582 -24.17236,8.23686 -52.93931,8.56183 -75.21875,0.85157 l -5.26367,-1.82032 -4.50196,4.90821 c -4.2904,4.67852 -9.16782,9.81994 -24.68359,26.02734 l -6.9082,7.2168 91.99218,92.01758 c 50.59559,50.60898 93.45232,93.82698 95.23633,96.04101 4.82454,5.98747 9.32329,16.21663 10.48828,23.8457 3.18427,20.85257 -5.85763,40.54321 -23.75586,51.74024 -8.27838,5.1789 -24.11842,8.54035 -33.46289,7.09961 -5.24638,-0.80884 -14.27249,-4.15058 -19.49218,-7.21485 -4.08818,-2.40002 -26.81606,-24.58744 -98.4043,-96.06054 l -93.08984,-92.93946 -16.31641,17.09766 c -8.97429,9.40304 -20.11195,21.07534 -24.75,25.93945 -4.63806,4.86411 -8.63329,9.05015 -8.87695,9.30274 -4.06571,4.21491 -22.26762,23.37888 -33.22461,34.98047 -7.79688,8.25557 -18.18826,19.2155 -23.0918,24.35547 -4.90354,5.13999 -17.22173,18.11718 -27.37305,28.83789 -23.55406,24.87514 -31.47085,32.56259 -38.10547,36.99414 -11.76389,7.85765 -26.03554,11.57376 -37.28906,9.70898 -14.64648,-2.42696 -29.06315,-13.4097 -36.26758,-27.62695 -8.35984,-16.49731 -5.56474,-39.0464 6.86524,-55.40235 4.77274,-6.28021 23.20177,-24.45398 74.58984,-73.56054 10.69561,-10.22074 21.69347,-20.77685 24.44141,-23.45703 2.74795,-2.68017 12.93428,-12.44825 22.63476,-21.70704 20.14093,-19.22384 38.29302,-36.72562 54.64453,-52.68554 l 11.31446,-11.04297 -44.5332,-44.77539 c -37.43055,-37.63348 -44.90586,-44.75642 -46.86524,-44.65625 -3.87823,0.19828 -21.98238,9.69526 -30.10547,15.79297 -8.88458,6.66934 -19.47953,17.62053 -24.67773,25.50781 -7.93198,12.03526 -14.91387,30.6238 -16.42383,43.72656 -1.30769,11.3476 -3.51025,15.01705 -9.60352,16.00586 -3.55908,0.57756 -6.72579,-0.97619 -8.9707,-4.40234 -2.40042,-3.66351 -6.5879,-20.21851 -8.09375,-31.9961 -4.21529,-32.96869 3.35282,-65.88172 22.38672,-97.35937 4.78656,-7.91585 11.1581,-17.04344 15.57422,-22.31055 1.33898,-1.59698 3.48588,-6.04157 4.77148,-9.87695 3.35913,-10.02146 7.12383,-15.39938 18.83985,-26.91016 7.64864,-7.51466 12.3901,-11.3519 18.06054,-14.61914 7.66568,-4.41686 7.68812,-4.44014 7.70703,-8.03711 0.0259,-4.91517 2.35605,-11.39102 6.1543,-17.09765 1.74155,-2.61657 3.79916,-5.70439 4.57031,-6.86133 3.12047,-4.68158 17.56092,-20.29637 32.89063,-35.56641 z"
     id="path2"
     inkscape:connector-curvature="0"
     sodipodi:nodetypes="ssccscsccsssccsccscccsssscccssscscssssccsssccccsscccccsscscccscssccccccsscccscccccccsscccccccsccccscscsccccsssccssccsccsscc" />
</svg>
