<?xml version="1.0" encoding="UTF-8" standalone="no"?>
<!-- Created with Inkscape (http://www.inkscape.org/) -->

<svg
   xmlns:dc="http://purl.org/dc/elements/1.1/"
   xmlns:cc="http://creativecommons.org/ns#"
   xmlns:rdf="http://www.w3.org/1999/02/22-rdf-syntax-ns#"
   xmlns:svg="http://www.w3.org/2000/svg"
   xmlns="http://www.w3.org/2000/svg"
   xmlns:sodipodi="http://sodipodi.sourceforge.net/DTD/sodipodi-0.dtd"
   xmlns:inkscape="http://www.inkscape.org/namespaces/inkscape"
   width="979.34302mm"
   height="439.00266mm"
   viewBox="0 0 3701.4539 1659.2226"
   id="svg2"
   version="1.1"
   inkscape:version="0.92.5 (2060ec1f9f, 2020-04-08)"
   sodipodi:docname="ThinkMachine_logo_fenix.svg"
   inkscape:export-filename="./think_machine_logo_fenix.png"
   inkscape:export-xdpi="10"
   inkscape:export-ydpi="10">
  <defs
     id="defs4">
    <filter
       style="color-interpolation-filters:sRGB"
       height="1.4"
       width="1.4"
       y="-0.2"
       x="-0.2"
       inkscape:label="Outline"
       id="filter4594">
      <feGaussianBlur
         in="SourceAlpha"
         stdDeviation="20"
         result="blur1"
         id="feGaussianBlur4596" />
      <feComposite
         in="blur1"
         in2="SourceGraphic"
         operator="out"
         result="composite1"
         id="feComposite4598" />
      <feColorMatrix
         values="1 0 0 0 0 0 1 0 0 0 0 0 1 0 0 0 0 0 100 -12.1 "
         result="colormatrix1"
         id="feColorMatrix4600" />
      <feGaussianBlur
         stdDeviation="3.4"
         result="blur2"
         id="feGaussianBlur4602" />
      <feComposite
         in="SourceGraphic"
         in2="blur2"
         operator="atop"
         result="composite2"
         id="feComposite4604" />
      <feColorMatrix
         values="1 0 0 0 0 0 1 0 0 0 0 0 1 0 0 0 0 0 100 -12.2 "
         result="colormatrix2"
         id="feColorMatrix4606" />
      <feGaussianBlur
         stdDeviation="1"
         result="blur3"
         id="feGaussianBlur4608" />
      <feColorMatrix
         values="1 0 0 0 0 0 1 0 0 0 0 0 1 0 0 0 0 0 5 -1 "
         result="colormatrix3"
         id="feColorMatrix4610" />
      <feFlood
         flood-opacity="1"
         flood-color="rgb(0,0,0)"
         result="flood"
         id="feFlood4612" />
      <feComposite
         in="flood"
         in2="colormatrix3"
         operator="in"
         result="composite3"
         id="feComposite4614" />
      <feComposite
         in="SourceGraphic"
         in2="colormatrix3"
         operator="out"
         result="composite4"
         id="feComposite4616" />
      <feComposite
         in="composite4"
         in2="composite3"
         k2="1"
         k3="1"
         operator="arithmetic"
         result="composite5"
         id="feComposite4618"
         k1="0"
         k4="0" />
    </filter>
    <clipPath
       clipPathUnits="userSpaceOnUse"
       id="clipPath4168">
      <path
         sodipodi:nodetypes="cscccccssscsccccssccsscsscccsscsssscccccccscsscsscsscscscscsscssssscsscscccssssssssscsccsscscssccsssscscsscsssscsscsssssssssscsscsscssscsssssscsssscsscccsscsscsssscsscsscsssscscscsssccccsscsccccsc"
         style="fill:#000000"
         d="m 1097.7617,591.11079 c -3.6112,-9.4558 -11.5156,-20.27075 -20.0425,-27.42248 l -14.0795,-11.80894 c 9.9602,-19.11813 -7.903,-25.59923 -11.9912,-20.73696 14.9324,6.18533 12.8533,18.82363 -3.4734,21.11458 -6.8589,0.96265 -9.6297,4.49246 -13.7449,17.50956 -2.835,8.96726 -6.8176,16.31216 -8.8506,16.32212 -9.4912,0.045 -23.8528,-23.10714 -34.09133,-54.96164 -7.1311,-22.18644 -10.7577,-27.4897 -18.7983,-27.4897 -9.46699,0 -17.5616,11.78862 -20.4221,29.74177 l -2.6522,16.64732 -4.45532,-10.30859 c -7.01415,-16.22918 -6.43024,-53.43776 1.01694,-64.80729 4.91548,-7.50462 5.37418,-10.5789 2.15638,-14.45599 -5.87999,-7.08496 -11.60391,-6.12171 -23.59889,3.97164 -12.21578,10.27877 -13.39604,6.84365 -5.41808,-15.76844 2.83477,-8.03497 5.15426,-15.18765 5.15426,-15.89504 0,-0.70669 -25.90054,-1.22414 -57.55665,-1.14851 -55.27523,0.13233 -57.14804,0.361 -47.248,5.77073 5.6697,3.09824 17.68339,5.65315 26.69673,5.67753 18.0792,0.045 19.10372,3.18294 4.56856,13.97669 -8.42747,6.25834 -13.19556,6.90558 -41.01791,5.56786 -51.27644,-2.46559 -102.95689,-2.11382 -113.29538,0.77124 -5.30896,1.48133 -16.56151,9.06181 -25.00556,16.84539 -16.1733,14.9079 -17.42841,10.16417 -2.61492,-9.88261 7.08748,-9.59124 25.30846,-20.21577 59.6087,-34.75725 6.7594,-2.86573 0.15252,-3.69152 -30.9891,-3.87457 l -39.5793,-0.23191 -17.11806,14.17478 c -31.74999,26.29087 -82.27272,57.54696 -86.38013,53.43945 -0.87428,-0.87429 2.64999,-9.18342 7.83191,-18.46448 16.35334,-29.29052 10.63562,-32.04075 -51.96513,-24.99553 -41.9056,4.71608 -61.7254,10.9195 -86.92548,27.20717 -11.72358,7.57734 -21.31562,12.5426 -21.31562,11.0342 0,-6.82674 27.47515,-33.71241 52.04701,-50.93042 l 26.98611,-18.90971 v -23.76738 -23.76759 l -11.16782,-0.52665 c -17.52677,-0.82671 -51.76114,0.80862 -58.71188,2.80298 -5.34604,1.53433 -6.20389,5.04071 -5.61805,22.9617 0.38072,11.63294 0.51421,22.97392 0.29675,25.20227 -0.29245,2.99568 -30.61192,4.37928 -116.36765,5.31001 -97.82532,1.06115 -118.25765,2.15144 -130.57637,6.96378 -15.69493,6.13147 -17.44172,4.26009 -9.78458,-10.48247 6.77867,-13.05111 18.63912,-20.95085 70.38763,-46.882 24.94305,-12.49909 46.27039,-25.12105 47.39383,-28.04894 4.2049,-10.95798 -7.20059,-15.55981 -47.40535,-19.12714 -67.26583,-5.96833 -117.70631,2.62687 -132.356575,22.5538 -5.26623,7.1629 -5.29996,7.14752 -2.94549,-1.34477 4.5347,-16.3546 23.010665,-30.34501 63.535825,-48.11038 38.72058,-16.97421 57.93754,-30.24037 53.71113,-37.07883 -1.32597,-2.14544 -12.12584,-0.17898 -28.77257,5.24061 -20.84435,6.78533 -32.26386,8.46043 -52.42136,7.68975 -45.690785,-1.74712 -63.458775,-1.50624 -68.724415,0.93093 -3.74477,1.73366 -7.033924,-1.57826 -12.026721,-12.1094 -3.779875,-7.97255 -10.738375,-16.51171 -15.46299,-18.97595 -13.441571,-7.01047 -49.911436,-2.6418 -89.941012,10.77384 -19.514556,6.54014 -36.254232,11.12435 -37.199202,10.18717 -3.86731,-3.83593 27.054604,-25.92876 56.344217,-40.25675 30.903906,-15.11735 107.162018,-46.66633 112.798998,-46.66633 1.60025,0 1.27348,3.05711 -0.72595,6.7936 -2.88782,5.39598 -2.20569,8.22386 3.31533,13.74486 13.72923,13.72923 55.688855,7.00788 74.655335,-11.95854 13.85907,-13.85901 14.16324,-20.01921 1.60854,-32.57391 -19.15489,-19.15498 -77.853705,-26.69684 -162.397517,-20.86564 -46.829746,3.22993 -118.379203,12.9521 -142.296063,19.33516 -6.26268,1.67137 -6.174,1.22539 1.00001,-5.02575 9.96464,-8.68308 40.56582,-20.26983 69.442522,-26.29344 60.076646,-12.53194 79.258131,-13.44961 286.924318,-13.72719 197.66406,-0.26384 207.09508,-0.56512 228.50862,-7.29984 12.28448,-3.86323 34.31911,-8.0892 48.96614,-9.3909 l 26.63071,-2.366731 v 10.570311 10.57031 l 18.04012,-2.08598 c 50.20362,-5.80515 76.86525,-15.20444 86.99922,-30.670831 5.4928,-8.38286 4.12369,-22.45943 -2.18428,-22.45943 -1.76254,0 -3.2047,-1.36275 -3.2047,-3.02834 0,-1.66558 7.34496,-4.87388 16.32214,-7.12974 8.97709,-2.25585 34.10452,-9.636659 55.83855,-16.401725 34.67348,-10.792846 44.14899,-12.340543 77.31494,-12.628542 44.23158,-0.383927 57.45939,3.335366 79.40197,22.326477 8.53165,7.38409 16.96426,13.4256 18.73937,13.4256 4.33697,0 4.08481,-9.15796 -0.48828,-17.701289 -5.20037,-9.716961 -1.51239,-11.752202 8.91512,-4.919865 12.07937,7.914684 14.44372,15.802404 16.80027,56.046034 1.11662,19.073891 2.92584,37.012551 4.01984,39.863661 2.72211,7.0936 35.02839,14.79435 40.23268,9.59012 2.21892,-2.21893 15.90996,-3.84556 32.36614,-3.84556 h 28.5209 v 15.83547 c 0,15.54759 0.1724,15.79323 9.4496,13.51213 14.11872,-3.47127 23.90352,-10.83306 35.28952,-26.55086 11.867,-16.38203 13.0873,-30.08113 3.456,-38.79741 -6.2699,-5.674231 -7.4184,-5.724401 -15.1449,-0.66138 -7.5015,4.9151 -8.5699,4.93277 -10.3968,0.1721 -1.12,-2.918371 -2.0361,-7.606521 -2.0361,-10.418101 0,-9.53893 89.9314,-93.97638 100.091,-93.97638 1.565,0 -3.3058,9.517523 -10.8242,21.15002 -7.5185,11.63261 -13.67,23.021277 -13.67,25.30827 0,2.287 3.2049,8.23246 7.1218,13.21212 10.1356,12.88528 24.9702,12.2111 37.9896,-1.72629 5.5387,-5.92916 10.805,-10.04561 11.7029,-9.14776 2.2389,2.23898 -5.3479,23.36431 -8.3911,23.36431 -1.3462,0 -7.3802,4.82236 -13.4087,10.7164 -11.9489,11.68233 -13.8241,20.428051 -5.8065,27.082011 2.8348,2.35268 5.1542,8.25603 5.1542,13.11847 0,4.94885 4.1334,13.15516 9.3893,18.64116 7.7094,8.04696 8.5024,10.34845 4.432,12.8641 -7.6042,4.69959 4.1581,15.76379 25.0385,23.55299 l 17.2906,6.44989 13.1684,-19.72 c 13.4668,-20.16654 39.7346,-41.16957 60.3985,-48.29295 6.1423,-2.11735 11.1282,-5.63143 11.0797,-7.80891 -0.034,-2.17748 -5.4603,-12.392071 -12.0267,-22.699071 -19.1971,-30.13323 -15.5684,-53.562087 10.2378,-66.099693 15.1959,-7.382732 24.2529,-6.604358 16.2518,1.396728 -5.8953,5.895419 -4.985,21.899295 1.6214,28.505705 11.2687,11.26883 32.1108,15.70194 32.1108,6.83018 0,-8.04027 11.6947,-6.06166 20.6757,3.49822 15.6723,16.68237 69.649,26.82561 171.7526,32.27559 107.4141,5.73336 390.5282,8.19023 453.6394,3.93662 56.2306,-3.78984 57.3269,-3.72721 118.4712,6.770851 33.9436,5.82791 78.76,12.79297 99.5922,15.47805 l 37.8768,4.88192 -68.7244,-2.43898 c -128.9883,-4.57773 -137.5455,-4.13208 -164.3425,8.55988 -17.6178,8.34435 -23.1684,12.62162 -22.2962,17.18112 1.0374,5.42078 7.45,6.297 59.8937,8.18241 67.0078,2.40908 82.4618,4.19494 117.4643,13.57453 26.7287,7.16246 70.3066,27.42969 63.7957,29.67025 -2.1454,0.7384 -22.2474,-1.84747 -44.6709,-5.74592 -60.6184,-10.53894 -109.8984,-12.077 -145.5749,-4.54341 -18.3438,3.87353 -29.2078,7.814 -29.2078,10.59375 0,2.43434 6.0651,7.84639 13.4776,12.02684 24.597,13.87113 17.4381,16.03219 -17.5806,5.30706 -20.9021,-6.40164 -44.9525,-11.03271 -63.3446,-12.1975 -31.3652,-1.9862 -61.4106,0.88449 -61.4106,5.86744 0,1.6401 8.8912,4.80367 19.7583,7.03018 10.8669,2.22652 36.7079,10.25899 57.4242,17.84988 29.3473,10.75344 45.0266,14.37997 70.9953,16.42065 18.3311,1.44056 35.0386,3.67547 37.1279,4.96664 11.5475,7.13687 -4.4001,10.47235 -115.4655,24.15006 -78.5454,9.67302 -105.3537,16.69946 -106.9702,28.03726 -1.8891,13.24951 16.2208,22.69648 81.3243,42.42212 32.2182,9.76195 37.274,12.4579 53.1693,28.35327 9.6611,9.66112 15.842,18.14027 13.7352,18.84253 -2.1067,0.70215 -12.8895,-1.77171 -23.9615,-5.49757 -40.0012,-13.46071 -117.5124,-16.88158 -192.8012,-8.50902 l -18.0401,2.00613 v 21.9395 21.93951 l -59.2748,0.42124 c -32.6011,0.23192 -75.511,1.39122 -95.3551,2.57718 l -36.0803,2.15607 11.5625,6.30568 c 7.0252,3.83133 12.8011,5.06722 14.719,3.14942 1.9178,-1.91776 10.8649,-0.50743 22.7996,3.59575 13.6032,4.6759 32.8509,7.31005 62.596,8.56629 38.4444,1.62369 41.8686,2.26292 32.623,6.08856 -17.3446,7.17683 -95.9656,19.02587 -127.9058,19.2766 -16.5765,0.13002 -36.7313,-1.56139 -44.7883,-3.75914 -17.3051,-4.72034 -36.0523,-20.15658 -42.042,-34.61691 -3.5599,-8.59405 -6.2223,-10.3244 -15.8864,-10.3244 -6.3853,0 -11.6099,0.71463 -11.6099,1.58929 0,0.87429 3.254,10.28615 7.2312,20.91581 5.6866,15.1991 6.7344,23.29952 4.9069,37.92751 -1.2781,10.23018 -3.6536,18.60048 -5.2789,18.60048 -1.6252,0 -6.2272,-4.59528 -10.2265,-10.21201 -8.6622,-12.16472 -40.4135,-27.737 -73.9476,-36.26697 -24.5728,-6.25057 -49.8253,-17.84559 -49.8253,-22.87827 0,-3.80943 2.4792,-3.54056 22.0225,2.38818 9.2775,2.81435 21.3689,5.11714 26.8697,5.11714 8.4066,0 9.8265,-1.23301 8.9035,-7.73161 -1.0283,-7.23774 -3.4372,-7.92689 -37.7328,-10.79302 -20.1491,-1.68397 -39.0913,-2.11908 -42.0937,-0.96719 -3.8764,1.48756 -5.4589,6.60867 -5.4589,17.66559 v 15.57083 h -15.8925 c -17.7444,0 -16.9678,-2.93931 -8.4907,32.1314 3.6302,15.01841 3.015,15.11127 -26.8613,4.05441 -13.4543,-4.97931 -15.7431,-5.03301 -20.2995,-0.47699 -4.5565,4.55641 -4.4987,6.80398 0.512,19.9345 3.1063,8.13935 6.5862,22.5305 7.7335,31.98011 l 2.0863,17.18112 -9.2128,-11.23574 c -10.1968,-12.43616 -25.1978,-21.40842 -35.7933,-21.40842 -8.765,0 -18.1136,10.02119 -28.3428,30.38137 -9.3119,18.53528 -26.2151,41.77922 -30.382,41.77922 -1.5748,0 -5.5467,-7.02601 -8.8261,-15.61351 z M 1053.8632,79.116359 c 2.6003,-6.77594 0.178,-9.15863 -6.6471,-6.53936 -8.5838,3.2938 -10.2151,11.8419 -2.26,11.8419 3.7799,0 7.788,-2.38609 8.9071,-5.30254 z"
         id="path4170"
         inkscape:connector-curvature="0" />
    </clipPath>
    <clipPath
       clipPathUnits="userSpaceOnUse"
       id="clipPath4199">
      <path
         sodipodi:nodetypes="cscccccssscsccccssccsscsscccsscsssscccccccscsscsscsscscscscsscssssscsscscccssssssssscsccsscscssccsssscscsscsssscsscsssssssssscsscsscssscsssssscsssscsscccsscsscsssscsscsscsssscscscsssccccsscsccccsc"
         style="fill:#000000"
         d="m 1251.9118,576.2742 c -3.5284,-9.23899 -11.2516,-19.80602 -19.583,-26.79374 l -13.7567,-11.53814 c 9.7319,-18.67985 -7.7217,-25.01234 -11.7162,-20.26153 14.59,6.04348 12.5586,18.392 -3.3938,20.63047 -6.7016,0.94053 -9.4089,4.3894 -13.4297,17.10803 -2.77,8.7617 -6.6613,15.93819 -8.6477,15.94796 -9.2736,0.044 -23.3059,-22.57739 -33.3096,-53.70151 -6.9676,-21.67769 -10.5111,-26.85939 -18.3672,-26.85939 -9.2499,0 -17.1589,11.5183 -19.9538,29.05986 l -2.5914,16.2656 -4.3533,-10.07224 c -6.8533,-15.85709 -6.2827,-52.21245 0.9937,-63.32136 4.8028,-7.33253 5.251,-10.33634 2.107,-14.12454 -5.7452,-6.92245 -11.338,-5.98134 -23.0579,3.88063 -11.9357,10.04312 -13.0889,6.68669 -5.2938,-15.40695 2.7698,-7.85067 5.036,-14.83937 5.036,-15.53055 0,-0.69049 -25.3066,-1.19603 -56.2369,-1.12216 -54.00783,0.12926 -55.83773,0.35272 -46.16473,5.63838 5.53971,3.02726 17.278,5.52358 26.08463,5.54742 17.6647,0.044 18.6657,3.10992 4.4639,13.65614 -8.2343,6.1149 -12.89313,6.74726 -40.07753,5.44024 -50.1007,-2.40907 -100.59619,-2.06534 -110.69763,0.75351 -5.18723,1.44744 -16.18178,8.85413 -24.43222,16.45916 -15.80246,14.56608 -17.0288,9.93115 -2.55496,-9.656 6.92496,-9.37129 24.72817,-19.75219 58.24195,-33.96027 6.60441,-2.80009 0.14902,-3.60686 -30.27857,-3.78576 l -38.67179,-0.22658 -16.72556,13.84979 c -31.02201,25.68799 -80.38632,56.22743 -84.39956,52.21411 -0.85424,-0.85426 2.58923,-8.97284 7.65234,-18.04114 15.97838,-28.61891 10.39175,-31.30605 -50.77364,-24.42239 -40.94476,4.60797 -60.31012,10.66913 -84.9324,26.58338 -11.45477,7.40356 -20.82688,12.25501 -20.82688,10.7812 0,-6.67027 26.84518,-32.93942 50.85364,-49.76263 l 26.36736,-18.47613 v -23.22245 -23.22264 l -10.91176,-0.51462 c -17.1249,-0.80775 -50.57433,0.79016 -57.36569,2.73873 -5.22347,1.49912 -6.06165,4.92512 -5.48924,22.43522 0.37199,11.36627 0.50242,22.44714 0.28995,24.62444 -0.28575,2.92702 -29.91003,4.27889 -113.6995,5.18825 -95.58232,1.03677 -115.54616,2.10207 -127.58243,6.80413 -15.33507,5.99082 -17.04181,4.16242 -9.56023,-10.24215 6.62324,-12.75185 18.21175,-20.47042 68.77373,-45.80706 24.37114,-12.21251 45.20947,-24.54501 46.30716,-27.40577 4.10848,-10.70675 -7.03549,-15.20304 -46.31841,-18.68864 -65.72352,-5.83146 -115.00747,2.56667 -129.32183,22.03667 -5.14548,6.99866 -5.17844,6.98362 -2.87795,-1.31387 4.43072,-15.97961 22.48307,-29.64933 62.07904,-47.00729 37.83277,-16.58501 56.60911,-29.54703 52.47961,-36.22873 -1.29557,-2.09621 -11.84782,-0.1748 -28.11286,5.12053 -20.36642,6.62973 -31.52409,8.26642 -51.21941,7.51339 -44.64316,-1.70704 -62.00375,-1.47166 -67.14866,0.90956 -3.65891,1.69394 -6.87264,-1.54202 -11.75096,-11.83175 -3.69321,-7.7897 -10.49216,-16.13311 -15.10845,-18.54081 -13.13337,-6.84976 -48.76703,-2.58123 -87.87878,10.52677 -19.067115,6.39024 -35.422975,10.86933 -36.346275,9.95362 -3.77863,-3.74795 26.434275,-25.33429 55.052315,-39.33376 30.19532,-14.77068 104.70494,-45.59631 110.21267,-45.59631 1.56356,0 1.24428,2.98701 -0.70931,6.63783 -2.8216,5.27228 -2.15511,8.03534 3.23932,13.42975 13.41444,13.41441 54.41198,6.84722 72.94358,-11.6844 13.5413,-13.54124 13.8385,-19.56019 1.57166,-31.82703 -18.71569,-18.7158 -76.06862,-26.08468 -158.67395,-20.38718 -45.75601,3.15584 -115.664926,12.65513 -139.033414,18.89177 -6.119085,1.63308 -6.032439,1.19731 0.977081,-4.91046 9.736174,-8.48401 39.635708,-19.80504 67.850308,-25.69053 58.699165,-12.24466 77.440845,-13.14132 280.345525,-13.41246 193.13189,-0.25784 202.34667,-0.55224 223.26923,-7.13252 12.00282,-3.77462 33.53221,-7.903721 47.84341,-9.175581 l 26.0201,-2.31243 v 10.327931 10.32794 l 17.62648,-2.03817 c 49.05252,-5.672 75.10284,-14.855781 85.00445,-29.967561 5.36686,-8.19069 4.02914,-21.94444 -2.1342,-21.94444 -1.72213,0 -3.13122,-1.33155 -3.13122,-2.95896 0,-1.62731 7.17655,-4.76205 15.9479,-6.96622 8.77125,-2.20418 33.32255,-9.415749 54.55824,-16.025636 33.87847,-10.545434 43.13672,-12.057647 75.54222,-12.339044 43.21737,-0.375097 56.14187,3.258924 77.58137,21.81458 8.3361,7.2148 16.57533,13.11777 18.30973,13.11777 4.2376,0 3.9912,-8.94802 -0.4771,-17.29543 -5.0812,-9.494105 -1.4777,-11.482738 8.7107,-4.806996 11.8024,7.733129 14.1125,15.440076 16.4151,54.760946 1.091,18.636561 2.8587,36.163851 3.9276,38.949581 2.6597,6.93095 34.2253,14.45518 39.3102,9.37031 2.1681,-2.16812 15.5452,-3.75743 31.6241,-3.75743 h 27.8669 v 15.47242 c 0,15.19111 0.1684,15.43108 9.2329,13.20228 13.795,-3.39171 23.3554,-10.58471 34.4804,-25.94212 11.5949,-16.00639 12.7872,-29.39138 3.3767,-37.907831 -6.1261,-5.5441 -7.2483,-5.59315 -14.7976,-0.64614 -7.3295,4.802411 -8.3734,4.819601 -10.1584,0.16816 -1.0944,-2.85149 -1.9894,-7.43219 -1.9894,-10.17923 0,-9.32028 87.8693,-91.82165 97.796,-91.82165 1.5291,0 -3.23,9.299276 -10.576,20.665059 -7.3461,11.36588 -13.3566,22.493452 -13.3566,24.728015 0,2.234566 3.1314,8.043646 6.9585,12.909166 9.9032,12.58986 24.3977,11.93112 37.1186,-1.68672 5.4117,-5.79325 10.5572,-9.815268 11.4345,-8.93805 2.1876,2.18766 -5.2252,22.82859 -8.1987,22.82859 -1.3153,0 -7.2109,4.71182 -13.1012,10.47068 -11.6749,11.41454 -13.5071,19.95971 -5.6734,26.461151 2.7698,2.29866 5.036,8.0667 5.036,12.81761 0,4.83543 4.0387,12.85357 9.1741,18.21378 7.5326,7.8624 8.3074,10.11113 4.3303,12.56915 -7.4298,4.59184 4.0628,15.40235 24.4644,23.01296 l 16.8942,6.30201 12.8665,-19.26785 c 13.158,-19.7042 38.8235,-40.22563 59.0136,-47.1857 6.0015,-2.06876 10.873,-5.50228 10.8257,-7.62986 -0.033,-2.12757 -5.3351,-12.107961 -11.751,-22.178641 -18.7569,-29.44228 -15.2114,-52.333991 10.0031,-64.584121 14.8475,-7.213425 23.6968,-6.452872 15.8791,1.364773 -5.7601,5.760227 -4.8707,21.397179 1.5843,27.852098 11.0103,11.01043 31.3745,15.34188 31.3745,6.6736 0,-7.85595 11.4266,-5.92272 20.2016,3.41799 15.313,16.2998 68.0521,26.21053 167.8146,31.53556 104.9512,5.60185 381.5739,8.00241 443.2381,3.84634 54.9413,-3.703 56.0124,-3.64174 115.7548,6.61556 33.1653,5.694271 76.9541,12.499671 97.3087,15.123211 l 37.0083,4.76996 -67.1487,-2.38308 c -126.0307,-4.47274 -134.3917,-4.03735 -160.5743,8.36364 -17.2138,8.15307 -22.6372,12.3322 -21.785,16.78716 1.0136,5.29651 7.2792,6.15262 58.5204,7.99479 65.4714,2.35386 80.5711,4.09881 114.771,13.26335 26.1159,6.99817 68.6946,26.80077 62.333,28.9899 -2.0962,0.72147 -21.7373,-1.80514 -43.6467,-5.61415 -59.2285,-10.29726 -107.3785,-11.80009 -142.237,-4.43923 -17.9232,3.78469 -28.5381,7.63484 -28.5381,10.3508 0,2.37858 5.926,7.66649 13.1685,11.75114 24.0331,13.55306 17.0383,15.6646 -17.1775,5.18532 -20.4228,-6.25482 -43.9218,-10.77974 -61.8922,-11.91783 -30.646,-1.94066 -60.0025,0.86422 -60.0025,5.73297 0,1.60249 8.6873,4.69346 19.3053,6.869 10.6177,2.17545 35.8662,10.02368 56.1075,17.44053 28.6744,10.50694 43.9942,14.05029 69.3675,16.0442 17.9108,1.40747 34.2352,3.59122 36.2766,4.85272 11.2827,6.97326 -4.2992,10.23228 -112.818,23.59637 -76.7445,9.45121 -102.9381,16.31651 -104.5175,27.39435 -1.8458,12.9458 15.8488,22.1761 79.4596,41.44951 31.4795,9.53808 36.4194,12.17226 51.9502,27.7031 9.4396,9.43968 15.4788,17.72437 13.4203,18.41057 -2.0584,0.686 -12.594,-1.73108 -23.4121,-5.37155 -39.0841,-13.15206 -114.818,-16.49453 -188.3806,-8.3139 l -17.6264,1.9601 v 21.43646 21.43646 l -57.9157,0.41164 c -31.8536,0.22658 -73.7797,1.3593 -93.1688,2.51801 l -35.253,2.10666 11.2974,6.16112 c 6.8641,3.74345 12.5076,4.95102 14.3815,3.07719 1.8738,-1.87383 10.6158,-0.49577 22.2768,3.51335 13.2913,4.56869 32.0977,7.14239 61.1608,8.36979 37.5629,1.58647 40.9086,2.21111 31.875,5.949 -16.9469,7.01224 -93.7652,18.58966 -124.9731,18.83461 -16.1964,0.12702 -35.8891,-1.5256 -43.7614,-3.67291 -16.9083,-4.61217 -35.2256,-19.69443 -41.078,-33.82318 -3.4783,-8.39705 -6.0796,-10.08768 -15.5221,-10.08768 -6.2389,0 -11.3437,0.69822 -11.3437,1.55277 0,0.85425 3.1793,10.05035 7.0654,20.43632 5.5562,14.85061 6.5799,22.76528 4.7943,37.05788 -1.2487,9.99553 -3.5698,18.17392 -5.1578,18.17392 -1.588,0 -6.0844,-4.48984 -9.992,-9.97786 -8.4636,-11.88578 -39.4869,-27.10103 -72.2521,-35.43535 -24.0094,-6.10728 -48.6829,-17.43642 -48.6829,-22.35373 0,-3.72205 2.4224,-3.45942 21.5176,2.33344 9.0647,2.74978 20.8789,4.99978 26.2536,4.99978 8.2138,0 9.6012,-1.20473 8.6993,-7.55433 -1.0047,-7.07175 -3.3584,-7.74515 -36.8676,-10.54553 -19.6871,-1.64539 -38.195,-2.07051 -41.1286,-0.94502 -3.7875,1.45349 -5.3337,6.45717 -5.3337,17.26055 v 15.21378 h -15.5281 c -17.3375,0 -16.5787,-2.87191 -8.296,31.39467 3.5469,14.67405 2.9459,14.76482 -26.2454,3.96144 -13.1458,-4.86513 -15.3822,-4.9176 -19.8341,-0.46606 -4.452,4.45192 -4.3955,6.64799 0.5003,19.47742 3.0351,7.95278 6.4352,22.01391 7.5562,31.24684 l 2.0384,16.78726 -9.0015,-10.97818 c -9.963,-12.15095 -24.6201,-20.91753 -34.9726,-20.91753 -8.5641,0 -17.6983,9.79143 -27.693,29.6848 -9.0984,18.11031 -25.614,40.82126 -29.6854,40.82126 -1.5387,0 -5.4195,-6.86491 -8.6237,-15.25551 z m -42.892,-500.255061 c 2.5407,-6.62064 0.1739,-8.94871 -6.4947,-6.38947 -8.387,3.21828 -9.9809,11.57039 -2.2082,11.57039 3.6933,0 7.6095,-2.33139 8.7029,-5.18092 z"
         id="path4201"
         inkscape:connector-curvature="0" />
    </clipPath>
  </defs>
  <sodipodi:namedview
     id="base"
     pagecolor="#ffffff"
     bordercolor="#666666"
     borderopacity="1.0"
     inkscape:pageopacity="0.0"
     inkscape:pageshadow="2"
     inkscape:zoom="0.11313708"
     inkscape:cx="1525.4159"
     inkscape:cy="-408.07666"
     inkscape:document-units="px"
     inkscape:current-layer="layer1"
     showgrid="false"
     inkscape:window-width="1848"
     inkscape:window-height="1016"
     inkscape:window-x="72"
     inkscape:window-y="27"
     inkscape:window-maximized="1"
     fit-margin-top="0"
     fit-margin-left="0"
     fit-margin-right="0"
     fit-margin-bottom="0"
     units="mm"
     showguides="true"
     inkscape:guide-bbox="true"
     scale-x="3">
    <sodipodi:guide
       position="-3211.0351,577.50393"
       orientation="1,0"
       id="guide839"
       inkscape:locked="false" />
  </sodipodi:namedview>
  <metadata
     id="metadata7">
    <rdf:RDF>
      <cc:Work
         rdf:about="">
        <dc:format>image/svg+xml</dc:format>
        <dc:type
           rdf:resource="http://purl.org/dc/dcmitype/StillImage" />
        <dc:title />
      </cc:Work>
    </rdf:RDF>
  </metadata>
  <g
     inkscape:label="Capa 1"
     inkscape:groupmode="layer"
     id="layer1"
     transform="translate(562.8609,858.39819)">
    <rect
       id="rect25"
       width="3701.4539"
       height="1659.2227"
       x="-562.8609"
       y="-858.39819"
       style="fill:#ffffff;fill-opacity:0;stroke-width:2.508497" />
    <g
       id="g896"
       transform="translate(-3231.6033,-15.15983)"
       style="fill:#6200ee;fill-opacity:1;stroke:#6200ee;stroke-opacity:1">
      <path
         sodipodi:nodetypes="ccccccccccccccccccccccccccccccccccccccsccccccccccccccccccccccccccccccccccccccccccccccccccccccccccccccsccccsccsccccccccccccccccccccccccccccccccccscccccccccsssccccscccssscccsccsccccccccccccccccccsscccccccccscccccccccccccccccccccccccccccccccccccccscccccccccccccscccccccccccsscccccsccccsccccccccccccccccccccccsccccscccccscsssccsscscccccccccsccccssccccccccccccccccccccccccccscccccccccccccccccccccscccccccccscccccccscccccsccccccccccccccsccccccccscccscccsccccccccccccccccccccccccccssccssccccccscccccscccccccscsccccscccccccccccccccscccscccccccccccscccscscccccccccccccccccccccccccscccccccccccccccccccccsccccccccscccsccccsccccccscccsssscccscccsccccccccccccccccccccccsccccccscccccccccccccccsccccccccccccccccccccccccccccccccccccccccccccccccccccc"
         inkscape:connector-curvature="0"
         id="path4790-5"
         d="m 5036.341,-583.74827 v 167.08833 82.66985 c 9.2244,9.351 19.6399,17.7459 31.1702,24.94497 v -77.87158 -185.82739 c -12.1997,-3.38514 -22.591,-7.04385 -31.1702,-11.00418 z m -917.3011,1.33813 c -38.0715,1.0552 -55.045,5.01264 -101.9542,21.03725 -7.9536,2.71695 -16.1994,5.48909 -24.339,8.19336 40.1655,-0.02 77.7365,-0.0545 114.4898,-0.0934 -0.2886,-10.00482 3.41,-18.5197 11.8034,-29.13719 z m 1014.1745,22.78364 -0.5625,211.48703 -0.1803,68.10342 c 13.8632,6.71412 22.8234,13.63939 28.5463,23.33321 v -93.03533 -206.21303 c -9.7657,-1.16175 -19.0049,-2.38889 -27.8035,-3.6753 z m 90.1464,9.74425 v 49.57067 68.78111 h 165.6785 165.6786 l -1.0643,65.99208 -1.0645,65.99208 -164.6141,0.96878 -164.6142,0.97095 v 96.70845 96.70845 l 144.6239,-0.25849 c 118.9975,-0.21353 145.7494,0.6675 150.9774,4.97205 3.4948,2.87756 9.8599,7.15681 14.1451,9.50967 4.2862,2.35311 13.053,3.26115 19.4819,2.01793 6.4284,-1.24322 13.8803,-2.37829 16.5584,-2.51969 2.6785,-0.14128 3.9911,-1.0974 2.915,-2.12438 -1.076,-1.02683 1.0272,-5.01413 4.6744,-8.86018 10.3399,-10.90242 8.4683,-30.71904 -4.0814,-43.21927 -8.8618,-8.82844 -13.203,-10.40892 -25.1231,-9.1556 -8.2948,0.87216 -18.6392,5.38092 -24.3715,10.62181 l -9.9593,9.10565 h -131.2848 -131.2826 v -66.92176 -66.92177 h 167.5359 167.5378 v -94.80781 -94.80566 h -167.5378 -167.5359 v -40.89502 -40.8973 h 224.3246 c -79.2318,-1.74006 -150.6266,-4.09224 -198.906,-6.9204 -18.6056,-1.08979 -36.1374,-2.29514 -52.692,-3.61235 z m 822.0088,6.39269 c -3.7846,0 -7.7618,0.0812 -11.8642,0.2063 2.435,6.72756 7.0543,12.91985 13.4651,17.34684 h 0.013 c 11.7036,8.08248 40.1283,4.77076 47.7091,-5.55637 2.2107,-3.01168 4.0145,-4.86573 11.091,-6.01256 -6.9257,-1.16953 -13.3181,-2.18325 -19.1626,-2.98665 -0.5012,0.88237 -1.0649,1.69968 -1.6987,2.42846 -7.2193,8.30146 -28.8806,6.78084 -36.87,-2.58928 -0.7961,-0.93342 -1.4921,-1.87918 -2.0984,-2.83241 -0.194,-3.2e-4 -0.3831,0 -0.5777,0 z m -29.8909,1.02306 c -4.3782,0.25579 -9.1102,0.56497 -14.0865,0.90573 -0.3122,0.45942 -0.6168,0.91651 -0.96,1.38372 -8.9992,12.26046 -26.4886,10.78999 -35.8013,1.18165 -4.7151,0.26158 -10.0881,0.49946 -15.8004,0.72545 l 8.6105,8.21504 c 18.9782,18.11 50.3639,8.43337 58.0377,-12.41159 z m -2097.0825,33.93119 c 2.0335,7.05764 1.4867,17.52744 -2.1156,26.02664 h 217.0586 c -2.1618,-6.50024 -4.7382,-12.96533 -7.7676,-19.36259 -1.115,-2.35339 -2.1049,-4.48158 -3.1258,-6.66405 z m 2042.8244,17.71162 c -8.0784,0.15447 -16.5593,3.01156 -24.1436,9.10131 l -11.5775,9.29472 h -146.518 -146.5202 l -0.4497,123.61916 c -0.2459,67.99077 -0.1335,126.5488 0.2455,130.12698 0.6496,6.09229 -8.5389,6.50191 -144.6847,6.44259 l -145.3776,-0.0652 -8.908,-8.96664 c -19.0195,-19.14234 -45.8157,-14.35498 -58.5677,10.46324 -6.8585,13.34759 -0.4675,31.92481 13.9082,40.43024 17.1649,10.15517 32.6605,7.2692 49.1559,-9.15561 6.9445,-6.91403 12.4277,-7.1883 119.8049,-6.00166 l 207.0079,1.24247 -0.719,-129.19512 -0.7189,-129.19729 h 132.0276 132.0299 l 9.1512,9.29463 c 6.9793,7.08815 13.0821,9.29462 25.7204,9.29462 16.2491,0 26.9977,-7.43978 30.9857,-20.99165 -5.8048,-0.80952 -9.7746,-1.74974 -12.4051,-2.92155 -0.4598,0.88438 -0.8413,1.63404 -1.312,2.53491 -4.1512,7.94003 -8.0261,10.17393 -17.349,10.00275 -13.2346,-0.24367 -25.6421,-9.84929 -25.6421,-19.85346 0,-10.75531 7.9236,-21.56835 14.1384,-19.29302 3.2288,1.18343 4.7054,0.49589 3.3668,-1.57045 -1.3247,-2.04558 1.916,-3.6753 7.3072,-3.6753 5.8534,0 15.5458,6.77939 20.9438,13.09372 2.3831,-1.98133 5.4655,-4.12576 9.2882,-6.49038 -5.5844,-11.24463 -17.3741,-17.80871 -30.1885,-17.56404 z m 56.6453,47.92853 c 1.6378,3.04115 3.8294,6.04725 6.6489,8.94926 9.1808,9.44816 12.0687,10.30843 28.2488,8.42794 25.9657,-3.01695 27.3491,-3.30995 27.0824,-5.70624 -0.4841,-4.28723 -0.329,-6.96933 5.1697,-8.64732 -5.5778,-0.23679 -11.3691,-0.47348 -17.4815,-0.71464 -1.0444,-0.0415 -1.7812,-0.077 -2.802,-0.1173 -10.2274,8.09081 -23.8628,6.36348 -31.9372,-1.38366 -5.4579,-0.26716 -10.4629,-0.53567 -14.9291,-0.80804 z m -3028.0549,19.44725 c -66.6036,2.95077 -97.9767,8.66324 -147.1328,19.91645 -0.7413,0.16975 -1.488,0.36166 -2.2307,0.53652 -2.825,2.83996 -5.9774,4.95293 -8.3976,5.39779 -4.14,0.76077 -5.7041,0.17541 -4.9807,-2.00274 -8.4568,2.30817 -16.8573,4.89032 -24.9819,7.65685 12.6742,9.75742 35.5899,8.51174 47.2182,-3.29951 9.0955,-9.2383 10.1092,-9.37957 60.0947,-8.36493 l 50.8456,1.03176 0.1434,18.7891 c 10.0249,-0.70299 19.8268,-1.2808 29.3545,-1.71166 z m 3214.1168,2.7695 c -8.1552,-0.019 -17.0792,3.00389 -25.6988,9.92455 -6.4798,5.20304 -10.4792,11.89218 -11.9488,18.9368 4.1137,0.24212 8.2846,0.52988 12.505,0.858 2.0183,-17.72806 28.3632,-25.47858 39.607,-9.10348 3.5009,5.09852 5.4308,9.78734 5.8496,14.02557 3.5762,0.48744 7.1743,0.99172 10.8129,1.53136 1.463,-20.90125 -12.9102,-36.12938 -31.1269,-36.1728 z m -2561.4357,0.80587 c -8.5926,0.0285 -17.1928,3.23187 -23.9632,9.69213 -13.3775,12.76345 -13.2947,35.98835 0.1737,48.84079 l 9.7442,9.29463 v 137.48186 137.48188 l 65.258,-1.01875 65.2622,-1.0209 1.023,-137.07785 1.021,-137.08004 9.6922,-10.99107 c 12.4873,-14.16114 12.3533,-29.14223 -0.3933,-43.59721 -7.6703,-8.6989 -13.3053,-11.43855 -23.5156,-11.43855 -14.9945,0 -32.6343,9.27414 -32.6343,17.15783 0,2.83177 -1.5691,5.15015 -3.4864,5.15015 -2.0058,0 -2.1065,5.82642 -0.2367,13.73667 1.7854,7.55522 2.196,15.50186 0.9122,17.6596 -1.2833,2.15748 -1.0267,2.80577 0.5691,1.44012 1.5965,-1.36541 6.2606,0.26083 10.3655,3.61446 7.0771,5.78134 7.4635,12.51828 7.4635,129.8207 v 123.7213 h -35.0671 -35.0651 v -124.54889 c 0,-68.5017 1.3758,-124.5489 3.0563,-124.5489 5.2238,0 16.4258,-21.11314 16.4258,-30.95964 0,-5.15121 -4.54,-14.51364 -10.0875,-20.80485 -7.0512,-7.99639 -16.7794,-12.03881 -26.5175,-12.00547 z m -489.0965,0.0521 c -17.9774,0.25445 -35.3539,13.86229 -35.3539,34.26566 0,1.50006 0.083,2.96905 0.2063,4.40077 4.3671,0.64131 8.6188,1.33308 12.7114,2.08743 -0.7864,-2.28157 -1.2293,-4.76246 -1.2293,-7.42222 0,-19.0402 26.927,-28.96915 40.3063,-14.86185 8.5161,8.97945 8.194,24.00205 -0.6777,31.66342 -0.2368,0.20475 -0.4823,0.38636 -0.7233,0.57996 4.0168,1.48724 7.805,3.05901 11.3104,4.73096 1.815,-1.1029 3.3715,-1.58366 4.1639,-1.1165 1.4783,0.87192 3.0681,-6.37761 3.5342,-16.11083 0.6876,-14.38013 -0.9742,-19.57286 -8.8668,-27.69925 -6.7389,-6.93881 -15.1944,-10.21215 -23.6394,-10.50018 -0.5808,-0.0201 -1.1623,-0.0257 -1.7421,-0.0173 z m 688.6735,0.14335 c -9.3093,-0.0973 -19.0324,3.72502 -27.3887,11.69921 -10.2554,9.786 -11.5576,13.19966 -9.5726,25.09702 1.3599,8.15357 6.3612,17.1366 12.2596,22.02777 l 9.9615,8.26285 -0.2889,136.73682 -0.289,136.73467 38.1886,1.85935 c 42.3412,2.06105 92.4501,-0.33919 96.9583,-4.64623 1.605,-1.53385 0.874,-2.78903 -1.6269,-2.78903 -3.3784,0 -4.5463,-34.27722 -4.5463,-133.55681 v -133.55899 l 11.6905,-11.15183 c 15.6193,-14.90647 15.7213,-30.75324 0.2953,-45.47395 -20.1315,-19.21032 -51.9164,-12.74061 -58.8935,11.98591 -4.3269,15.33356 1.8872,33.02897 13.8432,39.41368 5.1164,2.73141 5.7612,19.43864 4.8699,125.66321 l -1.0296,122.51357 -36.0402,1.0687 -36.0382,1.0687 v -122.25511 c 0,-116.7495 0.344,-122.54864 7.646,-128.85409 12.8791,-11.12248 17.202,-29.38357 10.0701,-42.54372 -6.8146,-12.5752 -18.0998,-19.17739 -30.0691,-19.30173 z m -489.9261,0.11948 c -9.4011,-0.0165 -19.3101,3.15894 -25.8291,9.37934 -13.4239,12.80819 -13.3373,36.22537 0.176,48.1761 l 9.7399,8.61475 v 123.19348 123.1913 h -37.1068 -37.1069 l 0.063,-26.88036 c -7.6293,4.92913 -16.7792,10.2347 -27.2475,15.83715 -0.012,21.22759 -0.016,37.37177 0.013,38.08864 0.05,1.58524 29.4576,2.42036 65.3513,1.85937 l 65.2623,-1.02091 1.0231,-137.3711 c 1.008,-135.36727 1.1456,-137.49709 9.514,-145.9967 6.1657,-6.26286 8.6118,-13.63547 8.9275,-26.91293 0.2389,-10.0579 -0.7407,-17.59405 -2.1765,-16.74728 -1.4358,0.84725 -5.7464,-1.76678 -9.5792,-5.80832 -4.825,-5.08738 -12.7248,-7.58794 -21.0199,-7.60253 z m 196.1515,0.0652 c -7.5207,0 -15.2402,2.38855 -22.0537,7.50261 -5.3592,4.0228 -10.9467,6.16579 -12.4183,4.76135 -1.4715,-1.40409 -1.4098,0.59706 0.139,4.44856 1.7845,4.43754 1.345,6.13601 -1.199,4.63537 -7.4022,-4.36504 1.3468,27.18551 9.9659,35.94039 8.0083,8.13411 8.2725,11.9094 9.2511,131.78866 l 1.008,123.41504 h -36.0382 -36.0424 v -122.11178 -122.11175 l 9.7355,-10.80209 c 21.2544,-23.58296 6.9515,-57.40491 -24.1696,-57.15579 -32.2624,0.25754 -47.2614,31.39915 -26.4763,54.9706 l 9.7422,11.04539 v 135.47697 c 0,74.51141 1.2084,136.62879 2.6869,138.04013 1.4914,1.41108 31.3765,2.10806 66.4244,1.54872 l 63.7373,-1.01656 -0.2802,-137.3081 -0.2802,-137.31026 10.8042,-9.72472 c 13.1601,-11.84481 14.2849,-15.98564 8.7125,-32.09786 -5.2529,-15.18787 -18.8912,-23.92588 -33.2491,-23.93274 z m -299.7175,0.0695 c -17.9201,0.46277 -34.5993,13.251 -33.9703,30.20809 0.7104,19.14578 2.2809,28.90303 4.5985,28.54205 1.1479,-0.17901 5.1965,0.97123 8.9949,2.55444 6.4361,2.6829 6.8951,12.17199 6.7271,139.08058 -0.03,25.00732 -0.042,44.33919 -0.061,64.7887 3.5551,-1.15555 7.2741,-2.42813 11.2148,-3.83601 5.8596,-2.09355 11.22,-3.86669 16.0718,-5.33698 l 0.1542,-65.86391 c 0.2744,-115.48599 0.7066,-122.64278 7.7416,-128.71725 12.6969,-10.9653 16.9654,-29.28351 9.8723,-42.37213 -3.3592,-6.1988 -9.4838,-12.99501 -13.6062,-15.10079 -5.6539,-2.88716 -11.7645,-4.101 -17.7379,-3.94679 z m -198.4953,0.11947 c -20.5306,0.001 -33.5419,15.66424 -33.1732,32.94281 3.9996,-0.0747 7.9478,-0.12369 11.8426,-0.14552 0.482,-11.18737 9.3304,-21.64331 22.3883,-21.64331 10.6033,0 24.0436,12.47098 24.0436,22.30799 0,0.14389 -0.012,0.29728 -0.022,0.44746 3.7198,0.21353 7.3673,0.45846 10.9541,0.73201 1.0239,-18.46675 -13.6798,-34.64026 -36.0315,-34.64144 z m 1087.9689,0.026 c -14.5591,0.0226 -17.8769,1.62215 -25.5033,12.31176 -11.3913,15.96678 -11.0933,29.06823 0.9731,42.75224 l 8.4627,9.59656 c 2.2828,-4.09196 4.3732,-8.28538 6.2754,-12.56372 -1.7355,-1.03289 -3.4143,-2.28337 -4.996,-3.79256 -15.3439,-14.64243 -5.2909,-37.17636 16.5866,-37.17636 0.086,0 0.1667,0.0111 0.2519,0.0111 0.5351,-3.66419 0.9522,-7.35577 1.2295,-11.07145 -1.0524,-0.0392 -2.1334,-0.0674 -3.2799,-0.0674 z m -100.0993,0.0955 c -7.7228,0.0641 -16.8254,2.15528 -20.2248,4.64624 -17.3338,12.69939 -19.7626,40.49046 -4.5615,52.2011 l 8.795,6.7771 v 77.96497 c 4.7072,-1.8856 9.8504,-3.81642 15.5091,-5.86264 5.4046,-1.95428 10.6247,-4.16127 15.6613,-6.59029 v -61.76291 l 9.7399,-11.04756 c 20.8784,-23.67667 6.318,-56.59007 -24.919,-56.32601 z m 2225.6933,6.58812 v 32.76472 c 4.6817,0.83122 9.3975,1.6914 14.1711,2.60223 4.4474,0.84843 8.825,1.65636 13.1025,2.42412 v -15.83059 h 23.4026 c -15.425,-7.75414 -33.9495,-15.91738 -50.6762,-21.96044 z m -2912.8483,4.1988 c 18.6449,0.48271 33.0422,21.73791 16.6017,37.42614 -4.286,4.08973 -12.1744,7.43527 -17.5315,7.43527 -9.167,0 -11.2978,-1.74643 -10.2025,-8.36493 0.254,-1.53577 -1.7311,-2.37042 -4.4096,-1.85937 -8.1688,1.55912 -8.6291,-23.93026 -0.5342,-29.57816 5.3026,-3.70003 10.8554,-5.19417 16.0761,-5.05895 z m 488.5164,0.21723 c 8.8954,-0.0925 18.068,4.01968 21.9625,11.81215 6.2054,12.41683 -0.2719,28.53141 -12.3899,30.82496 -14.5658,2.75681 -22.1109,0.89259 -27.8122,-6.87485 -7.2485,-9.87486 -7.0892,-17.19308 0.6038,-27.67317 3.9661,-5.40354 10.7169,-8.01731 17.6358,-8.08909 z m -590.3621,0.0305 c 23.1602,0 32.979,30.82005 13.059,40.9928 -17.7318,9.05573 -36.1728,-0.0996 -36.1728,-17.9615 0,-15.57602 7.4816,-23.0313 23.1138,-23.0313 z m 197.0488,0 c 19.6002,0 30.5985,26.08773 15.8827,37.67593 -10.2949,8.108 -25.7949,8.25108 -33.3273,0.30844 -14.1266,-14.89461 -3.5221,-37.98437 17.4446,-37.98437 z m 300.0086,0 c 20.912,0 30.8826,27.57041 14.0407,38.82717 -11.5269,7.70395 -23.7526,7.31059 -31.6482,-1.01439 -13.9786,-14.73898 -3.2333,-37.81278 17.6075,-37.81278 z m -103.2292,0.11728 c 20.3777,0.36123 33.1878,21.45614 16.8341,37.06122 -17.37,16.57499 -41.9685,3.44951 -37.3697,-19.94033 1.3842,-7.0413 5.2419,-13.80056 8.5735,-15.02042 4.1553,-1.52164 8.1886,-2.16726 11.9621,-2.10047 z m 396.4433,0.024 c 5.4841,0.12206 10.7777,2.08345 14.5729,6.36439 7.8583,8.86403 8.0914,23.49398 0.5018,31.49617 -13.5682,14.30694 -40.1282,3.0405 -40.1282,-17.02096 0,-12.46795 12.9888,-21.10782 25.0535,-20.8396 z m -95.0532,0.13032 c 6.8339,0.0474 13.3068,2.54016 17.1664,8.16078 7.0082,10.20653 4.9624,25.00381 -4.3617,31.53526 -3.6486,2.55585 -10.3768,4.64622 -14.9508,4.64622 -9.3159,0 -25.26,-14.29614 -25.26,-22.64899 0,-12.96692 14.36,-21.78462 27.4061,-21.69327 z m -394.3646,0.52349 c 10.105,0.27403 14.0961,2.69581 18.8281,11.42768 5.5627,10.26444 5.4478,11.79873 -1.5683,20.80703 -9.7448,12.51291 -25.2685,14.41149 -35.7861,4.3747 -16.5372,-15.77994 -5.6654,-37.26579 18.5263,-36.60941 z m 2541.6062,1.48357 c -9.0145,-0.0249 -18.1231,3.21716 -24.9515,9.73342 l -9.8158,9.36848 -174.1045,-0.22808 -174.1021,-0.22591 -1.0774,58.44603 -1.6247,66.54816 68.4597,61.20031 c 6.2621,-2.6001 14.0953,-5.11661 23.6481,-7.60687 3.4063,-1.77586 7.3525,-2.68637 11.3669,-2.76514 7.007,-1.59721 14.757,-3.19256 23.3267,-4.80045 -5.6015,-4.58048 -12.642,-7.12248 -20.5942,-7.12248 -12.1663,0 -17.8618,-3.65711 -44.1251,-28.31614 l -30.1581,-28.31397 v -38.68164 -38.68164 l 96.8127,0.13901 c 17.9713,-2.34777 43.8679,-2.99469 70.4276,-1.14908 4.2053,0.29243 8.6205,0.72954 13.1655,1.27072 l 97.8619,0.14119 c -4.3916,-4.09173 -7.1921,-7.84416 -7.1921,-10.09181 0,-4.6965 16.7273,-11.35379 44.9679,-17.89851 6.9102,-1.60138 14.1533,-2.95855 21.7192,-4.07496 3.2694,-1.98025 7.3918,-3.31786 12.251,-3.85774 4.9074,-0.54509 9.0157,-0.18889 12.6332,1.15124 5.9665,-0.44058 12.0972,-0.75623 18.3938,-0.94271 -0.8854,-1.16766 -1.846,-2.29613 -2.902,-3.369 -6.4518,-6.55316 -15.3721,-9.84716 -24.3867,-9.87243 z m -603.8272,0.0456 c -8.1339,0.12469 -16.2688,3.12374 -22.725,9.68127 l -9.2186,9.36197 -87.8918,-0.99703 c -70.4757,-0.79967 -87.6812,-1.97319 -86.8229,-5.92127 0.5887,-2.70639 -0.5275,-3.98207 -2.4806,-2.83031 -1.9531,1.15177 -5.7167,-0.39573 -8.365,-3.44069 -2.69,-3.09251 -11.2314,-5.5368 -19.3538,-5.5368 -31.8616,0 -46.1374,31.59277 -25.071,55.48322 13.1823,14.94966 33.7159,15.84382 49.1993,2.1439 l 10.5044,-9.29463 h 85.6044 85.6044 l 7.6613,9.29463 c 17.9361,21.75894 59.1388,4.79178 59.1388,-24.35414 0,-20.23134 -17.8893,-33.86415 -35.7839,-33.59012 z m 1.1013,11.46461 v 0.002 c 20.6418,0 30.8905,27.76104 14.334,38.82718 -10.8168,7.22719 -18.4897,7.31164 -28.9483,0.32148 -17.0358,-11.38571 -6.6706,-39.15084 14.6143,-39.15084 z m -236.3995,0.16725 c 5.5922,0.1694 11.0959,2.2295 15.2768,6.63809 8.5159,8.97946 8.194,24.00181 -0.6776,31.66343 -15.4461,13.33857 -39.6289,3.08539 -39.6289,-16.80157 0,-13.09041 12.7276,-21.87232 25.0297,-21.49995 z m -2500.4875,23.90013 c -6.8436,3.87903 -12.3525,7.67591 -16.026,11.18874 -11.0444,10.56195 -11.1818,11.3127 -1.5401,8.48876 5.8257,-1.70623 13.6494,-3.56172 22.7054,-5.48468 h -5.1393 z m 3071.8325,39.14429 c -4.3587,0 -13.5066,4.75963 -20.3292,10.57622 -10.0401,8.56044 -12.3004,13.206 -11.8599,24.38019 0.3222,8.18109 4.1598,18.09006 9.4205,24.32374 4.8823,5.78539 12.3834,10.51759 16.6692,10.47845 14.7431,-0.076 33.184,-7.16298 37.1806,-14.2884 3.547,-6.3242 8.5464,-7.13769 43.8406,-7.13769 37.0369,0 40.2336,0.58708 45.4956,8.36495 3.1126,4.60077 5.3946,9.31121 5.072,10.46759 -0.969,3.47142 33.1137,0.4704 41.1253,-3.62098 4.0892,-2.08785 8.4469,-2.8302 9.6856,-1.64865 1.2381,1.18154 2.2963,-0.96681 2.3437,-4.77656 0.028,-2.03116 0.386,-5.43301 0.9123,-9.15995 -4.1616,-0.76694 -8.2716,-1.62421 -12.3856,-2.58487 -1.5407,2.2511 -3.6036,4.41332 -6.2579,6.40569 -11.9954,9.00376 -12.1045,9.0178 -24.8016,2.91936 -8.4574,-4.06161 -12.4528,-13.6695 -11.5667,-22.56212 -5.9557,-2.21538 -12.217,-4.64004 -18.9956,-7.36576 -3.6457,-1.46613 -7.4133,-2.94183 -11.219,-4.41164 -5.4678,0.30785 -12.2664,0.50487 -20.8873,0.68423 -31.4051,0.65388 -39.4892,-0.26066 -41.2644,-4.67447 -2.7362,-6.80369 -21.5391,-16.36933 -32.1782,-16.36933 z m 1.9223,12.77008 c 2.9072,0.0878 5.9935,0.71064 9.1969,1.97666 18.992,7.5068 19.2704,31.33918 0.4801,40.93633 -10.2274,5.22309 -13.6349,4.8222 -22.8903,-2.70215 -18.7043,-15.20531 -7.1373,-40.82806 13.2133,-40.21084 z M 3067.9519,-302.861 c -8.1158,3.18778 -19.064,7.80647 -31.7308,13.36088 v 74.96742 41.00365 c 1.8102,3.1394 3.4636,6.37052 4.8374,9.55095 7.6867,17.79295 12.7502,23.38854 18.5154,20.45948 1.6841,-0.85542 4.2596,-1.54028 7.8176,-2.07875 v -85.95196 c 0,-26.52387 0.21,-51.05292 0.5604,-71.31167 z m 101.2961,31.82199 c -10.2096,4.56423 -21.1513,7.72294 -31.7742,9.31635 0.03,9.41304 0.048,19.40938 0.048,30.62948 v 84.94844 c 8.5032,0.2866 17.5953,0.62082 27.8534,1.05131 1.5396,0.0641 3.0195,0.11044 4.4963,0.15422 0.041,-18.739 -0.064,-42.32343 -0.2997,-72.31303 -0.1679,-21.38157 -0.2674,-38.46212 -0.3236,-53.78677 z m -179.7194,2.65219 c -9.4868,4.39804 -18.9602,8.85382 -28.188,13.26098 0.1335,21.499 0.17,39.99842 0.1024,55.51798 10.2935,-1.4327 19.7068,-2.11341 27.9664,-2.00273 z m 2928.4749,18.90857 c -13.0356,0.32468 -25.9448,8.1415 -33.8096,22.43396 -0.502,0.91213 -0.9317,1.75521 -1.3054,2.56531 4.8899,-0.7253 9.8153,-1.45328 15.0379,-2.19387 1.2099,-4.17608 2.8604,-7.7764 4.2204,-7.95007 0.6048,-0.0771 7.5524,-1.0359 15.4373,-2.12871 10.829,-1.50017 14.5725,-0.74421 18.8914,4.78091 4.3461,-0.59266 8.912,-1.21028 13.0502,-1.77899 -1.8348,-1.55427 -3.9029,-3.38731 -6.1645,-5.5455 -7.4613,-7.11973 -16.4392,-10.40546 -25.3577,-10.18304 z m -3014.2509,23.29847 c -10.6067,5.87448 -21.2195,12.39215 -31.1725,18.98243 v 31.60043 c 2.064,-0.7425 4.0926,-1.46007 6.2058,-2.23732 8.4527,-3.10901 16.7976,-5.91944 24.9667,-8.44315 z m 2403.3749,5.64107 c 12.2494,0 25.3252,12.07084 25.3252,23.37885 0,3.7145 -4.6193,10.2196 -10.2657,14.45784 -5.6464,4.23788 -12.738,7.70678 -15.7611,7.70678 -7.1659,0 -24.6234,-16.72089 -24.6234,-23.58521 0,-10.04864 13.7363,-21.95826 25.325,-21.95826 z m -2455.9474,28.40087 c -5.7055,4.29185 -10.8623,8.42173 -15.2138,12.20965 -0.7384,1.18036 -1.5747,2.36596 -2.561,3.56232 -2.4859,3.01566 -5.2475,5.29165 -8.1281,6.86834 -3.6325,4.23325 -5.1323,7.3814 -3.76,8.8754 0.708,0.77038 7.2389,-0.69714 17.1491,-3.6492 -0.3497,-1.27337 0.492,-2.21342 2.2135,-2.21342 2.103,0 5.738,-5.53638 8.0781,-12.30306 1.6069,-4.64596 2.3332,-9.11702 2.2222,-13.35003 z m 2853.5096,38.77286 c -9.9977,0.14937 -19.6553,3.75335 -25.4316,10.76083 -12.8425,15.57971 -9.9265,37.648 6.4035,48.47153 6.9413,4.60066 15.5426,8.36713 19.1149,8.36713 6.9831,0 36.7745,-14.86377 36.7745,-18.34599 -7e-4,-1.1578 57.8592,-1.64083 128.5762,-1.0752 l 24.1628,0.19331 c -4.7921,-1.67277 -10.031,-3.44766 -15.8956,-5.39778 -27.1249,-9.01956 -48.9106,-16.75974 -66.2615,-23.70685 h -70.2257 l -9.7399,-9.29463 c -7.1415,-6.81484 -17.4803,-10.1217 -27.4776,-9.97235 z m -157.6308,10.07444 c 12.6275,0.11388 26.9608,11.46903 26.9608,23.98705 0,2.27208 -4.3039,8.23747 -9.564,13.25663 -10.3748,9.90047 -15.1525,10.70286 -28.1185,4.72008 -16.2592,-7.50361 -14.8052,-31.31189 2.4502,-40.12395 2.5355,-1.29507 5.3572,-1.86626 8.2715,-1.83981 z m 159.427,0.51697 c 21.9458,0 31.4062,23.32145 15.5852,38.41881 -14.3223,13.6667 -36.558,5.61861 -38.1081,-13.79315 -1.2283,-15.38539 7.2227,-24.62566 22.5229,-24.62566 z m -545.468,22.10814 c -5.804,9.935 -14.9064,16.92156 -29.0329,23.65905 l -0.1868,70.7252 h 210.6897 210.6899 l 8.5063,8.64082 c 4.6788,4.75249 7.7603,9.3543098 6.8465,10.2264798 -4.7378,4.52139 35.6811,-1.86521 41.171,-6.5055898 4.6785,-3.95495 8.0934,-8.4138 10.2112,-13.21102 v -23.79589 l 0.4454,-0.0543 c -0.3214,-0.89837 -0.6778,-1.79951 -1.0732,-2.70215 -3.2498,-7.4219 -7.8543,-13.49343 -10.233,-13.49343 -2.3752,0 -3.4273,-1.38841 -2.3285,-3.08446 1.0985,-1.69388 -6.2478,-2.59023 -16.3279,-1.98534 -24.5544,1.47337 -31.4431,2.56185 -31.2226,4.93513 1.0264,11.16364 -1.1402,11.28648 -199.4468,11.28648 H 5161.0179 Z M 4021.96,-98.99172 v 21.73453 h 47.8156 c -9.8883,-6.30983 -20.676,-11.66628 -32.3065,-15.8719 -5.6587,-2.04621 -10.8019,-3.97716 -15.5091,-5.86263 z M 3167.4863,-83.059 c -2.5627,1.51928 -5.0196,3.02462 -7.3961,4.52243 2.7516,-0.19467 4.7672,-0.40197 5.3608,-0.61906 0.798,-0.29218 1.4717,-1.45963 2.0353,-3.90337 z m 2749.9611,15.65033 c -9.9097,0.11626 -19.6011,3.41555 -24.6387,9.52705 -1.3929,1.68938 -2.5356,3.0633 -3.886,4.19442 4.7417,0.77548 9.3416,1.60799 13.8171,2.48929 4.2197,-2.95765 9.4651,-4.82653 14.8206,-4.82653 9.7302,0 17.1773,6.11663 20.5528,13.85832 2.1904,0.72387 4.3293,1.46439 6.3926,2.22645 1.74,0.64262 3.4658,1.24707 5.1828,1.84198 0.3144,-11.14963 0.1245,-20.84553 -0.8123,-19.95119 -1.0167,0.96991 -5.515,-0.68667 -9.9963,-3.6818 -5.8861,-3.93395 -13.725,-5.76873 -21.4326,-5.67799 z m -849.9362,0.026 c -10.8454,7.33871 -20.5263,16.00904 -29.2566,26.23089 h 29.2566 z m 645.4869,0.19768 c -8.8099,0.14484 -17.6489,3.0088 -23.7045,8.65384 15.1288,-1.23065 30.1924,-2.13673 45.0525,-2.7065 -5.7835,-4.07524 -13.5508,-6.07559 -21.348,-5.94734 z m -2255.4039,8.28891 c -7.2209,0.0866 -11.1736,2.70917 -19.3472,10.50887 -15.789,15.06615 -16.3297,29.3595 -1.69,44.6355098 7.221,7.53444 15.4477,11.70235 25.2339,12.78092 12.3471,1.3604302 15.9644,-0.0364 24.1586,-9.32938004 l 9.6379,-10.93025976 c 60.4175,-1.62805 120.8206,-0.95238 181.242,-0.31713 v 178.72884 h 42.1874 V -41.85768 l -106.8068,0.79936 -110.9039,0.6477 c 6.559,10.79845 -12.9347,-5.50763 -16.1668,-9.99229 -1.8859,-3.21542 -10.4171,-6.7395 -18.9584,-7.83277 -3.411,-0.43655 -6.1797,-0.68952 -8.5867,-0.66034 z m 2129.9232,-4.19874 v 0.002 c 6.2447,0.0379 12.249,3.19376 17.3858,9.42495 9.9509,12.07126 10.0859,16.59675 0.7993,26.81302 -9.8502,10.83599 -29.2628,10.70166 -37.3086,-0.26066 -8.3286,-11.34597 -7.6042,-19.82187 2.4609,-28.77013 5.4545,-4.84881 11.1522,-7.24269 16.6626,-7.20936 z M 3461.129,-48.33443 c 19.2338,0.82857 21.5995,14.31936 21.6875,26.20427 0.2693,9.77421 -6.6778,17.0892098 -20.6496,17.0064898 -14.1888,-0.084 -21.0439,-8.1322298 -20.5894,-20.9813998 0.3428,-15.26038 8.7111,-22.84466 19.5515,-22.22936 z m 328.5109,14.38118 c -7.6821,-0.0498 -13.1394,1.17937 -13.1394,3.104 0,2.12368 -4.0781,8.06008 -9.0642,13.19146 -4.986,5.13127 -8.6481,10.9701498 -8.1348,12.9742598 0.5128,2.00493 1.9144,7.93667 3.1149,13.18277 1.2008,5.2463402 5.7367,13.4487902 10.0809,18.2286802 7.5126,8.2646 7.9002,13.58125 7.9002,108.50539 v 8.56045 c 11.8832,-1.37051 22.2979,-2.42673 31.168,-3.05404 v -7.75023 c 0,-81.88416 1.0433,-102.64423 5.2763,-105.02996 2.9014,-1.63529 7.284,-6.62693 9.7399,-11.09317 12.461,-22.6644102 -5.107,-49.24333 -33.5228,-50.71753 -1.1789,-0.0617 -2.3213,-0.095 -3.419,-0.10209 z m 169.2322,0.85582 c -8.9069,0.21329 -17.4322,4.18765 -24.2282,11.8947 -12.767,14.4753798 -12.8846,29.4343898 -0.3475,43.65152 9.6926,11.01309 9.7399,11.28074 9.7399,88.89523 0,13.16584 0.1243,25.52627 0.3258,36.62027 7.8454,-6.47082 15.4064,-12.96588 22.3689,-19.29303 l 8.4778,-7.70462 V 99.48843 c 0,-61.93516 0.3908,-65.26549 8.5018,-72.47595 4.9322,-4.38522 9.5035,-14.20062 10.8891,-23.3810302 2.1445,-14.2104798 1.2062,-16.8664598 -9.2035,-26.0484198 -8.3272,-7.34511 -17.617,-10.89363 -26.5241,-10.68046 z m -85.1244,0.68206 c -5.8632,0.0582 -12.1284,1.80051 -19.0215,5.20229 -18.4572,9.10734 -21.8767,37.96263 -6.1472,51.87311 l 9.7421,8.61475 v 100.8855 75.42572 c 8.9021,-5.17315 19.6402,-12.13449 31.1681,-20.11628 v -63.91549 c 0,-75.63128 1.0595,-95.21787 5.2763,-97.5947 16.9767,-9.56785 18.412,-34.8526502 2.8193,-49.73137 -7.5548,-7.20881 -15.2679,-10.72788 -23.8371,-10.64353 z m 85.4914,10.92808 c 19.6527,0 30.4545,23.9588198 17.134,38.00394 -12.8879,13.58899 -40.1282,3.92769 -40.1282,-14.2319302 0,-12.24588 11.1486,-23.7720098 22.9942,-23.7720098 z m -161.6057,0.16074 c 5.5921,0.16952 11.0959,2.22963 15.2767,6.63809 8.5162,8.9789798 8.1939,24.0020498 -0.6777,31.66343 -15.4459,13.33868 -39.6287,3.08745 -39.6287,-16.79940024 0,-13.09051976 12.7276,-21.87472976 25.0297,-21.50211976 z m 77.9237,0 c 5.5918,0.16952 11.0957,2.22963 15.2767,6.63809 8.5159,8.9789798 8.1942,24.0020498 -0.6777,31.66343 -15.4462,13.33869 -39.6287,3.08745 -39.6287,-16.79940024 0,-13.09051976 12.7273,-21.87472976 25.0297,-21.50211976 z m 247.4144,1.16645 -78.1539,0.53218 0.3845,92.0166 0.1368,32.66913 8.6799,0.0565 c 8.3057,0.0534 15.4046,0.14055 21.5325,0.27151 l 0.059,-5.16103 1.0404,-92.0687302 58.3156,0.44094 c -3.0312,-9.97343 -7.0481,-19.6057398 -11.9945,-28.7570898 z m -1014.3983,2.39153 c -1.886,7.8249698 -1.2266,7.48474 3.836,0 z m 220.9685,32.289 c -3.7182,2.10827 -7.4951,4.22849 -11.3516,6.3492 -6.7514,3.71295 -12.9108,7.13354 -18.813,10.43284 l 0.719,77.12869 c 8.6209,-0.31188 18.4036,-0.589 29.235,-0.84714 0.3097,-37.16721 0.3638,-70.316 0.2106,-93.06359 z m 2110.0761,11.24089 c -15.1875,10e-4 -26.8203,0.013 -42.8347,0.013 h -396.2348 c -0.016,0.0404 -0.031,0.0782 -0.047,0.11947 3.3613,0.26217 6.7557,0.54051 10.1939,0.85583 52.7988,4.84217 56.509,6.00845 58.0919,18.23737 0.6973,5.38607 0.5149,8.6222 -1.3684,10.53058 h 115.3912 c -4.2161,-12.74958 -7.2658,-22.66615 -7.2658,-23.81328 0,-1.47752 8.0423,-2.68683 17.8724,-2.68695 14.8781,0 18.9778,2.92636 24.4584,17.44671 1.134,3.00473 2.5674,6.03549 4.2552,9.05352 h 180.3123 3.7773 c -1.4864,-0.49978 -2.9404,-1.01402 -4.3464,-1.54441 -18.3738,-6.93264 -32.1471,-9.31788 -35.0996,-6.07767 -2.9529,3.24021 -11.8468,1.15396 -22.6621,-5.31959 l -17.7986,-10.65223 55.5462,-3.64269 c 13.6461,-0.89505 34.5251,-1.77369 57.7618,-2.51535 z m -445.8402,17.31854 c -1.6029,4.37739 -3.016,8.51557 -4.2161,12.43339 h 47.0574 c -7.5101,-1.56767 -15.7534,-3.73207 -22.9096,-6.11461 -8.6409,-2.87685 -15.093,-4.95597 -19.9317,-6.31878 z m -1586.5946,5.6237 v 62.04963 h 186.1468 V 48.70356 Z m -189.659,38.80329 c -2.6343,3.3669 -4.7591,6.75876 -6.6033,10.35463 1.1218,-0.24105 2.2716,-0.37808 3.4449,-0.37795 10.9027,0 19.3151,7.58406 22.4579,16.53005 3.5977,-0.8177 7.7442,-1.54335 12.7354,-2.18952 -0.6098,-7.55212 -1.7621,-12.97603 -2.6262,-12.15535 -0.8978,0.85223 -4.6244,-1.03353 -8.2824,-4.19225 -3.6581,-3.15978 -12.6657,-6.67522 -20.0142,-7.81323 -0.3826,-0.0593 -0.7432,-0.10554 -1.1121,-0.15638 z m 1884.7525,12.61801 c 18.735,8.01583 35.411,17.06599 47.9568,26.0267 h 8.4278 36.0816 c 0.9171,-9.76407 1.0176,-17.88239 0.113,-26.0267 h -50.6762 z m 168.1049,0 c 4.0714,1.97682 8.1681,3.61133 12.2139,4.82218 12.4038,3.7133 43.4327,6.57083 68.9528,6.35137 23.6564,-0.20393 63.9299,-4.95967 102.3473,-11.17355 z m -1195.0451,24.31071 c -11.495,5.82524 -21.3999,11.26435 -29.8475,16.39537 l 0.084,21.02859 c 2.6679,-1.53315 5.0346,-2.66595 6.9053,-3.23867 3.931,-1.20421 11.771,-2.14711 22.4991,-2.82163 z m -60.6378,39.97189 c -1.839,2.02345 -3.4175,4.01193 -4.7396,5.97558 -6.7584,10.03726 -11.3273,17.78513 -13.7867,23.08996 3.6725,-0.0201 7.4424,-0.0575 11.306,-0.10865 1.9751,-1.82012 4.1004,-3.84879 6.5056,-6.28187 8.5631,-8.66259 18.9874,-17.15743 27.4517,-22.67506 z"
         style="fill:#6200ee;stroke:#6200ee;stroke-width:9.51950359;stroke-miterlimit:4;stroke-dasharray:none;stroke-opacity:1;fill-opacity:1" />
      <path
         id="path4147-7-3"
         d="m 4592.1514,-732.2364 c -59.359,0 -67.7121,5.58594 -86.6513,57.96165 -29.3654,81.20908 -119.7783,117.6785 -198.8734,80.21972 -53.0304,-25.11459 -56.5757,-24.43685 -100.2077,19.19521 -43.6319,43.63195 -44.3102,47.17956 -19.1954,100.20998 37.4588,79.09523 0.9887,169.50822 -80.2196,198.87336 -52.3754,18.93937 -57.9638,27.29227 -57.9638,86.65141 0,59.35924 5.5884,67.71009 57.9638,86.64922 81.209,29.36537 117.6784,119.78248 80.2196,198.87767 -25.1148,53.03032 -24.4365,56.57377 19.1954,100.20562 43.6278,43.62782 47.18,44.30617 100.1881,19.2018 49.5233,-23.45341 61.1272,-23.39044 117.3527,0.62125 43.4872,18.57173 68.4721,43.45261 82.4483,82.10291 17.9425,49.6189 26.9643,55.4528 85.7433,55.4528 59.3593,0 67.7124,-5.5883 86.6514,-57.9638 29.3652,-81.20739 119.7805,-117.67859 198.8755,-80.21967 53.0306,25.11468 56.5736,24.4368 100.2057,-19.19529 43.6277,-43.62782 44.3104,-47.18205 19.2062,-100.1904 -23.4535,-49.52318 -23.3949,-61.12483 0.6169,-117.35039 18.5718,-43.48738 43.453,-68.47234 82.1029,-82.4483 49.6191,-17.94253 55.4527,-26.96428 55.4527,-85.74342 0,-59.35926 -5.588,-67.71204 -57.9638,-86.65141 -81.2073,-29.36514 -117.6784,-119.77802 -80.2196,-198.87336 25.1147,-53.03042 24.4368,-56.57803 -19.1953,-100.20998 -43.628,-43.62805 -47.1796,-44.30601 -100.1882,-19.20177 -49.5231,23.45359 -61.125,23.39031 -117.3504,-0.62125 -43.4874,-18.57175 -68.4742,-43.44833 -82.4506,-82.09856 -17.9423,-49.61904 -26.9642,-55.455 -85.7434,-55.455 z m 0,160.88683 a 382.22373,382.22373 0 0 1 382.2246,382.2245 382.22373,382.22373 0 0 1 -382.2246,382.22448 382.22373,382.22373 0 0 1 -382.2223,-382.22448 382.22373,382.22373 0 0 1 382.2223,-382.2245 z"
         style="fill:#6200ee;stroke-width:1.18628335;fill-opacity:1;stroke:#6200ee;stroke-opacity:1"
         inkscape:connector-curvature="0" />
      <g
         style="fill:#6200ee;fill-opacity:1;stroke:#6200ee;stroke-opacity:1"
         inkscape:label="Capa 1"
         id="layer1-3-5-6"
         transform="matrix(1.1376599,0,0,1.2208307,4195.7391,-467.03385)">
        <path
           style="fill:#6200ee;fill-opacity:1;stroke:#6200ee;stroke-opacity:1"
           d="m 269.53497,416.14642 c -11.53359,-1.84452 -26.62123,-6.28113 -33.3941,-9.81973 -3.85,-2.0115 -14.15694,-19.86885 -17.31944,-22.92839 -4.64386,-4.49266 -5.75,-6.17856 -5.75,-8.76372 0,-1.76052 0.45949,-3.20094 1.02108,-3.20094 0.5616,0 4.34348,0.97746 8.40418,2.17214 5.91855,1.74127 8.04678,1.96755 10.72892,1.14072 2.93452,-0.90463 3.09996,-1.12343 1.34582,-1.7799 -10.27718,-3.84615 -23.62484,-14.11826 -28.35998,-21.82532 -3.58982,-5.84291 -6.53267,-16.75416 -6.52898,-24.20764 0.007,-14.42651 3.92047,-20.36833 26.37615,-40.04837 27.01458,-23.67543 32.6331,-26.71432 49.51281,-26.78 11.17207,-0.0435 18.09247,1.46899 18.94001,4.13936 0.30834,0.9715 -0.14991,4.44897 -1.01835,7.72769 -6.98544,26.37305 -7.02345,27.66326 -1.24246,42.17718 3.15069,7.91021 3.92775,10.89746 3.1575,12.13828 -0.56194,0.90522 -4.13008,3.35731 -7.9292,5.44907 -7.61971,4.19535 -11.85299,7.7936 -13.99678,11.89713 -2.58407,4.94631 -1.4595,5.11897 3.44724,0.52929 6.23075,-5.82813 12.04018,-8.76041 18.72252,-9.45009 5.21108,-0.53783 5.43405,-0.45181 10.39857,4.01171 4.36402,3.92364 10.30185,6.76119 11.54564,5.5174 0.20992,-0.20992 -1.71924,-1.94025 -4.28703,-3.84516 -10.04246,-7.45002 -11.36771,-13.43769 -4.75917,-21.50255 4.15341,-5.06869 7.46811,-11.89216 7.49955,-15.43819 0.0171,-1.92571 -0.81294,-1.0569 -3.72804,3.90233 -2.0625,3.50877 -5.08497,7.1979 -6.7166,8.19808 -2.89508,1.77466 -3.01884,1.76942 -5.13352,-0.21722 -1.1918,-1.11964 -2.95481,-4.54064 -3.9178,-7.60222 -4.55977,-14.49669 2.92757,-36.92498 15.28058,-45.77292 2.32729,-1.66694 11.54527,-8.59769 20.48439,-15.40167 19.97716,-15.20554 30.2668,-22.04704 40.38758,-26.85338 l 7.78547,-3.6973 13.11542,0.15772 c 19.22014,0.23113 28.98878,1.66217 33.71788,4.93943 3.95751,2.74256 8.7466,9.67561 8.7466,12.66226 0,2.44698 1.69314,2.02258 2.34527,-0.58786 1.30112,-5.20834 -1.811,-12.06574 -8.25389,-18.18709 -1.70026,-1.6154 -3.09138,-3.57178 -3.09138,-4.34752 0,-0.77573 4.20919,-5.75473 9.35376,-11.06445 5.14456,-5.30972 9.63969,-10.55494 9.98917,-11.65606 0.34948,-1.10112 1.02784,-5.87356 1.50746,-10.60543 1.02212,-10.0841 4.15094,-17.7247 10.23301,-24.98906 2.25656,-2.69521 3.82699,-4.90039 3.48985,-4.90039 -0.33715,0 -2.42655,1.14485 -4.64312,2.5441 -5.14735,3.24939 -9.16182,9.61193 -12.52157,19.84549 -8.94446,27.2442 -17.68332,35.85607 -36.37068,35.84214 -4.69583,-0.004 -10.49117,-0.53539 -12.87852,-1.18199 -5.88539,-1.59403 -12.47066,-7.90536 -16.2423,-15.56664 -2.77332,-5.63342 -3.04938,-7.02633 -2.74993,-13.87517 0.36256,-8.29211 -0.53233,-9.2218 -3.41558,-3.54838 -2.29798,4.52178 -2.20772,9.06553 0.38334,19.29826 1.26812,5.0081 1.86336,9.51302 1.46611,11.09579 -1.07977,4.30214 -7.86431,10.77264 -16.27265,15.51943 -4.30559,2.43064 -12.98588,7.75333 -19.28952,11.8282 -6.30365,4.07487 -12.45629,7.78719 -13.67254,8.24961 -5.21012,1.98088 -5.59516,-5.71887 -0.76285,-15.25498 l 2.55338,-5.03885 -2.96646,-3.1285 c -4.24162,-4.47334 -6.12787,-8.73721 -6.82787,-15.4345 -1.14917,-10.99466 4.27212,-29.74818 13.24196,-45.80705 8.42642,-15.08598 12.36436,-18.06057 28.39555,-21.44906 13.01748,-2.75149 17.79899,-4.40044 20.72153,-7.14602 3.59069,-3.37328 2.81667,-5.5428 -4.37152,-12.25287 -6.07619,-5.67203 -6.58723,-6.45924 -5.92266,-9.12334 1.12503,-4.509895 9.42721,-11.753945 18.7124,-16.327465 7.29991,-3.59564 11.94909,-4.94133 26.56645,-7.68954 1.60414,-0.30159 2.38563,-1.37123 2.8637,-3.9196 0.78735,-4.19691 4.00671,-6.73887 12.14142,-9.58669 11.14694,-3.90234 30.78552,-2.2351 38.51659,3.26991 4.02991,2.86955 3.54907,5.28317 -1.54363,7.74851 -6.41423,3.10507 -11.91883,2.72043 -20.10965,-1.40518 -3.80895,-1.91852 -7.07775,-3.33583 -7.264,-3.14958 -0.89192,0.89192 4.67745,6.32621 10.02694,9.78375 7.63361,4.93384 10.30523,4.90971 18.71078,-0.169 8.02157,-4.84671 12.47697,-6.29519 15.07938,-4.90243 2.29714,1.22939 2.31276,0.67096 -0.25527,9.12563 -2.39388,7.88133 -2.17335,13.58022 0.80721,20.860015 l 1.82033,4.446 0.56509,-7.26385 c 0.61932,-7.960885 2.59593,-11.746665 7.34956,-14.076525 2.26345,-1.10937 3.27915,-1.11489 5.89346,-0.032 3.75728,1.55632 14.56431,11.274595 23.94189,21.529875 5.43852,5.94753 6.74702,8.00941 6.73469,10.61213 -0.008,1.77671 -0.35508,3.76472 -0.77035,4.41781 -1.25832,1.97894 -6.02983,3.31015 -12.02944,3.35611 -3.12669,0.0239 -7.67984,0.42861 -10.1181,0.89923 -4.43293,0.85562 -4.43353,0.85535 -9.58422,-4.50527 -5.80546,-6.04207 -8.6398,-7.43751 -15.1067,-7.43751 -4.8387,0 -5.19831,1.38551 -0.59839,2.3055 4.02295,0.80459 8.04258,5.19558 11.62087,12.6945 3.0809,6.45653 3.10119,6.60701 3.03427,22.5 -0.11063,26.27577 -4.48677,48.74655 -13.37054,68.65549 -10.52468,23.5863 -18.93734,33.22671 -37.55166,43.03192 -8.77916,4.62448 -7.12251,5.73386 5.18715,3.47358 4.74097,-0.87053 8.9985,-1.34882 9.46118,-1.06287 1.46133,0.90315 0.86951,7.74382 -1.02969,11.90188 -1.00486,2.2 -3.31985,5.45219 -5.14443,7.22708 -4.06155,3.95094 -17.28718,10.57478 -25.73464,12.88877 -3.4375,0.94163 -6.25,2.08827 -6.25,2.5481 0,0.45983 2.65991,0.83605 5.91091,0.83605 6.36159,0 12.69672,-1.79858 26.08909,-7.40685 4.675,-1.95773 9.97946,-3.56708 11.7877,-3.57633 1.80823,-0.009 7.37856,1.56307 12.37849,3.49405 10.36315,4.00225 21.01827,5.95632 28.35157,5.19945 7.17477,-0.7405 10.33703,0.10064 11.89355,3.1636 1.9574,3.85182 3.58869,14.65304 3.58869,23.76165 0,6.56772 -0.45509,8.88498 -2.5839,13.15695 -2.81522,5.64941 6.9727,29.58669 6.78475,36.08967 -0.31324,10.83739 -37.1893,16.14644 -48.70045,0.0438 -2.74064,-3.83382 -34.06759,-25.19979 -40.24161,-28.29617 -6.93275,-3.47691 -12.5033,-5.62979 -14.56698,-5.62979 -1.83783,0 -3.89518,6.68899 -7.96713,8.07395 -11.24333,3.8241 -19.60329,-1.35268 -25.1479,-4.03678 -5.3161,-2.57348 -6.45574,-5.29213 -4.80732,-11.46796 0.5948,-2.2284 0.87928,-4.25381 0.63218,-4.5009 -0.76842,-0.76843 -4.90419,5.67565 -4.29123,11.96219 1.28732,13.2028 -6.15885,7.6855 -13.71396,7.70476 -7.08663,0.0181 -14.14662,-5.46121 -17.69314,-9.67601 -2.98298,-3.54507 -3.59568,-9.20096 -1.61289,-14.88878 1.6836,-4.8296 0.54548,-5.93545 -1.95114,-1.89583 -1.23348,1.99581 -2.70263,6.46299 -3.26477,9.92705 -1.67081,10.29595 16.12476,15.13036 14.04762,17.07647 -17.57264,16.46408 -17.57264,16.46408 -45.28153,6.74936 -6.48344,-2.27309 -11.329,3.26492 -14.43866,5.37103 -6.52902,4.42198 -6.33785,5.67505 0.51246,3.359 7.99315,-2.70244 13.79877,-1.98602 17.50316,2.15991 3.79957,4.25246 3.72752,9.58148 -0.24303,17.97452 -1.66315,3.51559 1.71295,20.26773 1.91756,20.47234 0.20462,0.20461 1.5379,-0.54506 2.96285,-1.66593 3.67619,-2.89169 17.06147,-22.13957 17.79845,-29.16793 0.34603,-3.3 1.10928,-7.2547 1.6961,-8.78822 1.79643,-4.69453 10.35995,-8.65733 23.03966,-10.66174 l 4.85638,-0.7677 2.05874,4.03546 c 2.4781,4.85748 29.79164,30.23484 34.50509,33.14791 1.87535,1.15903 3.03929,2.45427 2.58653,2.8783 -1.76823,1.65606 -37.19645,7.61359 -49.85496,11.82534 -19.70354,6.55578 -45.45546,5.59639 -64.97149,6.03699 -9.075,0.20488 -19.02265,-0.0309 -22.1059,-0.52402 z m -7.72871,-25.71278 3.83117,-5.5 10.967,-0.50663 c 8.22296,-0.37987 10.21637,-0.71447 7.967,-1.33729 -1.65,-0.45686 -5.475,-1.49509 -8.5,-2.30718 -14.56034,-3.90888 -24.45895,-16.95053 -25.6913,-33.8489 -0.55409,-7.59789 2.62797,-30.07262 5.06712,-35.78873 0.75366,-1.7662 5.03089,-7.19677 9.50496,-12.06794 8.33626,-9.07616 9.54283,-11.27882 8.9137,-16.2725 l -0.36168,-2.87083 -1.76708,4 c -2.23528,5.05981 -6.57381,9.61151 -14.01965,14.70845 -6.61474,4.52803 -8.1487,7.25812 -11.68215,20.79155 -2.96201,11.34475 -3.20947,11.5658 -11.17522,9.98246 -6.89167,-1.36985 -13.69977,-0.78381 -17.7887,1.53123 -2.34687,1.32874 -2.08411,1.41761 4.28984,1.45087 11.645,0.0608 16.92406,4.0437 20.65137,15.58098 1.14821,3.5541 5.11866,12.37416 8.82322,19.60014 5.72033,11.15787 6.73557,13.90807 6.73557,18.24623 0,2.80945 4.21231,20.09796 3.77582,21.66429 -1.1663,4.18527 -3.96905,-10.6993 0.45901,-17.0562 z m 211.36876,-55.5348 c -1.70697,-1.94413 -3.10359,-3.93699 -3.10359,-4.42857 0,-1.77623 3.1747,-4.00627 7.29467,-5.12408 7.15248,-1.94056 7.40056,-2.14504 3.70533,-3.05396 -4.86421,-1.19645 -10.47926,-0.2699 -22.51503,3.71524 -11.23788,3.72095 -15.82437,4.11677 -21.98497,1.89733 -4.95091,-1.78362 -5.00522,-1.78485 -3.59096,-0.0808 0.63466,0.76472 3.50226,2.41949 6.37245,3.67727 4.33929,1.90157 6.81909,2.26457 14.71851,2.15451 7.96632,-0.11099 10.38792,0.24992 15,2.23559 7.39265,3.18281 7.70359,3.1076 4.10359,-0.99257 z M 364.06658,324.27029 c 2.4951,-11.33478 3.45612,-13.50153 6.742,-15.20073 4.13201,-2.13674 13.68045,-0.0347 24.18479,5.32426 6.16154,3.14338 7.23229,1.94215 2.41129,-2.70511 -2.77,-2.67018 -6.625,-4.92424 -11.5,-6.72419 -11.41387,-4.21424 -19.72507,-8.46027 -20.91602,-10.68558 -1.92665,-3.59997 -0.26505,-6.63534 5.12836,-9.36839 6.48197,-3.28466 20.59409,-6.96639 34.42138,-8.98022 6.03181,-0.87849 11.1322,-1.76251 11.33419,-1.96449 0.20198,-0.20199 -2.1749,-0.68487 -5.28197,-1.07307 -9.00136,-1.12465 -27.11899,0.0654 -38.59662,2.53517 l -10.57746,2.27608 -10.42254,-3.09647 c -13.16111,-3.91008 -27.98489,-7.4449 -28.60803,-6.82177 -0.26219,0.2622 4.17228,2.85175 9.85438,5.75456 11.8962,6.0774 21.84923,15.07282 25.88362,23.3933 2.18713,4.51073 2.46034,6.54713 2.79202,20.81057 0.20221,8.69581 0.58092,15.5973 0.84157,15.33665 0.26066,-0.26065 1.29972,-4.22541 2.30904,-8.81057 z m 35.925,-151.23948 c -2.69877,-10.71779 1.02103,-21.09713 11.68766,-32.61198 3.81359,-4.11686 10.15145,-11.82608 14.08414,-17.13161 8.15274,-10.99875 8.76497,-11.33073 22.80805,-12.36752 7.69867,-0.56838 17.5,-3.26424 17.5,-4.81339 0,-0.98717 -26.91028,0.62421 -32.14434,1.9248 -7.97505,1.98167 -10.15508,1.78497 -16.67093,-1.50422 -3.16703,-1.59871 -7.9917,-3.22629 -10.72148,-3.61685 -5.88068,-0.84137 -5.14807,0.38933 1.74015,2.92323 6.48928,2.38715 11.19764,7.82956 10.37688,11.99466 -1.66744,8.46178 -10.54211,20.99926 -17.32898,24.48113 -2.91303,1.49447 -4.39249,1.64211 -8.63338,0.86152 -8.67507,-1.59677 -19.33844,-0.46042 -25.61792,2.72999 -5.8415,2.96788 -13,8.18557 -13,9.47546 0,0.42588 3.93267,-0.80472 8.73926,-2.73467 9.85647,-3.95758 19.70005,-5.20793 25.61971,-3.25426 4.17033,1.37633 4.25403,1.60351 5.52893,15.00688 0.80842,8.49918 1.17635,9.69817 3.62136,11.80128 1.49683,1.28752 2.91485,2.14761 3.15115,1.9113 0.2363,-0.2363 -0.0968,-2.52039 -0.74026,-5.07575 z m 10.38472,219.80596 c -8.00887,-5.80159 -31.4993,-31.1886 -27.90714,-34.16983 2.79988,-2.32369 6.72791,-2.27093 16.84096,0.22621 14.37053,3.54839 17.31487,3.39199 26.90345,-1.42905 4.37558,-2.2 -4.8222,-7.03046 -3.15467,-7.03046 3.80172,0 43.90467,25.59824 43.90467,28.31762 0,3.63857 3.11905,13.77377 -6.98804,15.59941 -3.14616,0.56829 -15.75641,-1.15045 -24.83141,-0.62806 -9.075,0.52238 -17.40966,1.22538 -18.52146,1.56222 -1.35989,0.41201 -3.40416,-0.38918 -6.24636,-2.44806 z m 122.87621,-38.27042 c 0,0 -6.08278,-15.136 -5.69231,-16.97336 0.60056,-2.82587 1.04136,-3.24444 2.86059,-2.71635 18.06113,5.24287 34.92534,-0.071 45.85031,-14.44743 1.46471,-1.92744 3.16059,-4.81293 3.76863,-6.4122 0.91509,-2.40685 -0.17218,-1.69406 -6.31157,4.13775 -9.3113,8.84483 -15.53459,11.51564 -27.15673,11.65469 -6.49743,0.0777 -8.90189,-0.34568 -12.80184,-2.25435 -6.92603,-3.38966 -8.15652,-5.79466 -8.17921,-15.98639 l -0.019,-8.51073 6.24048,-3.56217 c 3.43226,-1.95919 7.14476,-4.34527 8.25,-5.30238 3.6104,-3.12655 2.11659,-3.69816 -3.24719,-1.24254 -6.49605,2.97399 -21.57157,4.89238 -33.5615,4.27076 -6.74838,-0.34987 -11.46551,-1.38945 -21.18179,-4.6681 -16.51635,-5.57326 -17,-5.91842 -17,-12.13224 0,-6.92239 2.73123,-13.39525 9.76008,-23.13086 3.31838,-4.59624 8.33398,-12.96931 11.14578,-18.60681 3.86143,-7.74192 5.58898,-10.25 7.06016,-10.25 1.20579,0 4.09724,2.66035 7.59032,6.98366 9.06924,11.22477 21.19121,18.01634 32.1566,18.01634 2.98767,0 4.53429,0.48058 4.93877,1.53461 1.02022,2.65867 -1.61727,9.72631 -6.14098,16.45589 -2.39966,3.56978 -4.12881,6.71978 -3.84255,7 1.01566,0.99429 10.88062,-10.64744 14.01722,-16.54184 3.64974,-6.85873 9.08421,-12.69635 13.53625,-14.54045 2.81614,-1.16648 3.22864,-1.07162 5.04731,1.16074 1.75249,2.15114 1.9112,3.40974 1.3784,10.93105 -0.85072,12.00931 -3.83708,22.70247 -12.14859,43.5 -0.55967,1.40044 0.31985,0.95078 2.93392,-1.5 4.82151,-4.52032 11.86935,-19.12077 14.24008,-29.5 2.76339,-12.09836 2.48599,-32.35781 -0.59318,-43.32123 -1.28539,-4.57668 -2.66795,-7.95168 -3.07235,-7.5 -0.4044,0.45168 -1.26816,3.01921 -1.91947,5.70562 -2.68174,11.06124 -7.67251,17.56827 -15.80956,20.61273 -6.88691,2.57672 -12.77973,2.53544 -19.92944,-0.13961 -7.64792,-2.86145 -17.86729,-13.10012 -22.52172,-22.56425 -3.25595,-6.62053 -3.32489,-7.03224 -3.22803,-19.27913 0.0663,-8.37838 0.9537,-17.63666 2.68526,-28.01413 1.42245,-8.525 2.81458,-20.675 3.0936,-27 0.47906,-10.85947 0.65287,-11.62532 3.12051,-13.75 3.61696,-3.11427 7.57187,-2.89977 24.59295,1.33383 16.38934,4.07646 21.8754,6.68191 29.15254,13.84517 6.2571,6.15918 17.75617,20.56048 17.75617,22.23761 0,2.35451 -4.38928,4.33339 -9.61172,4.33339 -7.06366,0 -8.85796,1.76861 -12.68157,12.5 -3.05011,8.56049 -3.42647,9.11201 -7.70671,11.29366 -5.71781,2.91439 -10.40249,2.30519 -14.25,-1.85309 -5.21308,-5.63415 -3.86809,-9.01574 7.03853,-17.69632 5.09515,-4.05523 6.23663,-9.2073 3.85456,-17.39761 -1.65916,-5.70475 -5.42078,-11.88002 -4.17057,-6.84664 0.34153,1.375 0.85591,4.975 1.14307,8 0.78438,8.26268 -3.51488,14.81639 -10.86559,16.56328 -2.40396,0.5713 -2.75276,0.35678 -2.77196,-1.70487 -0.0351,-3.76966 -3.4221,-10.21283 -6.91247,-13.14978 -3.26158,-2.74444 -6.06557,-3.53431 -6.06557,-1.70863 0,0.55 0.59214,1 1.31586,1 0.72372,0 2.34015,1.82248 3.59206,4.04996 1.74954,3.11288 2.60727,7.20756 3.70706,17.69685 1.57063,14.98001 2.82256,18.28363 8.33697,21.99979 2.42782,1.63611 4.80044,2.2534 8.66114,2.2534 6.39866,0 9.22489,-2.14339 19.10069,-14.48585 6.43622,-8.04379 12.4656,-12.51415 16.8784,-12.51415 12.75967,0 20.84306,17.07722 15.68433,33.13517 -1.23998,3.85978 -3.28677,6.97701 -7.29585,11.11153 l -5.57236,5.74669 3.70248,2.9754 c 2.20696,1.77356 4.41,4.82799 5.45408,7.56188 2.05517,5.38139 1.2009,10.86068 -3.116,19.98584 l -2.56408,5.42003 2.55761,3.76387 c 2.16756,3.18985 2.55761,4.87982 2.55761,11.08138 0,4.67517 -0.56358,8.40738 -1.56074,10.33566 -2.34389,4.5326 -1.17893,5.72329 1.77501,1.81421 2.92841,-3.8753 5.78573,-12.60694 5.78573,-17.68055 0,-3.05333 0.22099,-3.3167 2.25,-2.6815 4.02656,1.26055 10.75935,6.48593 13.20777,10.25067 3.5996,5.53478 4.83517,11.56111 4.06202,19.81182 -0.37093,3.95841 -1.25936,7.99706 -1.97427,8.97476 -1.21997,1.6684 -1.50712,1.60269 -4.67268,-1.06923 -3.60684,-3.04438 -10.40862,-6.48374 -12.87284,-6.50921 -0.825,-0.009 0.65296,1.82981 3.28435,4.0852 5.71731,4.90037 8.99013,10.85287 9.12029,16.58774 0.0816,3.59491 -0.46583,4.77613 -3.79248,8.18332 -4.62897,4.74104 -11.0835,6.75053 -16.54962,5.15241 -3.06695,-0.89668 -3.98047,-0.65655 -8.47553,2.22793 -4.53594,2.9107 -5.78804,3.23302 -12.56254,3.23395 -4.13846,5.7e-4 -9.04327,-0.38459 -10.89958,-0.8559 -4.72213,-1.19894 -3.27732,0.73926 2.87511,3.85693 2.67215,1.35408 5.16954,2.96531 5.54975,3.5805 0.39745,0.64309 12.3669,6.44449 9.03056,9.54947 -6.41243,5.96779 -5.54342,7.00773 2.46481,2.94965 4.80842,-2.43661 -4.04512,-10.64883 -4.04512,-12.9235 0,-1.49985 14.60051,-5.55025 18.59501,-6.66591 20.75007,-5.79548 14.94525,2.28707 14.07084,5.77099 -0.80658,3.21371 -3.14098,15.68084 -8.06718,18.79703 -7.44346,4.70854 -7.63951,9.01348 -20.3666,8.93652 -27.33151,7.13516 -50.03122,-3.61256 -43.05099,-28.36204 z M 148.42349,340.64227 c -12.33346,-3.43527 -14.13819,-4.89414 -10.25,-8.28572 4.19248,-3.65702 5.64436,-3.79564 12.16579,-1.16151 4.81092,1.94322 8.97024,2.69047 18.1782,3.26584 12.35554,0.77205 15.24913,1.7889 12.95539,4.55268 -3.23463,3.89749 -21.6463,4.80483 -33.04938,1.62871 z m -35.16392,-13.0128 c -2.01516,-0.39247 -4.78096,-1.4455 -6.14622,-2.34005 -2.20428,-1.4443 -9.686793,-9.79733 -9.691793,-10.81935 -0.001,-0.21836 6.186423,-0.17201 13.749993,0.10299 12.70999,0.46212 14.13078,0.71171 18.75194,3.29424 2.75,1.53683 6.53156,4.05661 8.40346,5.59949 l 3.40347,2.80525 -8.97119,1.15051 c -9.78226,1.25453 -13.89659,1.29818 -19.49966,0.20692 z m 50.66392,-2.43275 c -9.79327,-3.1994 -22.90991,-9.12159 -28.07771,-12.67713 -6.73691,-4.63512 -9.83268,-9.33739 -10.44699,-15.86824 l -0.52471,-5.57829 -3.77376,7.32128 c -2.98968,5.80014 -4.48421,7.61812 -7.19318,8.75 -4.62765,1.93356 -9.89327,1.04381 -14.983643,-0.46132 -8.481634,-2.50787 -10.674413,-8.22746 -10.30633,-38.66068 0.18266,-15.10237 0.06401,-23.65232 4.555647,-24.77965 1.919523,-0.48177 2.17267,-0.9281 1.373411,-2.42153 -1.5983,-2.98645 -0.616119,-30.51502 1.517071,-38.85571 2.824452,-11.04351 8.382244,-21.98946 14.393194,-28.34708 9.45756,-10.00302 27.37555,-22.18473 32.63135,-22.18473 3.06025,0 7.02039,2.34358 10.98359,6.5 4.44272,4.65932 7.96842,6.5 12.45034,6.5 1.95231,0 3.54966,0.33893 3.54966,0.75318 0,0.41425 -0.9,3.90032 -2,7.74682 -2.25749,7.89401 -2.4276,9.5 -1.00628,9.5 2.55172,0 6.83544,-8.32763 8.91666,-17.33415 2.85337,-12.34804 5.75127,-15.15615 16.79352,-16.27324 4.7528,-0.48082 7.75153,-0.006 16.65958,2.63871 11.4677,3.40444 17.6133,3.62646 24.13652,0.87199 2.83313,-1.19631 2.51283,-1.30769 -5.75812,-2.00239 -7.18619,-0.60358 -10.10107,-1.39917 -16.24034,-4.43264 -9.45598,-4.67229 -17.15548,-5.50371 -27.4974,-2.96929 -6.69663,1.64109 -7.28637,1.64722 -8.83973,0.0919 -4.18063,-4.18585 0.0467,-18.802 7.63172,-26.38703 7.1839,-7.18389 18.74837,-12.20386 28.11397,-12.20386 5.16564,0 2.63146,-1.77054 -4.45175,-3.11028 -8.96894,-1.696415 -11.66231,-6.027055 -7.58985,-12.203625 3.06892,-4.65454 8.72453,-7.76924 17.10524,-9.42033 9.46064,-1.86384 14.3107,-1.13518 18.17672,2.73085 2.37099,2.37098 2.84954,3.68719 2.84954,7.83737 0,2.7433 -0.89419,7.84042 -1.9871,11.326925 -3.15558,10.06671 -2.87734,11.36735 3.07731,14.3848 8.22689,4.16888 13.34094,9.76081 21.80855,23.84641 7.59804,12.63911 8.45526,14.8161 8.21193,20.855 -0.1533,3.80467 -5.86143,9.80838 -12.88439,13.55158 -3.19571,1.7033 -10.20571,6.03557 -15.57777,9.62728 -11.48246,7.67705 -17.83224,9.8798 -34.89588,12.10545 -16.52758,2.15573 -19.19666,3.47101 -26.1651,12.89374 -5.97524,8.07972 -10.3897,28.57801 -16.05384,29.64797 -4.67019,0.88219 -11.60803,-1.06169 -16.89864,-4.73477 -2.39792,-1.66478 -4.57926,-2.80747 -4.84743,-2.53929 -1.14508,1.14508 3.33739,6.57061 7.89187,9.55223 6.10001,3.99341 5.96765,5.7477 -0.68459,9.07382 -4.47666,2.23833 -6.15136,2.48944 -16,2.39909 -11.32047,-0.10386 -17.90648,-1.647 -21.70648,-5.08596 -2.79888,-2.53294 -3.26876,-0.78929 -0.74313,2.75763 2.67953,3.76305 9.77544,7.2246 19.36624,9.44727 9.86405,2.28601 11.63282,3.46311 19.67845,13.09581 11.34656,13.58477 18.22944,16.76468 35.01881,16.1788 l 8.38611,-0.29264 -10,-3.49659 c -10.35426,-3.62046 -20.51016,-9.56309 -23.10111,-13.51738 -4.89809,-7.47542 -1.72304,-14.98909 10.09162,-23.88152 5.4086,-4.07084 9.3435,-25.06703 12.42423,-29.83514 7.28466,-11.2746 8.76336,-12.03534 32.5275,-16.73425 7.39043,-1.46132 19.69425,-4.86269 27.34182,-7.5586 14.75682,-5.20205 20.70377,-5.99617 25.67031,-3.42787 4.51597,2.3353 9.75602,9.22559 12.67593,16.66793 1.47991,3.77206 2.90716,6.85829 3.17165,6.85829 0.2645,0 0.24459,-2.60619 -0.0443,-5.79153 -0.38826,-4.28176 -1.85824,-8.44802 -5.63889,-15.98183 -2.8125,-5.60467 -5.11368,-10.96425 -5.11368,-11.91018 0,-0.94593 0.97063,-5.67766 2.15696,-10.51496 2.12148,-8.6504 2.1281,-8.93264 0.40245,-17.15566 -1.49117,-7.1057 -1.55226,-8.69016 -0.40696,-10.5565 1.74331,-2.84085 7.61946,-6.40285 21.84755,-13.24356 11.09007,-5.33199 20.58835,-12.33957 23.1088,-17.04907 1.89005,-3.53158 0.0691,-3.1233 -4.66826,1.04672 -4.91642,4.3276 -13.56855,8.15657 -18.431,8.15657 -9.83115,0 -11.90249,-6.69 -7.92335,-25.590705 1.77949,-8.45245 1.91697,-10.67663 0.93516,-15.12859 -0.63307,-2.87062 -1.90936,-6.15579 -2.8362,-7.30038 -1.61966,-2.0002 -1.68673,-1.8168 -1.72584,4.7193 -0.0245,4.10085 -1.18257,11.25081 -2.91719,18.01148 -2.7852,10.855265 -2.83524,11.476365 -1.57654,19.567655 1.01506,6.52508 1.03771,8.84657 0.10337,10.5924 -1.75908,3.28688 -7.02832,6.12083 -11.38854,6.1251 -3.47552,0.003 -4.78171,-0.91046 -14.5,-10.1448 -13.37371,-12.70771 -13.18041,-12.45729 -13.18041,-17.07583 0,-5.110755 3.74157,-12.237535 10.0465,-19.136125 2.8348,-3.10173 4.74713,-5.63951 4.24962,-5.63951 -1.25709,0 -9.90685,5.56114 -10.73569,6.90223 -1.17849,1.90683 -2.56043,1.19141 -2.56043,-1.3255 0,-3.43017 -4.25644,-8.06205 -9.24151,-10.05668 -3.58011,-1.43248 -7.11823,-1.90254 -18.50849,-2.45898 -4.11834,-0.20119 1.23523,-9.19737 7.34872,-12.34885 9.24818,-4.76738 44.27266,-12.69298 56.15128,-12.70632 5.63037,-0.006 6.05457,0.40041 3.78983,3.63378 -1.70406,2.43288 -4.93112,3.80869 -12.50912,5.33307 -7.13306,1.43488 -18.65055,8.74075 -16.75997,10.63132 0.30565,0.30566 1.61464,-0.13809 2.90887,-0.98609 3.90178,-2.55655 10.53377,-4.52636 18.61896,-5.53014 4.33513,-0.53821 7.83062,-1.4754 8.05907,-2.16075 0.22189,-0.66567 1.93288,-2.90322 3.80222,-4.97235 6.82908,-7.55898 18.62491,-10.40455 20.84014,-5.02737 2.30549,5.59627 5.07321,10.49489 6.10662,10.80821 0.7452,0.22593 0.95502,-1.24229 0.64243,-4.49547 -0.40126,-4.17597 -0.0936,-5.2714 2.26917,-8.07939 5.2954,-6.29323 9.267,-7.52244 25.76723,-7.97495 16.18119,-0.44376 28.03755,0.84071 36.30192,3.9328 8.29613,3.10398 9.23059,5.78561 3.24765,9.31982 -7.25544,4.28589 4.12453,4.03858 19.6618,-0.42729 13.19098,-3.79148 28.17859,-1.75986 30.02909,4.07055 1.18484,3.73309 -1.83279,5.12607 -10.23861,4.72629 l -7.21271,-0.34304 1.46271,2.23237 c 3.74528,5.71602 0.0602,8.95059 -16.37577,14.37397 -16.59293,5.47516 -24.84523,9.84372 -31.11204,16.46995 l -5.06147,5.35175 -3.46189,-1.44647 c -5.61244,-2.34502 -7.50152,-1.79379 -3.40118,0.99247 3.96673,2.695465 6.83357,7.832955 7.61278,13.642375 1.13496,8.46177 -1.22493,10.97924 -13.06577,13.93821 -10.4412,2.60921 -16.02525,5.48729 -22.7801,11.74108 -7.01064,6.49062 -11.03926,14.16108 -13.78126,26.2394 -5.66041,24.93381 -5.41957,33.20386 1.34747,46.2694 2.64409,5.10511 4.5416,10.1193 4.54114,12 -9.5e-4,3.90992 -4.61866,13.96094 -8.55888,18.62945 -1.57774,1.86937 -4.63977,4.68187 -6.80451,6.25 l -3.9359,2.85115 h -19.56653 c -15.86037,0 -20.39426,0.31612 -23.93654,1.66892 -3.74054,1.42853 -4.50286,1.46454 -5.29227,0.25 -2.29166,-3.52579 -1.98553,-5.98331 1.75572,-14.09439 3.48967,-7.56565 3.83095,-9.05383 3.74368,-16.32453 -0.0711,-5.92606 -0.71575,-9.55545 -2.48653,-14 l -2.3905,-6 -0.64323,11.5 c -0.6608,11.81407 -2.03314,16.83981 -5.95504,21.80845 -1.16849,1.48035 -3.36523,5.42244 -4.88166,8.76019 -3.43105,7.55201 -6.76676,9.42058 -13.34881,7.47765 -6.28553,-1.85541 -10.39247,-4.65389 -18.94479,-12.90905 -4.26062,-4.11258 -7.98616,-7.23783 -8.27898,-6.94501 -0.68757,0.68756 5.91326,13.13804 9.36679,17.66764 3.89849,5.1132 11.59489,10.85761 17.22736,12.85809 2.71228,0.96331 4.93141,2.2804 4.93141,2.92686 0,0.64646 -3.4875,4.23473 -7.75,7.97394 -4.2625,3.7392 -12.025,10.92872 -17.25,15.9767 -6.9148,6.68054 -13.23645,37.61899 -16.14794,38.42519 -6.67863,1.84934 -18.19489,1.29231 -26,-1.25757 z m -46.37603,-107.0855 c 7.46349,-9.13165 18.97135,-25.20833 28.26691,-27.43927 3.98362,-0.95607 7.24612,-1.96596 7.25,-2.2442 0.004,-0.27824 -1.45544,-1.15162 -3.24294,-1.94085 -4.60794,-2.03453 -13.2277,-10.96687 -14.81256,-15.34971 -0.73657,-2.03695 -1.69882,-3.70355 -2.13833,-3.70355 -1.42117,0 -0.87191,12.95854 0.67615,15.95216 1.12851,2.1823 1.18727,2.96474 0.25,3.32889 -3.42076,1.32906 -16.81405,14.93012 -21.05641,25.62691 -2.06758,5.21324 -3.37526,11.23418 -2.41144,11.23418 0.25711,0 4.1955,-1.76576 7.21862,-5.46456 z M 341.32883,87.551235 c 0.62783,-4.68081 9.3693,-18.70464 14.42741,-23.14572 1.95149,-1.71343 5.07075,-3.8414 6.93168,-4.72882 4.30085,-2.05093 4.37826,-3.61668 0.13351,-2.70048 -5.87009,1.26703 -10.48802,4.31413 -15.80829,10.43098 -4.40548,5.06508 -5.76187,6.02644 -8.50278,6.02644 -2.41393,0 -3.93371,-0.7993 -5.85004,-3.07672 -3.50575,-4.16635 -3.53017,-10.671 -0.0645,-17.18123 3.02715,-5.68649 1.80716,-6.17334 -2.48593,-0.99205 -4.26461,5.14692 -6.58421,13.33751 -5.32975,18.81951 l 0.95974,4.1941 -5.50518,0.64702 c -5.82606,0.68474 -13.40982,3.56127 -14.64099,5.55334 -0.55593,0.89951 0.4516,0.98834 4.12095,0.36332 12.2329,-2.08371 23.83669,0.89694 27.9538,7.18044 2.25221,3.4373 3.05371,3.13291 3.66037,-1.39013 z M 599.57143,272.6792 c -3.85,-1.42953 -7.17842,-2.73552 -7.3965,-2.90219 -0.21807,-0.16667 0.56943,-2.82715 1.75,-5.91219 3.07793,-8.04312 2.9029,-16.52059 -0.4813,-23.3118 l -2.6278,-5.2733 3.83075,-3.92304 c 5.02993,-5.15111 7.9868,-5.2157 10.07411,-0.22005 1.89619,4.53822 5.91897,22.09583 7.43028,32.42981 1.82985,12.51214 0.0494,13.80195 -12.57954,9.11276 z M 82.262659,247.35877 c -2.401229,-18.50564 -1.158767,-45.41487 3.856565,-60.5312 3.49242,-10.52624 4.977094,-12.98209 7.307599,-12.08779 2.301214,0.88305 2.08735,4.81838 -0.860458,15.8333 -4.764675,17.80393 -7.110737,43.45194 -8.380194,52.59982 l -1.274729,9.18587 z m 17.558772,-78.4971 c -6.36263,-3.45179 -1.290237,-14.96032 13.757059,-31.21279 6.4193,-6.93344 16.21415,-13.21524 20.60575,-13.21524 1.06766,0 2.46766,-1.421 3.45973,-3.51162 0.9165,-1.9314 3.07511,-4.6999 4.79691,-6.15223 3.27935,-2.76612 18.12377,-10.33615 20.26863,-10.33615 0.68414,0 1.56449,-0.51876 1.95635,-1.1528 1.12093,-1.8137 -10.54326,-0.40824 -15.70785,1.89269 -2.41262,1.07488 -7.65634,4.6951 -11.65272,8.04494 -3.99637,3.34985 -8.20417,6.38836 -9.35066,6.75224 -5.68422,1.8041 -4.22963,-5.39871 2.18654,-10.82723 2.0866,-1.76541 12.20648,-8.56642 22.48861,-15.113355 10.28214,-6.54693 23.55345,-15.38151 29.4918,-19.63239 10.15558,-7.26971 20.07045,-11.9641 25.26902,-11.9641 1.61389,0 1.83191,0.49458 1.32822,3.01303 -0.67616,3.38081 -6.29799,12.55008 -9.3571,15.26156 -1.10116,0.97603 -4.7955,2.26664 -8.20964,2.86803 l -6.20752,1.09343 1.99682,2.13198 c 2.94685,3.1463 4.34889,7.65194 3.60875,11.59723 -0.51772,2.759675 -3.24379,6.021935 -13.08286,15.656145 -6.83588,6.69354 -13.43394,12.41695 -14.66236,12.71868 -1.22841,0.30174 -6.60901,1.24751 -11.95688,2.10172 -10.20877,1.63063 -17.7766,4.08863 -17.7766,5.77377 0,0.55531 0.77665,0.68256 1.75,0.28672 3.47735,-1.41416 18.86159,-1.78558 22.6174,-0.54605 6.84425,2.2588 12.6326,8.83762 12.6326,14.35774 0,2.53816 -4.37847,7.68602 -6.53728,7.68602 -0.69551,0 -4.10941,-2.1375 -7.58645,-4.75 -5.80983,-4.36526 -6.76959,-4.74536 -11.84908,-4.69275 -3.03996,0.0315 -7.92221,0.86595 -10.84946,1.85437 -6.7679,2.28525 -18.23666,9.97315 -24.64014,16.51711 -2.72932,2.7892 -5.20432,5.05325 -5.5,5.03123 -0.29567,-0.022 -1.77509,-0.71139 -3.287589,-1.53193 z"
           id="path4147-5-3-7"
           inkscape:connector-curvature="0"
           sodipodi:nodetypes="ssssssssssssssscsssssssscssssssscssssssssssssscsssssssssscsssssssssssssssssssscsssscscsssssssssssssssscsssssssssssscsssssssssssscsssscssssssscssssssscssssssssssscsssssssssccsssssssscsscscssscssssssssssssssssssscsssssssssssscssssssscssssssssssscscssssssssssssssssssssssssssssssssssssssssscssscsssssssssscssssssssssssssssccssssssscssscssssscsssssssssssssssscsssssssssssssssssssssscsssssssscssssssssscsssssssssssssssscssssssssscsscsssssssssssssscssscsssssssssscsssssscssssssssssssssscsssssssssssssssssscssssssssscssssssssscsssssssssssssssssscsssssssssssssscss" />
      </g>
    </g>
    <text
       xml:space="preserve"
       style="font-style:normal;font-weight:normal;font-size:40px;line-height:1.25;font-family:sans-serif;letter-spacing:0px;word-spacing:0px;fill:#6200ee;fill-opacity:1;stroke:none;"
       x="-108.81393"
       y="631.09485"
       id="text33"><tspan
         sodipodi:role="line"
         id="tspan31"
         x="-108.81393"
         y="631.09485"
         style="font-style:normal;font-variant:normal;font-weight:normal;font-stretch:normal;font-size:320px;font-family:'Roman Antique';-inkscape-font-specification:'Roman Antique';fill:#6200ee;fill-opacity:1;">Think Machine: Advisor</tspan></text>
  </g>
</svg>
